<?xml version="1.0" standalone="no"?>
<!DOCTYPE svg PUBLIC "-//W3C//DTD SVG 20010904//EN"
 "http://www.w3.org/TR/2001/REC-SVG-20010904/DTD/svg10.dtd">
<svg version="1.0" xmlns="http://www.w3.org/2000/svg"
 width="700.000000pt" height="700.000000pt" viewBox="0 0 700.000000 700.000000"
 preserveAspectRatio="xMidYMid meet">
<metadata>
Created by potrace 1.11, written by Peter Selinger 2001-2013
</metadata>
<g transform="translate(0.000000,700.000000) scale(0.100000,-0.100000)"
fill="#000000" stroke="none">
<path d="M2025 6981 c-22 -10 -50 -29 -61 -42 -12 -13 -81 -127 -154 -254 -73
-126 -165 -286 -205 -355 -40 -69 -148 -255 -240 -415 -92 -159 -203 -352
-247 -427 -93 -160 -110 -202 -103 -260 6 -44 72 -162 667 -1188 30 -52 66
-115 80 -140 95 -168 184 -318 200 -336 17 -19 50 -36 113 -60 17 -6 14 -8
-17 -14 -62 -11 -104 -49 -156 -140 -24 -43 -153 -266 -366 -635 -90 -154
-243 -419 -342 -590 l-179 -310 0 -65 c0 -59 4 -72 46 -145 26 -44 56 -96 67
-115 10 -19 43 -75 72 -125 29 -49 62 -106 73 -125 10 -19 137 -237 280 -485
143 -247 269 -466 280 -485 105 -187 124 -213 172 -245 29 -20 49 -20 970 -23
1007 -3 992 -4 1048 47 24 22 104 150 169 268 30 54 649 1126 666 1153 9 14
17 27 17 30 0 3 24 44 52 92 38 63 53 100 56 133 2 35 9 49 28 62 35 25 36 26
196 303 82 140 153 262 158 272 6 9 33 56 61 105 60 104 231 400 369 638 205
353 190 323 190 395 l-1 65 -266 460 c-146 253 -275 476 -285 495 -235 413
-378 650 -410 678 -29 26 -37 41 -40 74 -5 55 37 -21 -425 778 -135 234 -255
442 -266 462 -12 20 -32 55 -46 77 -15 22 -26 42 -26 45 0 2 -36 66 -81 142
-87 152 -127 197 -186 213 -26 8 -334 11 -963 11 -876 -1 -927 -2 -965 -19z"/>
</g>
</svg>
