<svg xmlns="http://www.w3.org/2000/svg" width="485.837" height="97.825" viewBox="0 0 485.837 97.825"><path fill="#00A099" d="M26.91 65.33c-.904 0-1.714-.478-2.143-1.24l-11.15-19.3c-.19-.38-.334-.76-.334-1.19-.762.095-1.43.524-1.81 1.19L.322 64.09c-.43.762-.43 1.715 0 2.478l11.15 19.3c.428.76 1.238 1.238 2.143 1.238h22.3c.906 0 1.716-.477 2.145-1.24L49.21 66.57c.287-.477.335-1 .287-1.525-.334.19-.715.286-1.096.286H26.91z"/><path fill="#C6C6C5" d="M24.767 23.015c.43-.762 1.24-1.24 2.144-1.24h21.492c.38 0 .762.096 1.096.287.048-.524-.048-1.048-.286-1.525L38.062 1.24C37.63.476 36.82 0 35.916 0H13.664c-.905 0-1.715.477-2.144 1.24L.37 20.537c-.43.762-.43 1.715 0 2.478l11.15 19.3c.38.666 1.047 1.095 1.81 1.19 0-.43.095-.81.334-1.19l11.103-19.3z"/><path fill="#364D55" d="M61.696 42.314l-11.15-19.3c-.238-.428-.62-.76-1.048-.952-.048.334-.143.667-.286.953l-11.15 19.3c-.43.76-1.24 1.238-2.144 1.238.905 0 1.715.477 2.144 1.24l11.15 19.298c.19.287.238.62.286.954.43-.19.81-.524 1.048-.953l11.15-19.298c.43-.763.43-1.716 0-2.478z"/><path fill="#002628" d="M38.06 44.792c-.428-.762-1.238-1.24-2.143-1.24H13.664c-.143 0-.238.05-.334.05 0 .428.095.81.334 1.19l11.15 19.3c.43.76 1.24 1.238 2.144 1.238H48.4c.382 0 .763-.095 1.097-.286-.048-.334-.143-.667-.286-.953L38.06 44.793z"/><path fill="#2A3C42" d="M35.917 43.553c.905 0 1.715-.477 2.144-1.24l11.15-19.298c.192-.286.24-.62.287-.953-.334-.19-.715-.286-1.096-.286H26.91c-.904 0-1.714.477-2.143 1.24l-11.15 19.298c-.19.38-.334.762-.334 1.19.095 0 .238.05.334.05h22.3z"/><g fill="#364D55"><path d="M190.163 30.83c0-.715-.38-1.048-1.048-1.048h-2.097V26.78h3.62c2.098 0 2.955.858 2.955 2.954V49.08c0 5.67 3.62 9.244 9.197 9.244 5.575 0 9.244-3.574 9.244-9.34v-19.25c0-2.097.858-2.954 2.954-2.954h3.62v3.002h-2.096c-.667 0-1.048.334-1.048 1.048v18.393c0 7.386-5.05 12.294-12.58 12.294S190.21 56.61 190.21 49.223V30.83h-.047zM224.472 30.83c0-.715-.38-1.048-1.048-1.048h-2.097V26.78h3.62c2.098 0 2.955.858 2.955 2.954V41.6H232c1.287 0 2.287-.24 2.86-1.24l8.29-13.628h3.907l-8.815 14.343c-.858 1.43-1.763 1.906-1.763 1.906v.096s.81.286 1.667 1.954l5.956 11.77c.477 1 1.24 1.096 2.478 1.096h.954v3.002h-1.81c-2.765 0-3.622-.286-4.718-2.573l-6.242-12.485c-.524-1.096-1.668-1.287-3.097-1.287h-3.764v16.392h-3.383V30.83h-.048zM266.833 26.16c7.91 0 11.96 4.193 11.96 4.193l-2 2.525s-3.813-3.526-9.912-3.526c-7.67 0-13.58 6.195-13.58 14.39 0 8.435 5.813 14.535 13.533 14.535 6.766 0 10.817-5.003 10.817-5.003v-4.24c0-.716-.38-1.05-1.048-1.05h-2.097v-3h3.383c2.097 0 2.954.857 2.954 2.953v13.01h-3.097v-2.574c0-.715.048-1.477.048-1.477h-.095s-4.003 4.622-11.198 4.622c-9.34 0-16.725-7.48-16.725-17.774-.048-9.817 7.385-17.584 17.058-17.584zM296.853 35.88c6.766 0 10.245 5.195 10.245 11.294 0 .572-.095 1.668-.095 1.668H288.23c.094 6.195 4.43 9.72 9.482 9.72 4.48 0 7.338-3 7.338-3l1.62 2.477s-3.574 3.525-9.1 3.525c-7.244 0-12.82-5.242-12.82-12.818.048-8.053 5.527-12.866 12.103-12.866zm6.862 10.294c-.19-5.05-3.288-7.53-6.91-7.53-4.05 0-7.576 2.622-8.433 7.53h15.343zM313.722 40.408c0-.667-.38-1.048-1.048-1.048h-2.05V36.5h3.384c2.05 0 2.954.86 2.954 2.717v1.096c0 .953-.095 1.763-.095 1.763h.095c.858-2.24 4.003-6.195 9.72-6.195 6.1 0 8.245 3.48 8.245 9.484V56.99c0 .715.38 1.048 1.048 1.048h2.05v2.86h-3.48c-2.097 0-2.954-.86-2.954-2.955V46.22c0-3.86-.57-7.242-5.288-7.242-4.193 0-7.767 2.86-8.91 6.91-.287 1-.382 2.143-.382 3.287v11.77h-3.288V40.408zM352.128 35.88c6.766 0 10.245 5.195 10.245 11.294 0 .572-.095 1.668-.095 1.668h-18.774c.095 6.195 4.432 9.72 9.483 9.72 4.48 0 7.338-3 7.338-3l1.62 2.477s-3.574 3.525-9.1 3.525c-7.244 0-12.82-5.242-12.82-12.818.048-8.053 5.528-12.866 12.103-12.866zm6.862 10.294c-.19-5.05-3.288-7.53-6.91-7.53-4.05 0-7.576 2.622-8.433 7.53h15.343zM380.72 45.84h1.38v-.286c0-5.1-1.857-6.91-6.337-6.91-1.24 0-4.765.335-4.765 2.145v1.57h-3.145v-2.334c0-3.383 5.86-4.146 7.958-4.146 7.72 0 9.58 4.146 9.58 9.387V56.99c0 .714.38 1.047 1.047 1.047h2.05v2.86h-3.337c-2.097 0-2.907-.906-2.907-2.908 0-1.05.048-1.812.048-1.812h-.094c.048 0-2 5.29-8.148 5.29-4.098 0-8.34-2.384-8.34-7.244.05-8.098 10.818-8.384 15.01-8.384zm-6.1 12.866c4.67 0 7.48-4.86 7.48-9.1v-1.097h-1.43c-3.86 0-11.53.094-11.53 5.574 0 2.287 1.81 4.622 5.48 4.622zM394.728 30.64c0-.667-.38-1.048-1.048-1.048h-2.05v-2.86h3.48c2.097 0 2.954.86 2.954 2.955V56.99c0 .715.38 1.048 1.048 1.048h2.05v2.86h-3.48c-2.097 0-2.954-.86-2.954-2.955V30.64zM417.267 35.88c7.148 0 12.96 5.433 12.96 12.724 0 7.386-5.812 12.96-12.912 12.96-7.148 0-12.96-5.527-12.96-12.96.046-7.29 5.812-12.723 12.912-12.723zm.048 22.683c5.194 0 9.483-4.29 9.483-9.96 0-5.527-4.29-9.672-9.483-9.672-5.242 0-9.53 4.147-9.53 9.674 0 5.67 4.288 9.96 9.53 9.96zM443.856 35.88c6.576 0 8.148 4.194 8.148 4.194h.095s0-.43 0-.905c0-1.764.76-2.67 2.763-2.67h3.383v2.86h-2c-.668 0-1.05.334-1.05 1.048v19.966c0 7.767-5.765 10.817-11.77 10.817-2.763 0-5.574-.714-7.957-1.953l1.286-2.764s3.002 1.715 6.623 1.715c4.764 0 8.576-2.24 8.576-7.672v-2.144c0-.905.048-1.763.048-1.763h-.095c-1.478 2.667-3.908 4.24-7.673 4.24-6.576 0-10.912-5.194-10.912-12.532s3.956-12.437 10.53-12.437zm8.053 12.343c0-7.148-3.384-9.34-7.72-9.34-4.765 0-7.53 3.48-7.53 9.292 0 5.86 3.146 9.625 7.96 9.625 3.906 0 7.29-2.382 7.29-9.577zM465.966 68.188c2.144 0 3.62-1.763 4.527-4.003l1.477-3.336-8.672-20.396c-.38-.858-.81-1.096-1.715-1.096h-.477v-2.86h1.525c2.193 0 2.86.478 3.765 2.67l6.29 15.295c.477 1.24.858 2.62.858 2.62h.095s.334-1.43.81-2.62l6.052-15.296c.81-2.192 1.572-2.668 3.812-2.668h1.525v2.858h-.477c-.858 0-1.382.238-1.715 1.096l-10.58 25.59c-1.286 3.096-3.763 5.098-7.004 5.098-3.382 0-5.288-2.383-5.288-2.383l1.572-2.43c-.047.048 1.526 1.858 3.622 1.858z"/></g><g fill="#00A099"><path d="M89.38 32.69v7.147h12.914v6.814H89.38v14.773h-8.767v-35.74h22.348v7.006H89.38zM124.833 41.266c-.143-.048-.905-.19-1.62-.19-3.764 0-6.147 2.143-7.148 3.62V61.42h-8.577V34.834h7.052v3.526c.143-.287 3.43-4.337 8.91-4.337 2.05 0 3.146.762 3.29.81l-1.907 6.433zM152.566 50.7h-17.583c0 1.86 1.668 5.433 6.814 5.433 3.574 0 6.338-1.62 6.814-1.858l2.526 5.05c-.334.335-4.67 2.955-10.007 2.955-9.96 0-13.772-7.243-13.772-13.914 0-8.148 5.29-14.248 13.056-14.248 8.005 0 12.246 5.623 12.246 14.2.002 1.048-.094 1.715-.094 2.383zm-12.008-10.816c-4.432 0-5.337 4.384-5.432 5.146h10.007c.047-1.048-.38-5.146-4.575-5.146zM182.11 50.7h-17.583c0 1.86 1.668 5.433 6.814 5.433 3.575 0 6.34-1.62 6.815-1.858l2.525 5.05c-.334.335-4.67 2.955-10.007 2.955-9.96 0-13.77-7.243-13.77-13.914 0-8.148 5.288-14.248 13.055-14.248 8.005 0 12.246 5.623 12.246 14.2 0 1.048-.094 1.715-.094 2.383zm-12.008-10.816c-4.432 0-5.337 4.384-5.432 5.146h10.007c.047-1.048-.382-5.146-4.575-5.146z"/></g><path fill="#00A099" d="M79.764 80.356h2.982v5.092h4.565v-5.092h3.004v13.228H87.31v-5.518h-4.564v5.518h-2.982V80.356zM93.096 89.77v-6.25h2.982v5.864c0 1.44.386 1.906 1.258 1.906.75 0 1.197-.324 1.786-1.115V83.52h2.982v10.064H99.67l-.223-1.4h-.06c-.854 1.015-1.787 1.644-3.166 1.644-2.19 0-3.124-1.542-3.124-4.058zM104.723 83.52h2.435l.203 1.3h.082c.832-.832 1.725-1.542 3.043-1.542 1.42 0 2.272.608 2.78 1.684.893-.913 1.826-1.684 3.165-1.684 2.17 0 3.145 1.54 3.145 4.057v6.25h-2.982V87.72c0-1.46-.386-1.906-1.238-1.906-.507 0-1.076.325-1.725.974v6.796h-2.982V87.72c0-1.46-.386-1.906-1.238-1.906-.487 0-1.076.325-1.705.974v6.796h-2.982V83.52zM121.646 90.784c0-2.11 1.684-3.266 5.66-3.672-.06-.893-.487-1.46-1.582-1.46-.852 0-1.684.344-2.658.912l-1.076-1.968c1.278-.77 2.72-1.32 4.302-1.32 2.576 0 3.997 1.462 3.997 4.546v5.762h-2.435l-.203-1.035h-.082c-.852.75-1.785 1.277-2.922 1.277-1.845 0-3.002-1.338-3.002-3.043zm5.66-.12v-1.767c-2.11.284-2.8.893-2.8 1.664 0 .65.447.954 1.158.954.67 0 1.115-.323 1.643-.85zM132.807 83.52h2.435l.203 1.28h.08c.853-.812 1.868-1.522 3.227-1.522 2.19 0 3.124 1.54 3.124 4.057v6.25h-2.982V87.72c0-1.46-.386-1.906-1.238-1.906-.75 0-1.217.345-1.867.974v6.796h-2.983V83.52zM148.878 89.933v-4.08h-1.38v-2.21l1.542-.122.345-2.676h2.476v2.677h2.415v2.334h-2.414v4.038c0 1.135.508 1.602 1.3 1.602.323 0 .688-.102.952-.203l.467 2.172c-.528.162-1.26.365-2.233.365-2.496 0-3.47-1.56-3.47-3.894zM156.243 83.52h2.435l.203 1.767h.082c.73-1.36 1.826-2.008 2.86-2.008.57 0 .914.08 1.198.2l-.487 2.578c-.365-.102-.67-.162-1.096-.162-.75 0-1.684.487-2.21 1.846v5.843h-2.983V83.52zM163.285 90.784c0-2.11 1.684-3.266 5.66-3.672-.06-.893-.487-1.46-1.582-1.46-.852 0-1.684.344-2.658.912l-1.076-1.968c1.277-.77 2.718-1.32 4.3-1.32 2.577 0 3.998 1.462 3.998 4.546v5.762h-2.434l-.203-1.035h-.08c-.853.75-1.786 1.277-2.923 1.277-1.846 0-3.002-1.338-3.002-3.043zm5.66-.12v-1.767c-2.11.284-2.8.893-2.8 1.664 0 .65.446.954 1.157.954.67 0 1.116-.323 1.643-.85zM174.445 83.52h2.435l.203 1.28h.08c.853-.812 1.868-1.522 3.227-1.522 2.19 0 3.124 1.54 3.124 4.057v6.25h-2.982V87.72c0-1.46-.386-1.906-1.238-1.906-.75 0-1.217.345-1.867.974v6.796h-2.982V83.52zM185.16 92.428l1.338-1.866c.913.69 1.745 1.055 2.597 1.055.893 0 1.278-.325 1.278-.853 0-.67-1.015-.973-2.05-1.38-1.216-.466-2.657-1.297-2.657-2.96 0-1.868 1.522-3.146 3.855-3.146 1.543 0 2.68.628 3.55 1.277l-1.338 1.786c-.73-.526-1.42-.85-2.13-.85-.77 0-1.136.283-1.136.79 0 .65.934.893 1.968 1.278 1.278.466 2.72 1.177 2.72 3.023 0 1.827-1.442 3.247-4.14 3.247-1.32 0-2.84-.567-3.855-1.4zM194.452 88.553c0-3.348 2.455-5.274 5.235-5.274 1.238 0 2.19.445 2.942 1.074l-1.4 1.928c-.488-.406-.894-.59-1.36-.59-1.44 0-2.354 1.117-2.354 2.862s.954 2.86 2.252 2.86c.65 0 1.278-.323 1.806-.73l1.177 1.95c-.993.87-2.23 1.196-3.326 1.196-2.8-.002-4.972-1.93-4.972-5.277zM204.517 83.52h2.435l.203 1.767h.08c.73-1.36 1.827-2.008 2.862-2.008.568 0 .913.08 1.197.2l-.487 2.578c-.365-.102-.67-.162-1.096-.162-.75 0-1.683.487-2.21 1.846v5.843h-2.982V83.52zM212.35 80.478c0-.913.73-1.542 1.724-1.542 1.015 0 1.725.63 1.725 1.542s-.71 1.562-1.726 1.562c-.993 0-1.724-.65-1.724-1.562zm.243 3.043h2.982v10.065h-2.982V83.52zM218.193 83.52h2.435l.203.995h.082c.79-.71 1.806-1.237 2.86-1.237 2.436 0 3.937 2.008 3.937 5.112 0 3.45-2.07 5.437-4.24 5.437-.874 0-1.685-.386-2.395-1.055l.1 1.602v2.942h-2.98V83.52zm6.453 4.91c0-1.805-.548-2.718-1.745-2.718-.608 0-1.135.285-1.724.913v4.12c.527.486 1.096.648 1.603.648 1.034 0 1.866-.893 1.866-2.962zM229.7 89.933v-4.08h-1.38v-2.21l1.54-.122.346-2.676h2.475v2.677h2.416v2.334h-2.415v4.038c0 1.135.508 1.602 1.3 1.602.324 0 .69-.102.953-.203l.467 2.172c-.527.162-1.258.365-2.232.365-2.495 0-3.47-1.56-3.47-3.894zM236.822 80.478c0-.913.73-1.542 1.724-1.542 1.015 0 1.725.63 1.725 1.542s-.71 1.562-1.724 1.562c-.994 0-1.724-.65-1.724-1.562zm.243 3.043h2.982v10.065h-2.982V83.52zM242.077 88.553c0-3.348 2.354-5.274 4.91-5.274 2.536 0 4.89 1.926 4.89 5.273s-2.354 5.275-4.89 5.275c-2.556 0-4.91-1.928-4.91-5.275zm6.756 0c0-1.744-.63-2.86-1.846-2.86-1.238 0-1.847 1.115-1.847 2.86 0 1.745.61 2.86 1.847 2.86 1.218 0 1.846-1.115 1.846-2.86zM253.927 83.52h2.435l.203 1.28h.08c.853-.812 1.868-1.522 3.227-1.522 2.19 0 3.124 1.54 3.124 4.057v6.25h-2.982V87.72c0-1.46-.386-1.906-1.238-1.906-.75 0-1.217.345-1.867.974v6.796h-2.983V83.52z"/><path fill="#364D55" d="M269.207 88.674c0-3.307 2.15-5.194 4.565-5.194 2.414 0 4.565 1.887 4.565 5.194 0 3.266-2.15 5.154-4.565 5.154-2.414 0-4.565-1.887-4.565-5.154zm7.405 0c0-2.272-1.136-3.814-2.84-3.814-1.684 0-2.84 1.542-2.84 3.814 0 2.253 1.156 3.774 2.84 3.774 1.704 0 2.84-1.52 2.84-3.774zM285.38 80.498c-.366-.162-.75-.244-1.117-.244-.933 0-1.38.65-1.38 1.907v1.563h2.09v1.36h-2.09v8.5h-1.663v-8.5h-1.34v-1.258l1.34-.102V82.16c0-2.007.913-3.265 2.88-3.265.61 0 1.198.142 1.645.324l-.366 1.278zM295.362 80.498c-.365-.162-.75-.244-1.116-.244-.933 0-1.38.65-1.38 1.907v1.563h2.09v1.36h-2.09v8.5h-1.664v-8.5h-1.34v-1.258l1.34-.102V82.16c0-2.007.913-3.265 2.88-3.265.61 0 1.198.142 1.645.324l-.365 1.278zM295.83 91.028c0-2.15 1.846-3.226 6.045-3.692 0-1.258-.406-2.475-2.03-2.475-1.135 0-2.17.528-2.94 1.056l-.65-1.157c.913-.59 2.292-1.28 3.875-1.28 2.415 0 3.43 1.604 3.43 4.058v6.046h-1.38l-.143-1.177h-.06c-.934.77-2.03 1.42-3.267 1.42-1.643 0-2.88-1.034-2.88-2.8zm6.045.142v-2.74c-3.286.407-4.423 1.22-4.423 2.476 0 1.116.77 1.583 1.745 1.583.954 0 1.725-.468 2.678-1.32zM306.666 83.724h1.38l.142 1.42h.06c.853-.933 1.888-1.664 3.064-1.664 1.5 0 2.313.71 2.72 1.887 1.034-1.116 2.048-1.887 3.245-1.887 2.03 0 3.003 1.34 3.003 3.855v6.25h-1.663v-6.026c0-1.848-.588-2.64-1.826-2.64-.77 0-1.562.508-2.475 1.523v7.142h-1.663V87.56c0-1.847-.588-2.638-1.847-2.638-.73 0-1.562.507-2.475 1.522v7.142h-1.663v-9.862zM323.183 80.62c0-.65.507-1.075 1.157-1.075s1.157.426 1.157 1.075c0 .63-.507 1.075-1.157 1.075s-1.157-.446-1.157-1.075zm.304 3.104h1.663v9.86h-1.663v-9.86zM328.48 91.596V79.14h1.662v12.578c0 .527.223.73.467.73.1 0 .182 0 .364-.04l.223 1.258c-.223.1-.507.162-.953.162-1.258 0-1.765-.79-1.765-2.232zM332.66 97.622l.324-1.32c.203.06.507.143.75.143 1.117 0 1.827-.893 2.233-2.11l.223-.73-3.956-9.88h1.724l2.01 5.457c.303.853.648 1.866.953 2.78h.082c.284-.893.568-1.907.832-2.78l1.765-5.458h1.622l-3.713 10.672c-.69 1.948-1.705 3.43-3.694 3.43-.447 0-.833-.083-1.157-.204zM347.188 79.14h1.663v3.935l-.06 2.03c.934-.894 1.928-1.625 3.287-1.625 2.07 0 3.003 1.34 3.003 3.855v6.25h-1.663v-6.026c0-1.848-.568-2.64-1.867-2.64-1.015 0-1.704.528-2.7 1.523v7.142h-1.662V79.14zM357.922 80.62c0-.65.507-1.075 1.157-1.075s1.156.426 1.156 1.075c0 .63-.507 1.075-1.157 1.075s-1.158-.446-1.158-1.075zm.305 3.104h1.663v9.86h-1.663v-9.86zM362.122 92.468l.832-1.115c.852.69 1.724 1.177 2.9 1.177 1.3 0 1.95-.69 1.95-1.542 0-1.015-1.178-1.46-2.253-1.866-1.4-.507-2.94-1.177-2.94-2.84 0-1.583 1.257-2.8 3.387-2.8 1.238 0 2.313.506 3.064 1.115l-.79 1.055c-.67-.507-1.38-.873-2.253-.873-1.238 0-1.806.668-1.806 1.42 0 .932 1.076 1.277 2.192 1.703 1.42.527 3.003 1.116 3.003 2.982 0 1.603-1.278 2.942-3.612 2.942-1.4 0-2.738-.588-3.67-1.36zM371.598 90.54v-5.457h-1.46v-1.258l1.54-.102.204-2.76h1.4v2.76h2.658v1.36h-2.658v5.478c0 1.218.386 1.907 1.52 1.907.346 0 .793-.142 1.117-.264l.324 1.258c-.548.183-1.217.366-1.826.366-2.11.002-2.82-1.337-2.82-3.285zM377.158 88.674c0-3.307 2.15-5.194 4.565-5.194 2.414 0 4.565 1.887 4.565 5.194 0 3.266-2.15 5.154-4.565 5.154-2.414 0-4.565-1.887-4.565-5.154zm7.405 0c0-2.272-1.136-3.814-2.84-3.814-1.684 0-2.84 1.542-2.84 3.814 0 2.253 1.156 3.774 2.84 3.774 1.705 0 2.84-1.52 2.84-3.774zM388.887 83.724h1.38l.142 1.786h.06c.67-1.238 1.684-2.03 2.8-2.03.426 0 .73.062 1.055.204l-.325 1.46c-.325-.102-.548-.162-.953-.162-.832 0-1.826.608-2.496 2.272v6.33h-1.662v-9.86zM395.44 97.622l.326-1.32c.203.06.507.143.75.143 1.117 0 1.827-.893 2.233-2.11l.222-.73-3.956-9.88h1.724l2.01 5.457c.304.853.648 1.866.953 2.78h.08c.285-.893.57-1.907.833-2.78l1.765-5.458h1.624l-3.713 10.672c-.69 1.948-1.703 3.43-3.692 3.43-.447 0-.832-.083-1.157-.204zM409.26 88.674c0-3.205 2.03-5.194 4.28-5.194 1.137 0 1.888.426 2.76 1.136l-.08-1.684v-3.794h1.683v14.445h-1.38l-.14-1.157h-.062c-.77.75-1.825 1.4-2.98 1.4-2.478.002-4.08-1.864-4.08-5.152zm6.96 2.395v-5.155c-.833-.75-1.584-1.035-2.395-1.035-1.582 0-2.84 1.522-2.84 3.774 0 2.353.993 3.774 2.718 3.774.913 0 1.704-.446 2.516-1.36zM420.623 91.028c0-2.15 1.847-3.226 6.046-3.692 0-1.258-.407-2.475-2.03-2.475-1.136 0-2.17.528-2.942 1.056l-.65-1.157c.914-.59 2.293-1.28 3.876-1.28 2.415 0 3.43 1.604 3.43 4.058v6.046h-1.38l-.143-1.177h-.06c-.933.77-2.03 1.42-3.266 1.42-1.644 0-2.88-1.034-2.88-2.8zm6.046.142v-2.74c-3.287.407-4.424 1.22-4.424 2.476 0 1.116.77 1.583 1.745 1.583.954 0 1.725-.468 2.68-1.32zM431.458 90.54v-5.457h-1.46v-1.258l1.54-.102.204-2.76h1.4v2.76h2.658v1.36h-2.658v5.478c0 1.218.385 1.907 1.52 1.907.346 0 .793-.142 1.117-.264l.324 1.258c-.548.183-1.217.366-1.826.366-2.11.002-2.82-1.337-2.82-3.285zM437 91.028c0-2.15 1.846-3.226 6.045-3.692 0-1.258-.406-2.475-2.03-2.475-1.135 0-2.17.528-2.94 1.056l-.65-1.157c.913-.59 2.292-1.28 3.875-1.28 2.415 0 3.43 1.604 3.43 4.058v6.046h-1.38l-.143-1.177h-.06c-.934.77-2.03 1.42-3.267 1.42-1.644 0-2.88-1.034-2.88-2.8zm6.045.142v-2.74c-3.286.407-4.423 1.22-4.423 2.476 0 1.116.77 1.583 1.745 1.583.953 0 1.724-.468 2.678-1.32z"/></svg>