<svg xmlns="http://www.w3.org/2000/svg" width="455" height="178.398" viewBox="0 0 455 178.398"><g fill="#F6F6F6"><path d="M84.794 152.744c1.466-2.56 1.455-5.707-.03-8.258L47.112 79.824c-1.487-2.547-4.217-4.11-7.166-4.102L0 75.872v102.526h70.11l14.684-25.654zM178.65 156.168c-1.488-2.547-4.217-4.11-7.167-4.102l-74.825.278c-2.95.01-5.67 1.595-7.136 4.156l-12.534 21.897h114.606l-12.945-22.23zM90.034 142.29c1.487 2.548 4.216 4.11 7.166 4.103l74.825-.278c2.95-.01 5.67-1.595 7.136-4.156l37.172-64.938c1.466-2.56 1.455-5.707-.03-8.258L178.65 4.102c-1.488-2.547-4.217-4.11-7.167-4.102L96.66.278c-2.952.01-5.67 1.595-7.137 4.156L52.353 69.37c-1.467 2.563-1.456 5.71.03 8.26l37.65 64.66zM348.2 152.744c1.466-2.56 1.455-5.707-.03-8.258l-37.652-64.662c-1.487-2.547-4.217-4.11-7.166-4.102L228.527 76c-2.95.01-5.67 1.594-7.136 4.156l-37.17 64.936c-1.466 2.562-1.455 5.708.03 8.26l14.584 25.045h134.68l14.686-25.653zM442.055 156.168c-1.487-2.547-4.216-4.11-7.166-4.102l-74.826.278c-2.95.01-5.67 1.595-7.136 4.156l-12.534 21.897H455l-12.945-22.23z"/></g></svg>