<?xml version="1.0" encoding="utf-8"?>
<!-- Generator: Adobe Illustrator 17.1.0, SVG Export Plug-In . SVG Version: 6.00 Build 0)  -->
<!DOCTYPE svg PUBLIC "-//W3C//DTD SVG 1.1 Tiny//EN" "http://www.w3.org/Graphics/SVG/1.1/DTD/svg11-tiny.dtd">
<svg version="1.1" baseProfile="tiny" id="Layer_1" xmlns="http://www.w3.org/2000/svg" xmlns:xlink="http://www.w3.org/1999/xlink"
	 x="0px" y="0px" width="270.2px" height="87px" viewBox="0 0 270.2 87" xml:space="preserve">
<path fill="#00A099" d="M27.9,64.9c-0.9,0-1.7-0.5-2.1-1.2L14.7,44.5c-0.2-0.4-0.3-0.8-0.3-1.2c-0.8,0.1-1.4,0.5-1.8,1.2L1.5,63.7
	c-0.4,0.8-0.4,1.7,0,2.5l11.1,19.2c0.4,0.8,1.2,1.2,2.1,1.2h22.1c0.9,0,1.7-0.5,2.1-1.2L50,66.1c0.3-0.5,0.3-1,0.3-1.5
	c-0.3,0.2-0.7,0.3-1.1,0.3L27.9,64.9L27.9,64.9z"/>
<path fill="#A3897A" d="M25.8,22.8c0.4-0.8,1.2-1.2,2.1-1.2h21.3c0.4,0,0.8,0.1,1.1,0.3c0-0.5,0-1-0.3-1.5L39,1.2
	C38.6,0.5,37.8,0,36.9,0H14.8c-0.9,0-1.7,0.5-2.1,1.2L1.6,20.4c-0.4,0.8-0.4,1.7,0,2.5L12.6,42c0.4,0.7,1,1.1,1.8,1.2
	c0-0.4,0.1-0.8,0.3-1.2L25.8,22.8z"/>
<path fill="#364D55" d="M62.4,42L51.4,22.9c-0.2-0.4-0.6-0.8-1-0.9c0,0.3-0.1,0.7-0.3,0.9L39,42c-0.4,0.8-1.2,1.2-2.1,1.2
	c0.9,0,1.7,0.5,2.1,1.2L50,63.7c0.2,0.3,0.2,0.6,0.3,0.9c0.4-0.2,0.8-0.5,1-0.9l11.1-19.2C62.9,43.7,62.9,42.8,62.4,42z"/>
<path fill="#003033" d="M39,44.5c-0.4-0.8-1.2-1.2-2.1-1.2H14.8c-0.1,0-0.2,0-0.3,0c0,0.4,0.1,0.8,0.3,1.2l11.1,19.2
	c0.4,0.8,1.2,1.2,2.1,1.2h21.3c0.4,0,0.8-0.1,1.1-0.3c0-0.3-0.1-0.7-0.3-0.9L39,44.5z"/>
<path fill="#232929" d="M36.9,43.3c0.9,0,1.7-0.5,2.1-1.2L50,22.9c0.2-0.3,0.2-0.6,0.3-0.9c-0.3-0.2-0.7-0.3-1.1-0.3H27.9
	c-0.9,0-1.7,0.5-2.1,1.2L14.7,42c-0.2,0.4-0.3,0.8-0.3,1.2c0.1,0,0.2,0,0.3,0H36.9z"/>
<path fill="#364D55" d="M189.4,29.5h-3.1v-3h14.4c5.7,0,9.7,3.8,9.7,9.6c0,5.2-3.2,8.4-6.6,9.1v0.1c0,0,0.7,0.4,1.2,1.4l4.9,9.6
	c0.5,1,1.2,1.1,2.4,1.1h0.7v3h-1.5c-2.7,0-3.6-0.3-4.7-2.6l-4.9-9.6c-0.9-1.8-1.6-2-3.5-2h-5.7v14.3h-3.4L189.4,29.5L189.4,29.5z
	 M200.3,43.2c4.1,0,6.6-2.6,6.6-6.9c0-4.2-2.5-6.8-6.5-6.8h-7.6v13.7H200.3z"/>
<path fill="#364D55" d="M227,35.6c6.7,0,10.2,5.2,10.2,11.2c0,0.6-0.1,1.7-0.1,1.7h-18.6c0.1,6.1,4.4,9.6,9.4,9.6c4.4,0,7.3-3,7.3-3
	l1.6,2.5c0,0-3.5,3.5-9,3.5c-7.2,0-12.7-5.2-12.7-12.7C215.1,40.4,220.5,35.6,227,35.6z M233.8,45.9c-0.2-5-3.3-7.5-6.9-7.5
	c-4,0-7.5,2.6-8.4,7.5H233.8z"/>
<path fill="#364D55" d="M252.1,35.6c6.5,0,8.1,4.2,8.1,4.2h0.1c0,0,0-0.4,0-0.9c0-1.7,0.8-2.6,2.7-2.6h3.4v2.8h-2c-0.7,0-1,0.3-1,1
	v19.8c0,7.7-5.7,10.7-11.7,10.7c-2.7,0-5.5-0.7-7.9-1.9l1.3-2.7c0,0,3,1.7,6.6,1.7c4.7,0,8.5-2.2,8.5-7.6v-2.1c0-0.9,0-1.7,0-1.7
	h-0.1c-1.5,2.6-3.9,4.2-7.6,4.2c-6.5,0-10.8-5.2-10.8-12.4S245.6,35.6,252.1,35.6z M260.2,47.9c0-7.1-3.4-9.3-7.7-9.3
	c-4.7,0-7.5,3.5-7.5,9.2c0,5.8,3.1,9.6,7.9,9.6C256.8,57.4,260.2,55.1,260.2,47.9z"/>
<g>
	<path fill="#A3897A" d="M89.9,32.5v7.1h12.8v6.8H89.9V61h-8.7V25.5h22.2v7H89.9z"/>
	<path fill="#A3897A" d="M125.1,41c-0.1,0-0.9-0.2-1.6-0.2c-3.7,0-6.1,2.1-7.1,3.6V61h-8.5V34.6h7v3.5c0.1-0.3,3.4-4.3,8.8-4.3
		c2,0,3.1,0.8,3.3,0.8L125.1,41z"/>
	<path fill="#A3897A" d="M152.6,50.4h-17.5c0,1.8,1.7,5.4,6.8,5.4c3.5,0,6.3-1.6,6.8-1.8l2.5,5c-0.3,0.3-4.6,2.9-9.9,2.9
		c-9.9,0-13.7-7.2-13.7-13.8c0-8.1,5.2-14.1,13-14.1c7.9,0,12.2,5.6,12.2,14.1C152.7,49,152.6,49.7,152.6,50.4z M140.7,39.6
		c-4.4,0-5.3,4.4-5.4,5.1h9.9C145.3,43.7,144.9,39.6,140.7,39.6z"/>
	<path fill="#A3897A" d="M182,50.4h-17.5c0,1.8,1.7,5.4,6.8,5.4c3.5,0,6.3-1.6,6.8-1.8l2.5,5c-0.3,0.3-4.6,2.9-9.9,2.9
		c-9.9,0-13.7-7.2-13.7-13.8c0-8.1,5.2-14.1,13-14.1c7.9,0,12.2,5.6,12.2,14.1C182,49,182,49.7,182,50.4z M170,39.6
		c-4.4,0-5.3,4.4-5.4,5.1h9.9C174.6,43.7,174.2,39.6,170,39.6z"/>
</g>
</svg>
