<?xml version="1.0" encoding="utf-8"?>
<!-- Generator: Adobe Illustrator 17.1.0, SVG Export Plug-In . SVG Version: 6.00 Build 0)  -->
<!DOCTYPE svg PUBLIC "-//W3C//DTD SVG 1.1 Tiny//EN" "http://www.w3.org/Graphics/SVG/1.1/DTD/svg11-tiny.dtd">
<svg version="1.1" baseProfile="tiny" id="Layer_1" xmlns="http://www.w3.org/2000/svg" xmlns:xlink="http://www.w3.org/1999/xlink"
	 x="0px" y="0px" width="213px" height="50.4px" viewBox="0 0 213 50.4" xml:space="preserve">
<g>
	<g>
		<path fill="#EEEEEE" d="M42.1,10.1l-0.9-2.4h-3.9l-0.9,2.4h-1.3l3.4-9.3H40l3.4,9.3H42.1z M39.4,2.1l-1.6,4.6h3.2L39.4,2.1z"/>
		<path fill="#EEEEEE" d="M50.6,10.3c-0.9,0-1.4-0.4-1.5-0.4v3.2h-1.2V3.3H49v0.5c0.1-0.1,0.8-0.7,1.9-0.7c1.8,0,3,1.4,3,3.5
			C53.9,8.8,52.4,10.3,50.6,10.3z M50.7,4.1c-0.9,0-1.5,0.6-1.6,0.6v4.1c0.1,0.1,0.6,0.4,1.4,0.4c1.3,0,2.2-1,2.2-2.6
			C52.7,5.1,51.8,4.1,50.7,4.1z"/>
		<path fill="#EEEEEE" d="M59.1,4.2c-0.1,0-0.3,0-0.5,0c-1.3,0-1.9,1-2,1.1v4.8h-1.2V3.3h1.1v0.9c0.1-0.1,0.8-1.1,2.2-1.1
			c0.5,0,0.7,0.1,0.7,0.1L59.1,4.2z"/>
		<path fill="#EEEEEE" d="M62.9,10.3c-1.9,0-3.2-1.4-3.2-3.5c0-2.1,1.3-3.6,3.2-3.6c1.9,0,3.1,1.4,3.1,3.6
			C66.1,8.8,64.8,10.3,62.9,10.3z M62.9,4.1c-1.2,0-2,1-2,2.6c0,1.6,0.9,2.6,2,2.6c1.3,0,2-1,2-2.5C64.9,5.2,64.1,4.1,62.9,4.1z"/>
		<path fill="#EEEEEE" d="M68.2,12.7c-0.4,0.4-1,0.6-1.6,0.6c-0.6,0-1-0.2-1.1-0.3l0.3-0.9c0.1,0,0.4,0.1,0.7,0.1
			c0.5,0,0.7-0.2,0.8-0.3c0.2-0.2,0.3-0.6,0.3-1.2V3.3h1.2v7.4C68.8,11.7,68.7,12.2,68.2,12.7z M68.2,1.9c-0.4,0-0.7-0.3-0.7-0.7
			s0.3-0.7,0.7-0.7s0.7,0.3,0.7,0.7S68.6,1.9,68.2,1.9z"/>
		<path fill="#EEEEEE" d="M76.2,7h-4.7c0,1.2,0.7,2.2,2.1,2.2c1.1,0,1.8-0.5,1.9-0.5L76,9.5c-0.1,0.1-1,0.7-2.5,0.7
			c-2.1,0-3.2-1.5-3.2-3.5c0-2.2,1.3-3.6,3.2-3.6c1.7,0,2.8,1.3,2.8,3.4C76.3,6.7,76.2,6.9,76.2,7z M73.5,4.1c-1.1,0-1.9,0.8-2,2
			h3.6C75.1,5.3,74.8,4.1,73.5,4.1z"/>
		<path fill="#EEEEEE" d="M80.7,10.3c-1.9,0-3.3-1.4-3.3-3.4c0-2.2,1.4-3.7,3.4-3.7c1.3,0,2.1,0.6,2.2,0.7l-0.5,0.8
			c-0.1-0.1-0.7-0.5-1.6-0.5c-1.4,0-2.3,1.2-2.3,2.6c0,1.5,0.9,2.5,2.2,2.5c1,0,1.8-0.5,1.8-0.5l0.5,0.8
			C83.1,9.6,82.1,10.3,80.7,10.3z"/>
		<path fill="#EEEEEE" d="M87.3,10.3c-0.6,0-1.2-0.2-1.5-0.5c-0.5-0.5-0.4-1.2-0.4-2V4.3h-1.2v-1h1.2V1.4h1.2v1.9h2.1v1h-2.1V8
			c0,0.7,0,1.3,1,1.3c0.5,0,0.9-0.2,0.9-0.2l0.3,0.8C88.6,9.9,88.1,10.3,87.3,10.3z"/>
		<path fill="#EEEEEE" d="M95.8,10.3c-1.2,0-2.2-0.4-2.5-0.5V0h1.2v3.7c0.1-0.1,0.8-0.6,1.8-0.6c1.8,0,3,1.3,3,3.4
			C99.2,8.8,97.8,10.3,95.8,10.3z M96.1,4.1c-0.9,0-1.5,0.5-1.6,0.6V9c0.1,0,0.5,0.2,1.3,0.2c1.4,0,2.3-1.1,2.3-2.7
			C98,5.1,97.2,4.1,96.1,4.1z"/>
		<path fill="#EEEEEE" d="M104,10.4c-0.5,1.2-0.8,1.8-1.2,2.2c-0.4,0.4-1,0.6-1.8,0.6c-0.8,0-1.3-0.3-1.4-0.3l0.3-0.9
			c0.1,0,0.4,0.2,1,0.2c0.4,0,0.8-0.1,1.1-0.4c0.4-0.4,0.6-1,0.9-1.7l-2.8-6.9h1.3l2.2,5.5l2-5.5h1.2L104,10.4z"/>
	</g>
</g>
<g>
	<path fill="#00A099" d="M11.6,40c-0.4,0-0.7-0.2-0.9-0.5l-4.8-8.3c-0.1-0.2-0.1-0.3-0.1-0.5c-0.3,0-0.6,0.2-0.8,0.5l-4.8,8.3
		c-0.2,0.3-0.2,0.7,0,1.1L5,48.9c0.2,0.3,0.5,0.5,0.9,0.5h9.6c0.4,0,0.7-0.2,0.9-0.5l4.8-8.3c0.1-0.2,0.1-0.4,0.1-0.7
		C21.2,40,21.1,40,20.9,40L11.6,40L11.6,40z"/>
	<path fill="#C6C6C5" d="M10.7,21.7c0.2-0.3,0.5-0.5,0.9-0.5h9.3c0.2,0,0.3,0,0.5,0.1c0-0.2,0-0.5-0.1-0.7l-4.8-8.3
		c-0.2-0.3-0.5-0.5-0.9-0.5H5.9c-0.4,0-0.7,0.2-0.9,0.5l-4.8,8.3C0,21,0,21.4,0.2,21.7L5,30.1c0.2,0.3,0.5,0.5,0.8,0.5
		c0-0.2,0-0.3,0.1-0.5L10.7,21.7z"/>
	<path fill="#364D55" d="M26.6,30.1l-4.8-8.3c-0.1-0.2-0.3-0.3-0.5-0.4c0,0.1-0.1,0.3-0.1,0.4l-4.8,8.3c-0.2,0.3-0.5,0.5-0.9,0.5
		c0.4,0,0.7,0.2,0.9,0.5l4.8,8.3c0.1,0.1,0.1,0.3,0.1,0.4c0.2-0.1,0.3-0.2,0.5-0.4l4.8-8.3C26.8,30.8,26.8,30.4,26.6,30.1z"/>
	<path fill="#002628" d="M16.4,31.1c-0.2-0.3-0.5-0.5-0.9-0.5H5.9c-0.1,0-0.1,0-0.1,0c0,0.2,0,0.3,0.1,0.5l4.8,8.3
		c0.2,0.3,0.5,0.5,0.9,0.5h9.3c0.2,0,0.3,0,0.5-0.1c0-0.1-0.1-0.3-0.1-0.4L16.4,31.1z"/>
	<path fill="#2A3C42" d="M15.5,30.6c0.4,0,0.7-0.2,0.9-0.5l4.8-8.3c0.1-0.1,0.1-0.3,0.1-0.4c-0.1-0.1-0.3-0.1-0.5-0.1h-9.3
		c-0.4,0-0.7,0.2-0.9,0.5l-4.8,8.3c-0.1,0.2-0.1,0.3-0.1,0.5c0,0,0.1,0,0.1,0H15.5z"/>
</g>
<g>
	<path fill="#FFFFFF" d="M82.1,25.1c0-0.3-0.2-0.5-0.5-0.5h-0.9v-1.3h1.6c0.9,0,1.3,0.4,1.3,1.3V33c0,2.4,1.6,4,4,4c2.4,0,4-1.5,4-4
		v-8.3c0-0.9,0.4-1.3,1.3-1.3h1.6v1.3h-0.9c-0.3,0-0.5,0.1-0.5,0.5v7.9c0,3.2-2.2,5.3-5.4,5.3s-5.5-2.1-5.5-5.3L82.1,25.1L82.1,25.1
		z"/>
	<path fill="#FFFFFF" d="M96.9,25.1c0-0.3-0.2-0.5-0.5-0.5h-0.9v-1.3h1.6c0.9,0,1.3,0.4,1.3,1.3v5.1h1.8c0.6,0,1-0.1,1.2-0.5
		l3.6-5.9h1.7l-3.8,6.2c-0.4,0.6-0.8,0.8-0.8,0.8v0c0,0,0.3,0.1,0.7,0.8l2.6,5.1c0.2,0.4,0.5,0.5,1.1,0.5h0.4v1.3h-0.8
		c-1.2,0-1.6-0.1-2-1.1l-2.7-5.4c-0.2-0.5-0.7-0.6-1.3-0.6h-1.6v7.1H97L96.9,25.1L96.9,25.1z"/>
	<path fill="#FFFFFF" d="M115.2,23.1c3.4,0,5.2,1.8,5.2,1.8l-0.9,1.1c0,0-1.6-1.5-4.3-1.5c-3.3,0-5.9,2.7-5.9,6.2
		c0,3.6,2.5,6.3,5.8,6.3c2.9,0,4.7-2.2,4.7-2.2V33c0-0.3-0.2-0.5-0.5-0.5h-0.9v-1.3h1.5c0.9,0,1.3,0.4,1.3,1.3v5.6h-1.3V37
		c0-0.3,0-0.6,0-0.6h0c0,0-1.7,2-4.8,2c-4,0-7.2-3.2-7.2-7.7C107.8,26.5,111.1,23.1,115.2,23.1z"/>
	<path fill="#FFFFFF" d="M128.2,27.3c2.9,0,4.4,2.2,4.4,4.9c0,0.2,0,0.7,0,0.7h-8.1c0,2.7,1.9,4.2,4.1,4.2c1.9,0,3.2-1.3,3.2-1.3
		l0.7,1.1c0,0-1.5,1.5-3.9,1.5c-3.1,0-5.5-2.3-5.5-5.5C123,29.4,125.4,27.3,128.2,27.3z M131.2,31.7c-0.1-2.2-1.4-3.3-3-3.3
		c-1.7,0-3.3,1.1-3.6,3.3H131.2z"/>
	<path fill="#FFFFFF" d="M135.5,29.3c0-0.3-0.2-0.5-0.5-0.5h-0.9v-1.2h1.5c0.9,0,1.3,0.4,1.3,1.2v0.5c0,0.4,0,0.8,0,0.8h0
		c0.4-1,1.7-2.7,4.2-2.7c2.6,0,3.6,1.5,3.6,4.1v5c0,0.3,0.2,0.5,0.5,0.5h0.9v1.2h-1.5c-0.9,0-1.3-0.4-1.3-1.3v-5.1
		c0-1.7-0.2-3.1-2.3-3.1c-1.8,0-3.4,1.2-3.8,3c-0.1,0.4-0.2,0.9-0.2,1.4v5.1h-1.4V29.3z"/>
	<path fill="#FFFFFF" d="M152.1,27.3c2.9,0,4.4,2.2,4.4,4.9c0,0.2,0,0.7,0,0.7h-8.1c0,2.7,1.9,4.2,4.1,4.2c1.9,0,3.2-1.3,3.2-1.3
		l0.7,1.1c0,0-1.5,1.5-3.9,1.5c-3.1,0-5.5-2.3-5.5-5.5C146.9,29.4,149.2,27.3,152.1,27.3z M155,31.7c-0.1-2.2-1.4-3.3-3-3.3
		c-1.7,0-3.3,1.1-3.6,3.3H155z"/>
	<path fill="#FFFFFF" d="M164.4,31.6h0.6v-0.1c0-2.2-0.8-3-2.7-3c-0.5,0-2.1,0.1-2.1,0.9v0.7h-1.4v-1c0-1.5,2.5-1.8,3.4-1.8
		c3.3,0,4.1,1.8,4.1,4.1v5.1c0,0.3,0.2,0.5,0.5,0.5h0.9v1.2h-1.4c-0.9,0-1.3-0.4-1.3-1.3c0-0.5,0-0.8,0-0.8h0c0,0-0.9,2.3-3.5,2.3
		c-1.8,0-3.6-1-3.6-3.1C158,31.7,162.6,31.6,164.4,31.6z M161.8,37.2c2,0,3.2-2.1,3.2-3.9v-0.5h-0.6c-1.7,0-5,0-5,2.4
		C159.4,36.1,160.2,37.2,161.8,37.2z"/>
	<path fill="#FFFFFF" d="M170.5,25c0-0.3-0.2-0.5-0.5-0.5h-0.9v-1.2h1.5c0.9,0,1.3,0.4,1.3,1.3v11.8c0,0.3,0.2,0.5,0.5,0.5h0.9v1.2
		h-1.5c-0.9,0-1.3-0.4-1.3-1.3V25z"/>
	<path fill="#FFFFFF" d="M180.2,27.3c3.1,0,5.6,2.3,5.6,5.5c0,3.2-2.5,5.6-5.6,5.6c-3.1,0-5.6-2.4-5.6-5.6
		C174.6,29.6,177.1,27.3,180.2,27.3z M180.2,37.1c2.2,0,4.1-1.9,4.1-4.3c0-2.4-1.9-4.2-4.1-4.2c-2.3,0-4.1,1.8-4.1,4.2
		C176.1,35.2,178,37.1,180.2,37.1z"/>
	<path fill="#FFFFFF" d="M191.7,27.3c2.8,0,3.5,1.8,3.5,1.8h0c0,0,0-0.2,0-0.4c0-0.8,0.3-1.2,1.2-1.2h1.5v1.2H197
		c-0.3,0-0.5,0.1-0.5,0.5v8.6c0,3.4-2.5,4.7-5.1,4.7c-1.2,0-2.4-0.3-3.4-0.8l0.6-1.2c0,0,1.3,0.7,2.9,0.7c2.1,0,3.7-1,3.7-3.3V37
		c0-0.4,0-0.8,0-0.8h0c-0.6,1.2-1.7,1.8-3.3,1.8c-2.8,0-4.7-2.2-4.7-5.4C187.1,29.5,188.8,27.3,191.7,27.3z M195.2,32.6
		c0-3.1-1.5-4-3.3-4c-2.1,0-3.3,1.5-3.3,4c0,2.5,1.4,4.2,3.4,4.2C193.7,36.8,195.2,35.7,195.2,32.6z"/>
	<path fill="#FFFFFF" d="M201.2,41.2c0.9,0,1.6-0.8,2-1.7l0.6-1.4l-3.7-8.8c-0.2-0.4-0.3-0.5-0.7-0.5h-0.2v-1.2h0.7
		c0.9,0,1.2,0.2,1.6,1.2l2.7,6.6c0.2,0.5,0.4,1.1,0.4,1.1h0c0,0,0.1-0.6,0.3-1.1l2.6-6.6c0.3-0.9,0.7-1.2,1.6-1.2h0.7v1.2h-0.2
		c-0.4,0-0.6,0.1-0.7,0.5l-4.6,11.1c-0.6,1.3-1.6,2.2-3,2.2c-1.5,0-2.3-1-2.3-1l0.7-1C199.6,40.5,200.3,41.2,201.2,41.2z"/>
</g>
<g>
	<path fill="#00A099" d="M38.6,25.9V29h5.6v2.9h-5.6v6.4h-3.8V22.9h9.7v3H38.6z"/>
	<path fill="#00A099" d="M53.9,29.6c-0.1,0-0.4-0.1-0.7-0.1c-1.6,0-2.7,0.9-3.1,1.6v7.2h-3.7V26.8h3v1.5c0.1-0.1,1.5-1.9,3.8-1.9
		c0.9,0,1.4,0.3,1.4,0.3L53.9,29.6z"/>
	<path fill="#00A099" d="M65.9,33.7h-7.6c0,0.8,0.7,2.3,2.9,2.3c1.5,0,2.7-0.7,2.9-0.8l1.1,2.2c-0.1,0.1-2,1.3-4.3,1.3
		c-4.3,0-5.9-3.1-5.9-6c0-3.5,2.3-6.2,5.6-6.2c3.5,0,5.3,2.4,5.3,6.1C65.9,33.1,65.9,33.4,65.9,33.7z M60.7,29
		c-1.9,0-2.3,1.9-2.3,2.2h4.3C62.7,30.8,62.5,29,60.7,29z"/>
	<path fill="#00A099" d="M78.6,33.7h-7.6c0,0.8,0.7,2.3,2.9,2.3c1.5,0,2.7-0.7,2.9-0.8l1.1,2.2c-0.1,0.1-2,1.3-4.3,1.3
		c-4.3,0-5.9-3.1-5.9-6c0-3.5,2.3-6.2,5.6-6.2c3.5,0,5.3,2.4,5.3,6.1C78.7,33.1,78.6,33.4,78.6,33.7z M73.5,29
		c-1.9,0-2.3,1.9-2.3,2.2h4.3C75.5,30.8,75.3,29,73.5,29z"/>
</g>
</svg>
