<?xml version="1.0" encoding="utf-8"?>
<!-- Generator: Adobe Illustrator 17.1.0, SVG Export Plug-In . SVG Version: 6.00 Build 0)  -->
<!DOCTYPE svg PUBLIC "-//W3C//DTD SVG 1.1 Tiny//EN" "http://www.w3.org/Graphics/SVG/1.1/DTD/svg11-tiny.dtd">
<svg version="1.1" baseProfile="tiny" id="Layer_1" xmlns="http://www.w3.org/2000/svg" xmlns:xlink="http://www.w3.org/1999/xlink"
	 x="0px" y="0px" width="213px" height="48.7px" viewBox="0 0 213 48.7" xml:space="preserve">
<g>
	<g>
		<path fill="#AAAAAA" d="M42.9,10.1l-1-2.9h-4.2l-1,2.9H36l3.4-9.3h0.7l3.4,9.3H42.9z M39.8,1.4l-1.9,5.3h3.8L39.8,1.4z"/>
		<path fill="#AAAAAA" d="M50.4,10.2c-0.9,0-1.5-0.4-1.6-0.5V13h-0.6V3.4h0.6v0.5c0.1-0.1,0.8-0.7,2-0.7c1.7,0,2.9,1.3,2.9,3.3
			C53.6,8.7,52.3,10.2,50.4,10.2z M50.7,3.8c-1.2,0-1.8,0.6-1.9,0.7v4.7c0.1,0.1,0.7,0.5,1.7,0.5C52,9.7,53,8.4,53,6.5
			C53,4.9,52.1,3.8,50.7,3.8z"/>
		<path fill="#AAAAAA" d="M58.5,3.8c-0.1,0-0.3,0-0.6,0c-1.4,0-2,1.3-2.1,1.4v4.9h-0.6V3.4h0.6v1c0.1-0.1,0.7-1.2,2.1-1.2
			c0.5,0,0.6,0.1,0.7,0.1L58.5,3.8z"/>
		<path fill="#AAAAAA" d="M62,10.2c-1.8,0-2.9-1.3-2.9-3.5c0-2.1,1.1-3.5,3-3.5c1.8,0,2.9,1.3,2.9,3.6C65,8.9,63.8,10.2,62,10.2z
			 M62,3.7c-1.4,0-2.3,1.2-2.3,3c0,1.8,1,3,2.3,3c1.5,0,2.3-1.1,2.3-2.9C64.4,5,63.4,3.7,62,3.7z"/>
		<path fill="#AAAAAA" d="M66.7,12.7c-0.3,0.3-0.7,0.5-1.2,0.5c-0.5,0-0.8-0.1-0.9-0.2l0.1-0.5c0.1,0,0.3,0.1,0.7,0.1
			c0.5,0,0.7-0.1,0.9-0.4c0.3-0.3,0.3-0.8,0.3-1.3V3.4h0.6V11C67.2,11.9,67.1,12.4,66.7,12.7z M66.9,1.5c-0.2,0-0.4-0.2-0.4-0.4
			s0.2-0.4,0.4-0.4c0.2,0,0.4,0.2,0.4,0.4S67.1,1.5,66.9,1.5z"/>
		<path fill="#AAAAAA" d="M74.3,6.8h-4.9c0,1.7,0.9,2.9,2.5,2.9c1.2,0,2-0.6,2-0.6l0.3,0.5c-0.1,0.1-1,0.7-2.3,0.7
			c-1.9,0-3-1.4-3-3.4c0-2.2,1.2-3.5,3-3.5c1.4,0,2.5,1.1,2.5,3.1C74.3,6.5,74.3,6.6,74.3,6.8z M71.8,3.7c-1.2,0-2.3,0.9-2.4,2.5
			h4.3C73.8,5,73.2,3.7,71.8,3.7z"/>
		<path fill="#AAAAAA" d="M78.7,10.2c-1.8,0-3.1-1.2-3.1-3.3c0-2.1,1.3-3.7,3.3-3.7c1.2,0,1.8,0.5,1.9,0.6l-0.3,0.4
			c-0.1-0.1-0.7-0.5-1.7-0.5c-1.6,0-2.6,1.2-2.6,3c0,1.8,1.1,2.9,2.5,2.9c1.1,0,1.8-0.5,1.9-0.5l0.3,0.5
			C80.7,9.7,79.9,10.2,78.7,10.2z"/>
		<path fill="#AAAAAA" d="M84.7,10.2c-0.6,0-1-0.2-1.3-0.4c-0.4-0.4-0.3-1.1-0.3-1.8V3.9H82V3.4h1.2V1.5h0.6v1.9h2.2v0.5h-2.2V8
			c0,1-0.1,1.7,1.1,1.7c0.5,0,0.9-0.2,1-0.2L86,9.9C85.8,10,85.5,10.2,84.7,10.2z"/>
		<path fill="#AAAAAA" d="M93.1,10.2c-1.1,0-2-0.4-2.1-0.4V0h0.6v3.9c0.1-0.1,0.8-0.7,1.9-0.7c1.8,0,2.9,1.4,2.9,3.4
			C96.4,8.7,95,10.2,93.1,10.2z M93.5,3.8c-1.1,0-1.8,0.7-1.9,0.7v4.9c0.1,0,0.6,0.3,1.6,0.3c1.7,0,2.7-1.2,2.7-3
			C95.8,5,94.9,3.8,93.5,3.8z"/>
		<path fill="#AAAAAA" d="M100.6,10.7c-0.3,0.8-0.6,1.5-1,1.9c-0.5,0.5-1.2,0.7-1.7,0.7c-0.6,0-1.1-0.2-1.1-0.2l0.2-0.5
			c0.1,0,0.4,0.2,0.9,0.2c0.4,0,0.9-0.2,1.2-0.5c0.5-0.5,0.7-1.3,1-1.9l-2.7-6.9H98l2.4,6.1l2.2-6.1h0.6L100.6,10.7z"/>
	</g>
</g>
<g>
	<path fill="#00A099" d="M11.7,39.2c-0.4,0-0.7-0.2-0.9-0.5l-4.9-8.4c-0.1-0.2-0.1-0.3-0.1-0.5c-0.3,0-0.6,0.2-0.8,0.5l-4.9,8.4
		C0,39,0,39.5,0.1,39.8L5,48.2c0.2,0.3,0.5,0.5,0.9,0.5h9.7c0.4,0,0.7-0.2,0.9-0.5l4.9-8.4c0.1-0.2,0.1-0.4,0.1-0.7
		c-0.1,0.1-0.3,0.1-0.5,0.1H11.7L11.7,39.2z"/>
	<path fill="#C6C6C5" d="M10.8,20.8c0.2-0.3,0.5-0.5,0.9-0.5h9.4c0.2,0,0.3,0,0.5,0.1c0-0.2,0-0.5-0.1-0.7l-4.9-8.4
		c-0.2-0.3-0.5-0.5-0.9-0.5H6c-0.4,0-0.7,0.2-0.9,0.5l-4.9,8.4c-0.2,0.3-0.2,0.7,0,1.1L5,29.2c0.2,0.3,0.5,0.5,0.8,0.5
		c0-0.2,0-0.4,0.1-0.5L10.8,20.8z"/>
	<path fill="#364D55" d="M26.9,29.2L22,20.8c-0.1-0.2-0.3-0.3-0.5-0.4c0,0.1-0.1,0.3-0.1,0.4l-4.9,8.4c-0.2,0.3-0.5,0.5-0.9,0.5
		c0.4,0,0.7,0.2,0.9,0.5l4.9,8.4c0.1,0.1,0.1,0.3,0.1,0.4c0.2-0.1,0.4-0.2,0.5-0.4l4.9-8.4C27.1,30,27.1,29.6,26.9,29.2z"/>
	<path fill="#002628" d="M16.6,30.3c-0.2-0.3-0.5-0.5-0.9-0.5H6c-0.1,0-0.1,0-0.1,0c0,0.2,0,0.4,0.1,0.5l4.9,8.4
		c0.2,0.3,0.5,0.5,0.9,0.5h9.3c0.2,0,0.3,0,0.5-0.1c0-0.1-0.1-0.3-0.1-0.4L16.6,30.3z"/>
	<path fill="#2A3C42" d="M15.6,29.8c0.4,0,0.7-0.2,0.9-0.5l4.9-8.4c0.1-0.1,0.1-0.3,0.1-0.4c-0.1-0.1-0.3-0.1-0.5-0.1h-9.4
		c-0.4,0-0.7,0.2-0.9,0.5l-4.9,8.4c-0.1,0.2-0.1,0.3-0.1,0.5c0,0,0.1,0,0.1,0H15.6z"/>
</g>
<g>
	<path fill="#364D55" d="M82.8,24.2c0-0.3-0.2-0.5-0.5-0.5h-0.9v-1.3h1.6c0.9,0,1.3,0.4,1.3,1.3v8.4c0,2.5,1.6,4,4,4s4-1.6,4-4.1
		v-8.4c0-0.9,0.4-1.3,1.3-1.3h1.6v1.3h-0.9c-0.3,0-0.5,0.1-0.5,0.5v8c0,3.2-2.2,5.4-5.5,5.4c-3.3,0-5.5-2.1-5.5-5.4L82.8,24.2
		L82.8,24.2z"/>
	<path fill="#364D55" d="M97.8,24.2c0-0.3-0.2-0.5-0.5-0.5h-0.9v-1.3H98c0.9,0,1.3,0.4,1.3,1.3v5.2h1.8c0.6,0,1-0.1,1.2-0.5l3.6-5.9
		h1.7l-3.8,6.2c-0.4,0.6-0.8,0.8-0.8,0.8v0c0,0,0.4,0.1,0.7,0.9l2.6,5.1c0.2,0.4,0.5,0.5,1.1,0.5h0.4v1.3h-0.8
		c-1.2,0-1.6-0.1-2.1-1.1l-2.7-5.4c-0.2-0.5-0.7-0.6-1.3-0.6h-1.6v7.1h-1.5L97.8,24.2L97.8,24.2z"/>
	<path fill="#364D55" d="M116.3,22.2c3.4,0,5.2,1.8,5.2,1.8l-0.9,1.1c0,0-1.7-1.5-4.3-1.5c-3.3,0-5.9,2.7-5.9,6.3
		c0,3.7,2.5,6.3,5.9,6.3c2.9,0,4.7-2.2,4.7-2.2v-1.8c0-0.3-0.2-0.5-0.5-0.5h-0.9v-1.3h1.5c0.9,0,1.3,0.4,1.3,1.3v5.7H121v-1.1
		c0-0.3,0-0.6,0-0.6h0c0,0-1.7,2-4.9,2c-4.1,0-7.3-3.3-7.3-7.7C108.8,25.6,112,22.2,116.3,22.2z"/>
	<path fill="#364D55" d="M129.3,26.4c2.9,0,4.5,2.3,4.5,4.9c0,0.2,0,0.7,0,0.7h-8.2c0,2.7,1.9,4.2,4.1,4.2c2,0,3.2-1.3,3.2-1.3
		l0.7,1.1c0,0-1.6,1.5-4,1.5c-3.2,0-5.6-2.3-5.6-5.6C124.1,28.5,126.5,26.4,129.3,26.4z M132.3,30.9c-0.1-2.2-1.4-3.3-3-3.3
		c-1.8,0-3.3,1.1-3.7,3.3H132.3z"/>
	<path fill="#364D55" d="M136.7,28.4c0-0.3-0.2-0.5-0.5-0.5h-0.9v-1.2h1.5c0.9,0,1.3,0.4,1.3,1.2v0.5c0,0.4,0,0.8,0,0.8h0
		c0.4-1,1.7-2.7,4.2-2.7c2.7,0,3.6,1.5,3.6,4.1v5.1c0,0.3,0.2,0.5,0.5,0.5h0.9v1.2h-1.5c-0.9,0-1.3-0.4-1.3-1.3v-5.1
		c0-1.7-0.2-3.2-2.3-3.2c-1.8,0-3.4,1.2-3.9,3c-0.1,0.4-0.2,0.9-0.2,1.4v5.1h-1.4V28.4z"/>
	<path fill="#364D55" d="M153.4,26.4c2.9,0,4.5,2.3,4.5,4.9c0,0.2,0,0.7,0,0.7h-8.2c0,2.7,1.9,4.2,4.1,4.2c2,0,3.2-1.3,3.2-1.3
		l0.7,1.1c0,0-1.6,1.5-4,1.5c-3.2,0-5.6-2.3-5.6-5.6C148.2,28.5,150.5,26.4,153.4,26.4z M156.4,30.9c-0.1-2.2-1.4-3.3-3-3.3
		c-1.8,0-3.3,1.1-3.7,3.3H156.4z"/>
	<path fill="#364D55" d="M165.9,30.8h0.6v-0.1c0-2.2-0.8-3-2.8-3c-0.5,0-2.1,0.1-2.1,0.9v0.7h-1.4v-1c0-1.5,2.6-1.8,3.5-1.8
		c3.4,0,4.2,1.8,4.2,4.1v5.1c0,0.3,0.2,0.5,0.5,0.5h0.9v1.2h-1.5c-0.9,0-1.3-0.4-1.3-1.3c0-0.5,0-0.8,0-0.8h0c0,0-0.9,2.3-3.6,2.3
		c-1.8,0-3.6-1-3.6-3.2C159.4,30.9,164,30.8,165.9,30.8z M163.2,36.4c2,0,3.3-2.1,3.3-4v-0.5h-0.6c-1.7,0-5,0-5,2.4
		C160.8,35.3,161.6,36.4,163.2,36.4z"/>
	<path fill="#364D55" d="M172,24.1c0-0.3-0.2-0.5-0.5-0.5h-0.9v-1.2h1.5c0.9,0,1.3,0.4,1.3,1.3v11.9c0,0.3,0.2,0.5,0.5,0.5h0.9v1.2
		h-1.5c-0.9,0-1.3-0.4-1.3-1.3V24.1z"/>
	<path fill="#364D55" d="M181.8,26.4c3.1,0,5.6,2.4,5.6,5.5c0,3.2-2.5,5.6-5.6,5.6c-3.1,0-5.6-2.4-5.6-5.6
		C176.2,28.8,178.7,26.4,181.8,26.4z M181.8,36.3c2.3,0,4.1-1.9,4.1-4.3c0-2.4-1.9-4.2-4.1-4.2c-2.3,0-4.2,1.8-4.2,4.2
		C177.7,34.4,179.5,36.3,181.8,36.3z"/>
	<path fill="#364D55" d="M193.4,26.4c2.9,0,3.6,1.8,3.6,1.8h0c0,0,0-0.2,0-0.4c0-0.8,0.3-1.2,1.2-1.2h1.5v1.2h-0.9
		c-0.3,0-0.5,0.1-0.5,0.5v8.7c0,3.4-2.5,4.7-5.1,4.7c-1.2,0-2.4-0.3-3.5-0.9l0.6-1.2c0,0,1.3,0.7,2.9,0.7c2.1,0,3.7-1,3.7-3.3v-0.9
		c0-0.4,0-0.8,0-0.8h0c-0.6,1.2-1.7,1.8-3.3,1.8c-2.9,0-4.8-2.3-4.8-5.5S190.5,26.4,193.4,26.4z M196.9,31.8c0-3.1-1.5-4.1-3.4-4.1
		c-2.1,0-3.3,1.5-3.3,4c0,2.6,1.4,4.2,3.5,4.2C195.4,36,196.9,34.9,196.9,31.8z"/>
	<path fill="#364D55" d="M203,40.5c0.9,0,1.6-0.8,2-1.7l0.6-1.5l-3.8-8.9c-0.2-0.4-0.4-0.5-0.7-0.5h-0.2v-1.2h0.7
		c1,0,1.2,0.2,1.6,1.2l2.7,6.7c0.2,0.5,0.4,1.1,0.4,1.1h0c0,0,0.1-0.6,0.4-1.1l2.6-6.7c0.4-1,0.7-1.2,1.7-1.2h0.7v1.2h-0.2
		c-0.4,0-0.6,0.1-0.7,0.5l-4.6,11.1c-0.6,1.3-1.6,2.2-3.1,2.2c-1.5,0-2.3-1-2.3-1l0.7-1.1C201.4,39.7,202.1,40.5,203,40.5z"/>
</g>
<g>
	<path fill="#00A099" d="M38.9,25v3.1h5.6v3h-5.6v6.4h-3.8V22h9.7V25H38.9z"/>
	<path fill="#00A099" d="M54.4,28.8c-0.1,0-0.4-0.1-0.7-0.1c-1.6,0-2.7,0.9-3.1,1.6v7.3h-3.7V26h3.1v1.5c0.1-0.1,1.5-1.9,3.9-1.9
		c0.9,0,1.4,0.3,1.4,0.4L54.4,28.8z"/>
	<path fill="#00A099" d="M66.5,32.9h-7.7c0,0.8,0.7,2.4,3,2.4c1.6,0,2.8-0.7,3-0.8l1.1,2.2c-0.1,0.1-2,1.3-4.4,1.3
		c-4.3,0-6-3.2-6-6.1c0-3.6,2.3-6.2,5.7-6.2c3.5,0,5.3,2.4,5.3,6.2C66.5,32.3,66.5,32.6,66.5,32.9z M61.2,28.2
		c-1.9,0-2.3,1.9-2.4,2.2h4.4C63.3,29.9,63.1,28.2,61.2,28.2z"/>
	<path fill="#00A099" d="M79.3,32.9h-7.7c0,0.8,0.7,2.4,3,2.4c1.6,0,2.8-0.7,3-0.8l1.1,2.2c-0.1,0.1-2,1.3-4.4,1.3
		c-4.3,0-6-3.2-6-6.1c0-3.6,2.3-6.2,5.7-6.2c3.5,0,5.3,2.4,5.3,6.2C79.4,32.3,79.3,32.6,79.3,32.9z M74.1,28.2
		c-1.9,0-2.3,1.9-2.4,2.2h4.4C76.1,29.9,75.9,28.2,74.1,28.2z"/>
</g>
</svg>
