<?xml version="1.0" encoding="utf-8"?>
<!-- Generator: Adobe Illustrator 17.1.0, SVG Export Plug-In . SVG Version: 6.00 Build 0)  -->
<!DOCTYPE svg PUBLIC "-//W3C//DTD SVG 1.1 Tiny//EN" "http://www.w3.org/Graphics/SVG/1.1/DTD/svg11-tiny.dtd">
<svg version="1.1" baseProfile="tiny" id="Layer_1" xmlns="http://www.w3.org/2000/svg" xmlns:xlink="http://www.w3.org/1999/xlink"
	 x="0px" y="0px" width="276.4px" height="87px" viewBox="0 0 276.4 87" xml:space="preserve">
<path fill="#00A099" d="M28.8,64.8c-0.9,0-1.7-0.5-2.1-1.2l-11-19c-0.2-0.4-0.3-0.8-0.3-1.2c-0.8,0.1-1.4,0.5-1.8,1.2l-11,19
	c-0.4,0.8-0.4,1.7,0,2.4l11,19c0.4,0.8,1.2,1.2,2.1,1.2h22c0.9,0,1.7-0.5,2.1-1.2l11-19c0.3-0.5,0.3-1,0.3-1.5
	c-0.3,0.2-0.7,0.3-1.1,0.3L28.8,64.8L28.8,64.8z"/>
<path fill="#F29100" d="M26.7,23.1c0.4-0.8,1.2-1.2,2.1-1.2H50c0.4,0,0.8,0.1,1.1,0.3c0-0.5,0-1-0.3-1.5l-11-19
	c-0.4-0.8-1.2-1.2-2.1-1.2H15.8c-0.9,0-1.7,0.5-2.1,1.2l-11,19c-0.4,0.8-0.4,1.7,0,2.4l11,19c0.4,0.7,1,1.1,1.8,1.2
	c0-0.4,0.1-0.8,0.3-1.2L26.7,23.1z"/>
<path fill="#364D55" d="M63.1,42.2l-11-19c-0.2-0.4-0.6-0.8-1-0.9c0,0.3-0.1,0.7-0.3,0.9l-11,19c-0.4,0.8-1.2,1.2-2.1,1.2
	c0.9,0,1.7,0.5,2.1,1.2l11,19c0.2,0.3,0.2,0.6,0.3,0.9c0.4-0.2,0.8-0.5,1-0.9l11-19C63.5,43.9,63.5,42.9,63.1,42.2z"/>
<path fill="#003033" d="M39.8,44.6c-0.4-0.8-1.2-1.2-2.1-1.2H15.8c-0.1,0-0.2,0-0.3,0c0,0.4,0.1,0.8,0.3,1.2l11,19
	c0.4,0.8,1.2,1.2,2.1,1.2H50c0.4,0,0.8-0.1,1.1-0.3c0-0.3-0.1-0.7-0.3-0.9L39.8,44.6z"/>
<path fill="#332C00" d="M37.7,43.4c0.9,0,1.7-0.5,2.1-1.2l11-19c0.2-0.3,0.2-0.6,0.3-0.9c-0.3-0.2-0.7-0.3-1.1-0.3H28.8
	c-0.9,0-1.7,0.5-2.1,1.2l-11,19c-0.2,0.4-0.3,0.8-0.3,1.2c0.1,0,0.2,0,0.3,0H37.7z"/>
<path fill="#364D55" d="M205.3,26.2c4.8,0,12.6,2.1,12.6,7.1v2.8h-3.2v-1.9c0-3.1-5.4-4.9-9.3-4.9c-7.5,0-13.2,5.9-13.2,14
	c0,8.1,5.7,14.5,13.4,14.5c6.9,0,11-4.7,11-4.7l1.9,2.4c0,0-4.6,5.4-13,5.4c-9.9,0-16.8-7.8-16.8-17.7
	C188.7,33.6,195.8,26.2,205.3,26.2z"/>
<path fill="#364D55" d="M232.9,35.8c6.7,0,10.1,5.1,10.1,11.1c0,0.6-0.1,1.6-0.1,1.6h-18.5c0.1,6.1,4.4,9.6,9.3,9.6
	c4.4,0,7.2-3,7.2-3l1.6,2.4c0,0-3.5,3.5-9,3.5c-7.1,0-12.6-5.2-12.6-12.6C221.1,40.5,226.5,35.8,232.9,35.8z M239.7,46
	c-0.2-5-3.2-7.4-6.8-7.4c-4,0-7.5,2.6-8.3,7.4H239.7z"/>
<path fill="#364D55" d="M249.6,40.2c0-0.7-0.4-1-1-1h-2v-2.8h3.3c2,0,2.9,0.8,2.9,2.7v1.1c0,0.9-0.1,1.7-0.1,1.7h0.1
	c0.8-2.2,3.9-6.1,9.6-6.1c6,0,8.1,3.4,8.1,9.3v11.5c0,0.7,0.4,1,1,1h2v2.8h-3.4c-2.1,0-2.9-0.8-2.9-2.9V46c0-3.8-0.6-7.1-5.2-7.1
	c-4.1,0-7.7,2.8-8.8,6.8c-0.3,1-0.4,2.1-0.4,3.2v11.5h-3.2V40.2z"/>
<g>
	<path fill="#F29100" d="M90.4,32.7v7h12.7v6.7H90.4V61h-8.6V25.8h22v6.9H90.4z"/>
	<path fill="#F29100" d="M125.3,41.1c-0.1,0-0.9-0.2-1.6-0.2c-3.7,0-6.1,2.1-7,3.6V61h-8.4V34.8h6.9v3.5c0.1-0.3,3.4-4.3,8.8-4.3
		c2,0,3.1,0.8,3.2,0.8L125.3,41.1z"/>
	<path fill="#F29100" d="M152.6,50.4h-17.3c0,1.8,1.6,5.4,6.7,5.4c3.5,0,6.2-1.6,6.7-1.8l2.5,5c-0.3,0.3-4.6,2.9-9.9,2.9
		c-9.8,0-13.6-7.1-13.6-13.7c0-8,5.2-14,12.9-14c7.9,0,12.1,5.5,12.1,14C152.7,49.1,152.6,49.8,152.6,50.4z M140.8,39.8
		c-4.4,0-5.3,4.3-5.4,5.1h9.9C145.3,43.8,144.9,39.8,140.8,39.8z"/>
	<path fill="#F29100" d="M181.7,50.4h-17.3c0,1.8,1.6,5.4,6.7,5.4c3.5,0,6.2-1.6,6.7-1.8l2.5,5c-0.3,0.3-4.6,2.9-9.9,2.9
		c-9.8,0-13.6-7.1-13.6-13.7c0-8,5.2-14,12.9-14c7.9,0,12.1,5.5,12.1,14C181.8,49.1,181.7,49.8,181.7,50.4z M169.9,39.8
		c-4.4,0-5.3,4.3-5.4,5.1h9.9C174.4,43.8,174,39.8,169.9,39.8z"/>
</g>
</svg>
