<?xml version="1.0" encoding="utf-8"?>
<!-- Generator: Adobe Illustrator 17.1.0, SVG Export Plug-In . SVG Version: 6.00 Build 0)  -->
<!DOCTYPE svg PUBLIC "-//W3C//DTD SVG 1.1 Tiny//EN" "http://www.w3.org/Graphics/SVG/1.1/DTD/svg11-tiny.dtd">
<svg version="1.1" baseProfile="tiny" id="Layer_1" xmlns="http://www.w3.org/2000/svg" xmlns:xlink="http://www.w3.org/1999/xlink"
	 x="0px" y="0px" width="290px" height="87px" viewBox="0 0 290 87" xml:space="preserve">
<path fill="#00A099" d="M29.1,64.3c-0.9,0-1.7-0.5-2.1-1.2L15.9,43.8c-0.2-0.4-0.3-0.8-0.3-1.2c-0.8,0.1-1.4,0.5-1.8,1.2L2.6,63.1
	c-0.4,0.8-0.4,1.7,0,2.5l11.1,19.3c0.4,0.8,1.2,1.2,2.1,1.2h22.3c0.9,0,1.7-0.5,2.1-1.2l11.1-19.3c0.3-0.5,0.3-1,0.3-1.5
	c-0.3,0.2-0.7,0.3-1.1,0.3L29.1,64.3L29.1,64.3z"/>
<path fill="#A2195B" d="M27,22c0.4-0.8,1.2-1.2,2.1-1.2h21.5c0.4,0,0.8,0.1,1.1,0.3c0-0.5,0-1-0.3-1.5L40.3,0.3
	C39.9-0.5,39-1,38.1-1H15.9c-0.9,0-1.7,0.5-2.1,1.2L2.6,19.5c-0.4,0.8-0.4,1.7,0,2.5l11.1,19.3c0.4,0.7,1,1.1,1.8,1.2
	c0-0.4,0.1-0.8,0.3-1.2L27,22z"/>
<path fill="#364D55" d="M63.9,41.3L52.8,22c-0.2-0.4-0.6-0.8-1-1c0,0.3-0.1,0.7-0.3,1L40.3,41.3c-0.4,0.8-1.2,1.2-2.1,1.2
	c0.9,0,1.7,0.5,2.1,1.2l11.1,19.3c0.2,0.3,0.2,0.6,0.3,1c0.4-0.2,0.8-0.5,1-1l11.1-19.3C64.3,43,64.3,42.1,63.9,41.3z"/>
<path fill="#003033" d="M40.3,43.8c-0.4-0.8-1.2-1.2-2.1-1.2H15.9c-0.1,0-0.2,0-0.3,0c0,0.4,0.1,0.8,0.3,1.2l11.1,19.3
	c0.4,0.8,1.2,1.2,2.1,1.2h21.4c0.4,0,0.8-0.1,1.1-0.3c0-0.3-0.1-0.7-0.3-1L40.3,43.8z"/>
<path fill="#22081E" d="M38.1,42.5c0.9,0,1.7-0.5,2.1-1.2L51.4,22c0.2-0.3,0.2-0.6,0.3-1c-0.3-0.2-0.7-0.3-1.1-0.3H29.1
	c-0.9,0-1.7,0.5-2.1,1.2L15.9,41.3c-0.2,0.4-0.3,0.8-0.3,1.2c0.1,0,0.2,0,0.3,0H38.1z"/>
<path fill="#364D55" d="M191.6,28.7h-3.1v-3H203c5.3,0,9.2,3.2,9.2,8.6c0,3.8-1.9,6.2-4.4,7.4v0.1c3.5,1,5.8,4.3,5.8,8.5
	c0,6.1-4.5,9.6-10.2,9.6h-8.8c-2.1,0-3-0.9-3-3L191.6,28.7L191.6,28.7z M202.9,40.5c3.5,0,5.8-2.4,5.8-6c0-3.5-2.2-5.9-5.9-5.9H195
	v11.8L202.9,40.5L202.9,40.5z M196,56.9h7.3c4.1,0,6.7-2.6,6.7-6.7s-2.7-6.8-6.7-6.8H195v12.3C195,56.5,195.4,56.9,196,56.9z"/>
<path fill="#364D55" d="M216,56.9h1.8c0.7,0,1-0.3,1-1l2.4-30.1h3.5l9,19.9c0.8,1.8,1.7,4,1.7,4h0.1c0,0,0.9-2.3,1.7-4l9-19.9h3.5
	l2.4,30.1c0,0.7,0.4,1,1,1h1.9v3h-3.3c-2.1,0-2.8-0.9-3-3l-1.6-20.8c-0.1-1.9-0.1-4.8-0.1-4.8H247c0,0-0.9,3-1.8,4.8l-8.1,17.4h-3
	l-8.1-17.4c-0.8-1.7-1.8-4.9-1.8-4.9H224c0,0,0,3-0.1,4.9L222.3,57c-0.1,2.1-0.9,3-3,3h-3.2L216,56.9L216,56.9z"/>
<path fill="#364D55" d="M261.3,28.7h-3.1v-3h13.7c10.3,0,17.1,6.3,17.1,17c0,10.9-6.9,17.1-17.1,17.1h-7.6c-2.1,0-3-0.9-3-3
	L261.3,28.7L261.3,28.7z M265.7,56.9h5.8c8.4,0,13.9-5,13.9-14.1c0-9.1-5.6-14-13.9-14h-6.8v27.1C264.6,56.5,265.1,56.9,265.7,56.9z
	"/>
<g>
	<path fill="#A2195B" d="M91.6,31.6v7.1h12.9v6.8H91.6v14.8h-8.8V24.6h22.3v7H91.6z"/>
	<path fill="#A2195B" d="M127,40.2c-0.1,0-0.9-0.2-1.6-0.2c-3.8,0-6.1,2.1-7.1,3.6v16.7h-8.6V33.8h7v3.5c0.1-0.3,3.4-4.3,8.9-4.3
		c2,0,3.1,0.8,3.3,0.8L127,40.2z"/>
	<path fill="#A2195B" d="M154.7,49.6h-17.6c0,1.9,1.7,5.4,6.8,5.4c3.6,0,6.3-1.6,6.8-1.9l2.5,5c-0.3,0.3-4.7,3-10,3
		c-9.9,0-13.8-7.2-13.8-13.9c0-8.1,5.3-14.2,13-14.2c8,0,12.2,5.6,12.2,14.2C154.8,48.3,154.7,49,154.7,49.6z M142.7,38.8
		c-4.4,0-5.3,4.4-5.4,5.1h10C147.3,42.9,146.9,38.8,142.7,38.8z"/>
	<path fill="#A2195B" d="M184.2,49.6h-17.6c0,1.9,1.7,5.4,6.8,5.4c3.6,0,6.3-1.6,6.8-1.9l2.5,5c-0.3,0.3-4.7,3-10,3
		c-9.9,0-13.8-7.2-13.8-13.9c0-8.1,5.3-14.2,13-14.2c8,0,12.2,5.6,12.2,14.2C184.3,48.3,184.2,49,184.2,49.6z M172.2,38.8
		c-4.4,0-5.3,4.4-5.4,5.1h10C176.8,42.9,176.4,38.8,172.2,38.8z"/>
</g>
</svg>
