<?xml version="1.0" encoding="utf-8"?>
<!-- Generator: Adobe Illustrator 18.0.0, SVG Export Plug-In . SVG Version: 6.00 Build 0)  -->
<!DOCTYPE svg PUBLIC "-//W3C//DTD SVG 1.1//EN" "http://www.w3.org/Graphics/SVG/1.1/DTD/svg11.dtd">
<svg version="1.1" id="Layer_1" xmlns="http://www.w3.org/2000/svg" xmlns:xlink="http://www.w3.org/1999/xlink" x="0px" y="0px"
	 width="601.768px" height="318.604px" viewBox="0 0 601.768 318.604" enable-background="new 0 0 601.768 318.604"
	 xml:space="preserve">
<g>
	<g>
		<path fill="#F6F6F6" d="M53.937,284.226c2.813-0.01,5.405-1.52,6.802-3.962l35.431-61.898c1.398-2.441,1.387-5.44-0.028-7.871
			l-35.89-61.636c-1.418-2.428-4.019-3.917-6.831-3.91L0,145.149l0,139.279L53.937,284.226z"/>
	</g>
	<g>
		<path fill="#F6F6F6" d="M74.689,318.604l-14.438-24.795c-1.418-2.428-4.019-3.917-6.831-3.91L0,290.098l0,28.506H74.689z"/>
	</g>
	<g>
		<path fill="#F6F6F6" d="M54.937,139.277c2.813-0.01,5.405-1.52,6.802-3.962L97.17,73.417c1.398-2.441,1.387-5.44-0.028-7.871
			L61.251,3.91C59.834,1.482,57.232-0.007,54.421,0L0,0.202l0,139.279L54.937,139.277z"/>
	</g>
	<g>
		<path fill="#F6F6F6" d="M80.683,317.604h126.524l14.917-26.059c1.398-2.441,1.387-5.44-0.028-7.871l-35.89-61.636
			c-1.418-2.428-4.019-3.917-6.831-3.91l-71.323,0.265c-2.813,0.01-5.405,1.52-6.802,3.962l-35.431,61.897
			c-1.397,2.442-1.387,5.441,0.029,7.872L80.683,317.604z"/>
	</g>
	<g>
		<path fill="#F6F6F6" d="M109.052,73.444c-2.813,0.01-5.405,1.52-6.802,3.962l-35.431,61.897c-1.398,2.442-1.387,5.441,0.028,7.872
			l35.89,61.636c1.418,2.428,4.019,3.917,6.831,3.91l71.323-0.265c2.813-0.01,5.405-1.52,6.802-3.962l35.431-61.898
			c1.398-2.441,1.387-5.44-0.028-7.872l-35.89-61.636c-1.418-2.428-4.019-3.917-6.83-3.91L109.052,73.444z"/>
	</g>
	<g>
		<path fill="#F6F6F6" d="M234.433,146.215c-2.813,0.01-5.405,1.52-6.802,3.962L192.2,212.074c-1.398,2.442-1.387,5.441,0.028,7.872
			l35.89,61.636c1.418,2.428,4.019,3.917,6.831,3.91l71.323-0.265c2.813-0.01,5.405-1.52,6.802-3.962l35.431-61.898
			c1.398-2.441,1.387-5.44-0.028-7.871l-35.89-61.636c-1.418-2.428-4.019-3.917-6.831-3.91L234.433,146.215z"/>
	</g>
	<g>
		<path fill="#F6F6F6" d="M326.443,317.604l-13.856-23.795c-1.418-2.428-4.019-3.917-6.831-3.91l-71.323,0.265
			c-2.813,0.01-5.405,1.52-6.802,3.962l-13.439,23.478H326.443z"/>
	</g>
	<g>
		<path fill="#F6F6F6" d="M234.433,1.265c-2.813,0.01-5.405,1.52-6.802,3.962L192.2,67.125c-1.398,2.442-1.387,5.441,0.028,7.872
			l35.89,61.636c1.418,2.428,4.019,3.917,6.831,3.91l71.323-0.265c2.813-0.01,5.405-1.52,6.802-3.962l35.431-61.898
			c1.398-2.441,1.387-5.44-0.028-7.871L312.587,4.91c-1.418-2.428-4.019-3.917-6.831-3.91L234.433,1.265z"/>
	</g>
	<g>
		<path fill="#F6F6F6" d="M332.906,317.604H459.43l14.917-26.059c1.398-2.441,1.387-5.44-0.028-7.871l-35.89-61.636
			c-1.418-2.428-4.019-3.917-6.831-3.91l-71.323,0.265c-2.813,0.01-5.405,1.52-6.802,3.962l-35.431,61.897
			c-1.397,2.442-1.387,5.441,0.029,7.872L332.906,317.604z"/>
	</g>
	<g>
		<path fill="#F6F6F6" d="M361.274,73.444c-2.813,0.01-5.405,1.52-6.802,3.962l-35.431,61.897c-1.397,2.442-1.387,5.441,0.028,7.872
			l35.89,61.636c1.418,2.428,4.019,3.917,6.831,3.91l71.323-0.265c2.813-0.01,5.405-1.52,6.802-3.962l35.431-61.898
			c1.398-2.441,1.387-5.44-0.028-7.872l-35.89-61.636c-1.418-2.428-4.019-3.917-6.831-3.91L361.274,73.444z"/>
	</g>
	<g>
		<path fill="#F6F6F6" d="M486.656,146.215c-2.813,0.01-5.405,1.52-6.802,3.962l-35.431,61.897
			c-1.398,2.442-1.387,5.441,0.028,7.872l35.89,61.636c1.418,2.428,4.019,3.917,6.83,3.91l71.323-0.265
			c2.813-0.01,5.405-1.52,6.802-3.962l35.431-61.898c1.398-2.441,1.387-5.44-0.028-7.871l-35.89-61.636
			c-1.418-2.428-4.019-3.917-6.831-3.91L486.656,146.215z"/>
	</g>
	<g>
		<path fill="#F6F6F6" d="M578.665,317.604l-13.856-23.795c-1.418-2.428-4.019-3.917-6.831-3.91l-71.323,0.265
			c-2.813,0.01-5.405,1.52-6.802,3.962l-13.439,23.478H578.665z"/>
	</g>
</g>
</svg>
