<?xml version="1.0" encoding="utf-8"?>
<!-- Generator: Adobe Illustrator 18.0.0, SVG Export Plug-In . SVG Version: 6.00 Build 0)  -->
<!DOCTYPE svg PUBLIC "-//W3C//DTD SVG 1.1//EN" "http://www.w3.org/Graphics/SVG/1.1/DTD/svg11.dtd">
<svg version="1.1" id="Layer_1" xmlns="http://www.w3.org/2000/svg" xmlns:xlink="http://www.w3.org/1999/xlink" x="0px" y="0px"
	 width="601.768px" height="318.604px" viewBox="0 0 601.768 318.604" enable-background="new 0 0 601.768 318.604"
	 xml:space="preserve">
<g>
	<g>
		<path fill="#F6F6F6" d="M547.832,34.378c-2.813,0.01-5.405,1.52-6.802,3.962l-35.431,61.898c-1.398,2.441-1.387,5.44,0.028,7.871
			l35.89,61.636c1.418,2.428,4.019,3.917,6.831,3.91l53.421-0.199V34.177L547.832,34.378z"/>
	</g>
	<g>
		<path fill="#F6F6F6" d="M527.079,0l14.438,24.795c1.418,2.428,4.019,3.917,6.831,3.91l53.421-0.199V0H527.079z"/>
	</g>
	<g>
		<path fill="#F6F6F6" d="M546.832,179.328c-2.813,0.01-5.405,1.52-6.802,3.962l-35.431,61.898c-1.398,2.441-1.387,5.44,0.028,7.871
			l35.89,61.636c1.418,2.428,4.019,3.917,6.831,3.91l54.421-0.202V179.123L546.832,179.328z"/>
	</g>
	<g>
		<path fill="#F6F6F6" d="M521.085,1H394.561l-14.917,26.059c-1.398,2.441-1.387,5.44,0.028,7.871l35.89,61.636
			c1.418,2.428,4.019,3.917,6.831,3.91l71.323-0.265c2.813-0.01,5.405-1.52,6.802-3.962l35.431-61.897
			c1.397-2.442,1.387-5.441-0.029-7.872L521.085,1z"/>
	</g>
	<g>
		<path fill="#F6F6F6" d="M492.717,245.16c2.813-0.01,5.405-1.52,6.802-3.962l35.431-61.897c1.397-2.442,1.387-5.441-0.028-7.872
			l-35.89-61.636c-1.418-2.428-4.019-3.917-6.831-3.91l-71.323,0.265c-2.813,0.01-5.405,1.52-6.802,3.962l-35.431,61.898
			c-1.398,2.441-1.387,5.44,0.028,7.871l35.89,61.636c1.418,2.428,4.019,3.917,6.831,3.91L492.717,245.16z"/>
	</g>
	<g>
		<path fill="#F6F6F6" d="M367.335,172.389c2.813-0.01,5.405-1.52,6.802-3.962l35.431-61.897c1.397-2.442,1.387-5.441-0.028-7.872
			l-35.89-61.636c-1.418-2.428-4.019-3.917-6.831-3.91l-71.323,0.265c-2.813,0.01-5.405,1.52-6.802,3.962l-35.431,61.898
			c-1.398,2.441-1.387,5.44,0.028,7.871l35.89,61.636c1.418,2.428,4.019,3.917,6.831,3.91L367.335,172.389z"/>
	</g>
	<g>
		<path fill="#F6F6F6" d="M275.326,1l13.856,23.795c1.418,2.428,4.019,3.917,6.831,3.91l71.323-0.265
			c2.813-0.01,5.405-1.52,6.802-3.962L387.576,1H275.326z"/>
	</g>
	<g>
		<path fill="#F6F6F6" d="M367.335,317.339c2.813-0.01,5.405-1.52,6.802-3.962l35.431-61.897c1.397-2.442,1.387-5.441-0.028-7.872
			l-35.89-61.636c-1.418-2.428-4.019-3.917-6.831-3.91l-71.323,0.265c-2.813,0.01-5.405,1.52-6.802,3.962l-35.431,61.898
			c-1.398,2.441-1.387,5.44,0.028,7.871l35.89,61.636c1.418,2.428,4.019,3.917,6.831,3.91L367.335,317.339z"/>
	</g>
	<g>
		<path fill="#F6F6F6" d="M268.863,1H142.339l-14.917,26.059c-1.398,2.441-1.387,5.44,0.028,7.871l35.89,61.636
			c1.418,2.428,4.019,3.917,6.831,3.91l71.323-0.265c2.813-0.01,5.405-1.52,6.802-3.962l35.431-61.897
			c1.397-2.442,1.387-5.441-0.029-7.872L268.863,1z"/>
	</g>
	<g>
		<path fill="#F6F6F6" d="M240.494,245.16c2.813-0.01,5.405-1.52,6.802-3.962l35.431-61.897c1.397-2.442,1.387-5.441-0.028-7.872
			l-35.89-61.636c-1.418-2.428-4.019-3.917-6.831-3.91l-71.323,0.265c-2.813,0.01-5.405,1.52-6.802,3.962l-35.431,61.898
			c-1.398,2.441-1.387,5.44,0.028,7.871l35.89,61.636c1.418,2.428,4.019,3.917,6.831,3.91L240.494,245.16z"/>
	</g>
	<g>
		<path fill="#F6F6F6" d="M115.113,172.389c2.813-0.01,5.405-1.52,6.802-3.962l35.431-61.897c1.398-2.442,1.387-5.441-0.028-7.872
			l-35.89-61.636c-1.418-2.428-4.019-3.917-6.831-3.91l-71.323,0.265c-2.813,0.01-5.405,1.52-6.802,3.962L1.041,99.238
			c-1.398,2.441-1.387,5.44,0.028,7.871l35.89,61.636c1.418,2.428,4.019,3.917,6.831,3.91L115.113,172.389z"/>
	</g>
	<g>
		<path fill="#F6F6F6" d="M23.104,1l13.856,23.795c1.418,2.428,4.019,3.917,6.831,3.91l71.323-0.265
			c2.813-0.01,5.405-1.52,6.802-3.962L135.354,1H23.104z"/>
	</g>
</g>
</svg>
