<?xml version="1.0" encoding="utf-8"?>
<!-- Generator: Adobe Illustrator 18.1.0, SVG Export Plug-In . SVG Version: 6.00 Build 0)  -->
<!DOCTYPE svg PUBLIC "-//W3C//DTD SVG 1.1//EN" "http://www.w3.org/Graphics/SVG/1.1/DTD/svg11.dtd">
<svg version="1.1" id="Layer_1" xmlns="http://www.w3.org/2000/svg" xmlns:xlink="http://www.w3.org/1999/xlink" x="0px" y="0px"
	 width="46px" height="46px" viewBox="0 0 46 46" enable-background="new 0 0 46 46" xml:space="preserve">
<g>
	<path fill="#0A7C7C" d="M0,0v46h46V0H0z M26.875,8.009h1.864v7.596c0,0.439,0,0.667,0.023,0.728
		c0.041,0.29,0.186,0.438,0.438,0.438c0.374,0,0.766-0.29,1.182-0.875V8.009h1.87v10.318h-1.87v-1.126
		c-0.745,0.854-1.455,1.27-2.136,1.27c-0.603,0-1.018-0.245-1.204-0.769c-0.103-0.312-0.167-0.806-0.167-1.534V8.009z
		 M19.811,11.372c0-1.103,0.188-1.908,0.586-2.431c0.517-0.705,1.246-1.058,2.177-1.058c0.937,0,1.663,0.353,2.181,1.058
		c0.392,0.522,0.581,1.328,0.581,2.431v3.614c0,1.097-0.189,1.91-0.581,2.428c-0.518,0.703-1.245,1.057-2.181,1.057
		c-0.931,0-1.66-0.354-2.177-1.057c-0.398-0.518-0.586-1.331-0.586-2.428V11.372z M14.812,4.48l1.471,5.438l1.414-5.438h2.097
		L17.3,12.719v5.608h-2.074v-5.608c-0.187-0.994-0.603-2.45-1.267-4.381c-0.437-1.284-0.893-2.575-1.329-3.857H14.812z
		 M37.771,38.088c-0.374,1.627-1.705,2.828-3.309,3.008c-3.797,0.424-7.64,0.426-11.464,0.424c-3.826,0.002-7.668,0-11.464-0.424
		c-1.604-0.18-2.935-1.38-3.309-3.008c-0.533-2.318-0.533-4.851-0.533-7.237c0-2.39,0.005-4.917,0.539-7.238
		c0.374-1.627,1.705-2.828,3.309-3.007c3.797-0.425,7.639-0.426,11.465-0.425c3.824-0.001,7.668,0,11.464,0.425
		c1.604,0.179,2.935,1.38,3.309,3.007c0.533,2.321,0.531,4.849,0.531,7.238C38.308,33.237,38.306,35.77,37.771,38.088z"/>
	<path fill="#0A7C7C" d="M22.574,16.77c0.603,0,0.891-0.478,0.891-1.432v-4.341c0-0.955-0.289-1.43-0.891-1.43
		c-0.604,0-0.893,0.475-0.893,1.43v4.341C21.681,16.293,21.971,16.77,22.574,16.77z"/>
	<path fill="#0A7C7C" d="M33.271,27.138c-0.944,0-1.683,0.347-2.216,1.047c-0.394,0.516-0.572,1.314-0.572,2.406v3.577
		c0,1.083,0.201,1.89,0.594,2.4c0.534,0.698,1.271,1.047,2.24,1.047c0.966,0,1.724-0.366,2.237-1.107
		c0.223-0.327,0.369-0.7,0.431-1.108c0.017-0.186,0.041-0.598,0.041-1.192v-0.27h-1.889c0,0.743-0.022,1.151-0.039,1.252
		c-0.106,0.495-0.373,0.743-0.828,0.743c-0.635,0-0.944-0.471-0.944-1.417v-1.809h3.7v-2.115c0-1.092-0.187-1.89-0.574-2.406
		C34.936,27.485,34.2,27.138,33.271,27.138z M34.177,31.165h-1.849v-0.944c0-0.944,0.31-1.417,0.928-1.417
		c0.611,0,0.921,0.473,0.921,1.417V31.165z"/>
	<path fill="#0A7C7C" d="M27.378,27.138c-0.679,0-1.313,0.373-1.912,1.107v-4.476h-1.849v13.704h1.849v-0.989
		c0.619,0.764,1.253,1.13,1.912,1.13c0.738,0,1.232-0.388,1.479-1.148c0.123-0.432,0.186-1.113,0.186-2.057v-4.067
		c0-0.966-0.063-1.642-0.186-2.053C28.61,27.526,28.116,27.138,27.378,27.138z M27.194,34.556c0,0.922-0.271,1.376-0.805,1.376
		c-0.304,0-0.613-0.146-0.923-0.454v-6.225c0.31-0.304,0.619-0.45,0.923-0.45c0.533,0,0.805,0.473,0.805,1.394V34.556z"/>
	<path fill="#0A7C7C" d="M20.163,35.067c-0.409,0.578-0.799,0.865-1.17,0.865c-0.248,0-0.388-0.146-0.433-0.432
		c-0.017-0.06-0.017-0.287-0.017-0.719v-7.518h-1.849v8.074c0,0.722,0.062,1.208,0.164,1.518c0.184,0.518,0.595,0.76,1.192,0.76
		c0.681,0,1.38-0.412,2.114-1.254v1.113h1.852V27.263h-1.852V35.067z"/>
	<polygon fill="#0A7C7C" points="9.973,25.7 12.15,25.7 12.15,37.474 14.207,37.474 14.207,25.7 16.425,25.7 16.425,23.769 
		9.973,23.769 	"/>
</g>
</svg>
