<svg xmlns="http://www.w3.org/2000/svg" width="211.205" height="50.417" viewBox="0 0 211.205 50.417"><g fill="#eee"><path d="M42.14 10.1l-.853-2.438h-3.853L36.58 10.1h-1.262l3.39-9.343h1.33l3.42 9.343H42.14zm-2.787-8.013l-1.57 4.553h3.152l-1.582-4.553zM50.567 10.254c-.868 0-1.4-.364-1.47-.406v3.25h-1.19V3.32h1.063v.504c.1-.084.757-.687 1.905-.687 1.807 0 2.997 1.415 2.997 3.46 0 2.186-1.428 3.657-3.305 3.657zm.098-6.108c-.925 0-1.527.56-1.57.588v4.062c.113.084.575.448 1.36.448 1.303 0 2.213-.994 2.213-2.647 0-1.484-.854-2.45-2.003-2.45zM59.093 4.217c-.084-.015-.294-.042-.505-.042-1.33 0-1.89.966-2.003 1.106v4.82h-1.19V3.32h1.064v.882c.07-.084.81-1.064 2.185-1.064.504 0 .687.112.73.126l-.282.953zM62.87 10.254c-1.892 0-3.152-1.4-3.152-3.544 0-2.13 1.275-3.572 3.25-3.572 1.892 0 3.138 1.4 3.138 3.572 0 2.13-1.275 3.544-3.236 3.544zm.028-6.136c-1.218 0-1.988 1.022-1.988 2.55 0 1.555.868 2.59 2.03 2.59 1.26 0 1.976-.993 1.976-2.534 0-1.555-.855-2.606-2.018-2.606zM68.202 12.747c-.392.393-1.01.56-1.568.56-.59 0-1.022-.21-1.107-.25l.295-.884c.126.042.378.14.7.14.504 0 .7-.195.798-.294.238-.24.31-.617.31-1.178V3.32h1.19v7.41c0 .924-.113 1.513-.618 2.017zm.014-10.855c-.405 0-.728-.322-.728-.73s.322-.728.728-.728c.406 0 .73.322.73.73s-.324.728-.73.728zM76.242 7.032h-4.72c-.016 1.162.657 2.213 2.128 2.213 1.064 0 1.793-.462 1.92-.532l.447.812c-.112.084-1.036.73-2.465.73-2.06 0-3.223-1.486-3.223-3.503 0-2.157 1.26-3.614 3.15-3.614 1.71 0 2.788 1.26 2.788 3.39.002.14-.026.378-.026.504zm-2.746-2.94c-1.064 0-1.863.783-1.96 2.002h3.585c0-.785-.363-2.003-1.624-2.003zM80.734 10.254c-1.947 0-3.292-1.36-3.292-3.432 0-2.157 1.443-3.685 3.446-3.685 1.274 0 2.087.645 2.157.73l-.504.77c-.126-.084-.714-.49-1.624-.49-1.387 0-2.27 1.177-2.27 2.563 0 1.5.868 2.507 2.2 2.507 1.02 0 1.75-.504 1.806-.532l.49.812c-.04.057-1.007.757-2.408.757zM87.258 10.268c-.616 0-1.163-.154-1.527-.52-.49-.49-.447-1.175-.447-1.987V4.3h-1.19v-.98h1.19V1.415h1.19V3.32h2.088v.98h-2.086v3.655c0 .687.027 1.29.994 1.29.546 0 .883-.17.938-.183l.31.84c-.085.043-.617.366-1.458.366zM95.755 10.268c-1.232 0-2.24-.406-2.48-.49V0h1.19v3.698c.07-.056.758-.56 1.81-.56 1.75 0 2.968 1.344 2.968 3.445 0 2.186-1.415 3.685-3.488 3.685zm.322-6.122c-.896 0-1.513.504-1.61.574v4.328c.125.042.49.21 1.26.21 1.4 0 2.312-1.05 2.312-2.66-.002-1.527-.828-2.452-1.963-2.452zM103.987 10.436c-.462 1.205-.784 1.78-1.232 2.228-.364.364-.98.645-1.765.645-.785 0-1.303-.28-1.373-.31l.336-.896c.098.028.448.196.98.196.435 0 .8-.14 1.05-.393.394-.392.617-.98.897-1.694l-2.815-6.892h1.288l2.157 5.49 1.962-5.49h1.204l-2.69 7.116z"/></g><path fill="#00A099" d="M11.7 40.95c-.395 0-.747-.207-.933-.54L5.92 32.02c-.083-.165-.145-.33-.145-.517-.33.04-.62.228-.787.518L.14 40.41c-.185.332-.185.747 0 1.078l4.848 8.39c.186.33.54.54.932.54h9.695c.394 0 .746-.208.932-.54l4.847-8.39c.124-.207.145-.435.124-.663-.145.083-.31.124-.476.124H11.7z"/><path fill="#C6C6C5" d="M10.767 22.555c.186-.33.54-.54.932-.54h9.34c.167 0 .332.042.477.125.02-.228-.02-.456-.124-.663l-4.847-8.39c-.186-.33-.54-.54-.932-.54H5.94c-.394 0-.746.208-.932.54L.16 21.477c-.185.33-.185.746 0 1.077l4.848 8.39c.166.29.456.476.787.518 0-.186.04-.352.145-.518l4.827-8.39z"/><path fill="#364D55" d="M26.82 30.945l-4.846-8.39c-.104-.186-.27-.33-.456-.414-.02.146-.062.29-.124.415l-4.847 8.39c-.186.33-.54.54-.932.54.394 0 .746.206.932.538l4.847 8.39c.083.124.104.27.124.414.186-.083.352-.228.456-.414l4.847-8.39c.187-.333.187-.747 0-1.078z"/><path fill="#002628" d="M16.546 32.022c-.186-.33-.54-.54-.932-.54H5.94c-.062 0-.104.022-.145.022 0 .186.04.352.145.518l4.847 8.39c.186.33.54.54.932.54h9.32c.167 0 .332-.042.477-.125-.02-.145-.062-.29-.124-.414l-4.847-8.39z"/><path fill="#2A3C42" d="M15.614 31.483c.394 0 .746-.207.932-.54l4.847-8.39c.083-.123.104-.268.124-.413-.145-.083-.31-.124-.476-.124H11.7c-.395 0-.747.207-.933.54l-4.847 8.39c-.083.165-.145.33-.145.517.04 0 .104.02.145.02h9.694z"/><g fill="#fff"><path d="M82.668 25.952c0-.31-.166-.456-.456-.456h-.91V24.19h1.573c.91 0 1.284.374 1.284 1.285v8.41c0 2.465 1.573 4.02 3.997 4.02s4.02-1.555 4.02-4.06v-8.37c0-.91.372-1.284 1.283-1.284h1.574v1.306h-.91c-.29 0-.457.145-.457.456v7.996c0 3.21-2.196 5.344-5.47 5.344s-5.51-2.134-5.51-5.344v-7.996h-.02zM97.583 25.952c0-.31-.166-.456-.456-.456h-.91V24.19h1.573c.91 0 1.284.374 1.284 1.285v5.158h1.78c.56 0 .995-.104 1.244-.54l3.604-5.923h1.7l-3.833 6.235c-.374.62-.767.83-.767.83v.04s.352.124.725.85l2.59 5.116c.206.436.538.477 1.076.477h.414v1.305h-.787c-1.2 0-1.573-.124-2.05-1.12l-2.714-5.426c-.228-.476-.725-.56-1.346-.56h-1.636v7.127h-1.47v-13.09h-.02zM116 23.922c3.438 0 5.198 1.823 5.198 1.823l-.87 1.098s-1.657-1.533-4.31-1.533c-3.334 0-5.903 2.693-5.903 6.256 0 3.667 2.527 6.318 5.883 6.318 2.942 0 4.702-2.175 4.702-2.175v-1.845c0-.31-.166-.456-.456-.456h-.91v-1.306h1.47c.91 0 1.284.373 1.284 1.284v5.655h-1.346v-1.12c0-.31.02-.64.02-.64h-.04s-1.74 2.008-4.868 2.008c-4.06 0-7.27-3.25-7.27-7.726-.022-4.265 3.21-7.642 7.415-7.642zM129.05 28.148c2.94 0 4.453 2.258 4.453 4.91 0 .248-.04.724-.04.724H125.3c.04 2.693 1.926 4.226 4.122 4.226 1.947 0 3.19-1.305 3.19-1.305l.704 1.077s-1.554 1.533-3.957 1.533c-3.15 0-5.573-2.28-5.573-5.572.02-3.5 2.403-5.592 5.262-5.592zm2.982 4.474c-.083-2.196-1.43-3.273-3.004-3.273-1.76 0-3.294 1.138-3.667 3.272h6.672zM136.382 30.116c0-.29-.166-.456-.456-.456h-.89v-1.243h1.47c.89 0 1.284.373 1.284 1.18v.477c0 .414-.04.766-.04.766h.04c.373-.974 1.74-2.693 4.226-2.693 2.652 0 3.584 1.512 3.584 4.122v5.053c0 .31.166.456.456.456h.89v1.242h-1.51c-.912 0-1.285-.373-1.285-1.284v-5.096c0-1.678-.248-3.15-2.298-3.15-1.823 0-3.377 1.244-3.874 3.005-.124.435-.166.932-.166 1.43v5.116h-1.43v-8.927zM153.08 28.148c2.94 0 4.453 2.258 4.453 4.91 0 .248-.04.724-.04.724h-8.163c.04 2.693 1.926 4.226 4.122 4.226 1.947 0 3.19-1.305 3.19-1.305l.704 1.077s-1.554 1.533-3.957 1.533c-3.15 0-5.573-2.28-5.573-5.572.02-3.5 2.403-5.592 5.262-5.592zm2.982 4.474c-.083-2.196-1.43-3.273-3.004-3.273-1.76 0-3.294 1.138-3.667 3.272h6.672zM165.508 32.477h.6v-.124c0-2.217-.807-3.004-2.754-3.004-.54 0-2.072.144-2.072.93v.685h-1.367V29.95c0-1.47 2.548-1.802 3.46-1.802 3.355 0 4.163 1.802 4.163 4.08v5.097c0 .31.166.456.456.456h.89v1.244h-1.45c-.91 0-1.263-.394-1.263-1.264 0-.456.022-.787.022-.787h-.04c.02 0-.87 2.3-3.543 2.3-1.782 0-3.626-1.037-3.626-3.15.02-3.52 4.7-3.646 6.524-3.646zm-2.652 5.593c2.03 0 3.252-2.113 3.252-3.957v-.476h-.62c-1.68 0-5.014.04-5.014 2.424 0 .995.787 2.01 2.382 2.01zM171.598 25.87c0-.29-.166-.457-.456-.457h-.89V24.17h1.51c.912 0 1.285.373 1.285 1.284v11.87c0 .31.166.456.456.456h.89v1.243h-1.51c-.912 0-1.285-.373-1.285-1.284V25.87zM181.396 28.148c3.107 0 5.634 2.362 5.634 5.53 0 3.212-2.527 5.635-5.614 5.635-3.107 0-5.634-2.403-5.634-5.634.02-3.17 2.527-5.532 5.614-5.532zm.02 9.86c2.26 0 4.123-1.864 4.123-4.33 0-2.402-1.865-4.204-4.123-4.204-2.28 0-4.143 1.802-4.143 4.205 0 2.464 1.864 4.328 4.143 4.328zM192.955 28.148c2.86 0 3.542 1.823 3.542 1.823h.04s0-.185 0-.393c0-.766.332-1.16 1.202-1.16h1.47v1.243h-.87c-.29 0-.456.145-.456.456v8.68c0 3.377-2.507 4.702-5.117 4.702-1.2 0-2.424-.31-3.46-.85l.56-1.2s1.305.746 2.88.746c2.07 0 3.728-.974 3.728-3.335v-.933c0-.394.02-.766.02-.766h-.04c-.642 1.16-1.7 1.845-3.335 1.845-2.86 0-4.744-2.258-4.744-5.448s1.72-5.41 4.58-5.41zm3.5 5.365c0-3.107-1.47-4.06-3.355-4.06-2.072 0-3.273 1.512-3.273 4.04 0 2.547 1.367 4.183 3.46 4.183 1.698 0 3.17-1.035 3.17-4.163zM202.567 42.193c.932 0 1.574-.766 1.968-1.74l.642-1.45-3.77-8.866c-.166-.373-.352-.476-.746-.476h-.206V28.42h.663c.953 0 1.243.207 1.636 1.16l2.734 6.65c.207.54.373 1.14.373 1.14h.04s.146-.622.353-1.14l2.63-6.65c.353-.953.685-1.16 1.658-1.16h.664v1.243h-.207c-.373 0-.6.105-.746.477l-4.598 11.124c-.56 1.347-1.636 2.218-3.045 2.218-1.47 0-2.3-1.036-2.3-1.036l.685-1.056c-.02.02.663.807 1.575.807z"/></g><g fill="#00A099"><path d="M38.856 26.76v3.107h5.614v2.962h-5.614v6.42h-3.812V23.716h9.715v3.045h-5.904zM54.268 30.49c-.062-.022-.394-.084-.704-.084-1.636 0-2.672.932-3.107 1.574v7.27h-3.73V27.693h3.067v1.533c.062-.124 1.49-1.885 3.874-1.885.89 0 1.367.33 1.43.352l-.83 2.797zM66.324 34.59H58.68c0 .808.725 2.362 2.962 2.362 1.554 0 2.755-.704 2.962-.808l1.098 2.196c-.145.145-2.03 1.284-4.35 1.284-4.33 0-5.987-3.15-5.987-6.05 0-3.54 2.3-6.193 5.676-6.193 3.48 0 5.325 2.445 5.325 6.174 0 .456-.04.746-.04 1.036zm-5.22-4.702c-1.926 0-2.32 1.906-2.362 2.237h4.35c.02-.455-.165-2.237-1.988-2.237zM79.167 34.59h-7.644c0 .808.725 2.362 2.962 2.362 1.554 0 2.755-.704 2.962-.808l1.098 2.196c-.145.145-2.03 1.284-4.35 1.284-4.33 0-5.987-3.15-5.987-6.05 0-3.54 2.3-6.193 5.676-6.193 3.48 0 5.324 2.445 5.324 6.174 0 .456-.04.746-.04 1.036zm-5.22-4.702c-1.926 0-2.32 1.906-2.362 2.237h4.35c.022-.455-.165-2.237-1.988-2.237z"/></g></svg>