<?xml version="1.0" encoding="utf-8"?>
<!-- Generator: Adobe Illustrator 18.1.1, SVG Export Plug-In . SVG Version: 6.00 Build 0)  -->
<!DOCTYPE svg PUBLIC "-//W3C//DTD SVG 1.1//EN" "http://www.w3.org/Graphics/SVG/1.1/DTD/svg11.dtd">
<svg version="1.1" id="Layer_1" xmlns="http://www.w3.org/2000/svg" xmlns:xlink="http://www.w3.org/1999/xlink" x="0px" y="0px"
	 width="46px" height="46px" viewBox="0 0 46 46" enable-background="new 0 0 46 46" xml:space="preserve">
<g>
	<path fill="#A1185A" d="M0,0v46h46V0H0z M28.065,38.564c-0.811,0.156-1.1-0.34-1.1-0.767c0-0.525,0.02-2.249,0.02-4.387
		c0-1.492-0.513-2.466-1.086-2.96c3.562-0.396,7.302-1.748,7.302-7.892c0-1.743-0.621-3.172-1.644-4.289
		c0.165-0.406,0.713-2.031-0.157-4.233c0,0-1.341-0.43-4.396,1.641c-1.275-0.356-2.644-0.533-4.002-0.539
		c-1.358,0.006-2.728,0.184-4.003,0.539c-3.056-2.07-4.397-1.641-4.397-1.641c-0.87,2.202-0.322,3.827-0.158,4.233
		c-1.021,1.117-1.645,2.546-1.645,4.289c0,6.126,3.733,7.502,7.284,7.904c-0.457,0.401-0.87,1.102-1.014,2.137
		c-0.912,0.408-3.229,1.117-4.654-1.328c0,0-0.844-1.534-2.45-1.648c0,0-1.562-0.02-0.111,0.974c0,0,1.049,0.49,1.776,2.337
		c0,0,0.938,3.109,5.385,2.143c0.01,1.335,0.022,2.341,0.022,2.72c0,0.422-0.292,0.917-1.092,0.772
		C11.59,36.453,7.009,30.46,7.009,23.398c0-8.835,7.16-15.993,15.991-15.993c8.833,0,15.991,7.158,15.991,15.993
		C38.991,30.457,34.413,36.448,28.065,38.564z"/>
</g>
</svg>
