<?xml version="1.0" encoding="utf-8"?>
<!-- Generator: Adobe Illustrator 18.1.1, SVG Export Plug-In . SVG Version: 6.00 Build 0)  -->
<!DOCTYPE svg PUBLIC "-//W3C//DTD SVG 1.1//EN" "http://www.w3.org/Graphics/SVG/1.1/DTD/svg11.dtd">
<svg version="1.1" id="Layer_1" xmlns="http://www.w3.org/2000/svg" xmlns:xlink="http://www.w3.org/1999/xlink" x="0px" y="0px"
	 width="46px" height="46px" viewBox="0 0 46 46" enable-background="new 0 0 46 46" xml:space="preserve">
<g>
	<path fill="#A1185A" d="M0,0v46h46V0H0z M9.323,40.962C6.935,40.962,5,39.028,5,36.638c0-2.387,1.935-4.324,4.323-4.324
		c2.388,0,4.323,1.938,4.323,4.324C13.646,39.028,11.711,40.962,9.323,40.962z M20.172,40.995c0-4.082-1.577-7.917-4.443-10.797
		c-2.865-2.875-6.672-4.46-10.724-4.46v-6.244c11.806,0,21.409,9.646,21.409,21.501H20.172z M31.2,41
		c0-14.516-11.749-26.329-26.187-26.329V8.428c17.882,0,32.428,14.611,32.428,32.572H31.2z"/>
</g>
</svg>
