<?xml version="1.0" encoding="utf-8"?>
<!-- Generator: Adobe Illustrator 18.1.1, SVG Export Plug-In . SVG Version: 6.00 Build 0)  -->
<!DOCTYPE svg PUBLIC "-//W3C//DTD SVG 1.1//EN" "http://www.w3.org/Graphics/SVG/1.1/DTD/svg11.dtd">
<svg version="1.1" id="Layer_1" xmlns="http://www.w3.org/2000/svg" xmlns:xlink="http://www.w3.org/1999/xlink" x="0px" y="0px"
	 width="46px" height="46px" viewBox="0 0 46 46" enable-background="new 0 0 46 46" xml:space="preserve">
<g>
	<path fill="#A1185A" d="M0,0v46h46V0H0z M38.208,15.201c0.015,0.336,0.023,0.675,0.023,1.015c0,10.369-7.892,22.325-22.325,22.325
		c-4.431,0-8.556-1.299-12.028-3.525c0.614,0.072,1.238,0.11,1.872,0.11c3.676,0,7.059-1.254,9.745-3.359
		c-3.434-0.063-6.331-2.332-7.33-5.449c0.479,0.092,0.971,0.141,1.476,0.141c0.716,0,1.409-0.096,2.067-0.275
		c-3.59-0.721-6.294-3.892-6.294-7.694c0-0.033,0-0.066,0.001-0.099c1.058,0.588,2.268,0.941,3.554,0.981
		c-2.105-1.407-3.491-3.809-3.491-6.531c0-1.438,0.387-2.786,1.062-3.945c3.87,4.747,9.652,7.871,16.173,8.198
		c-0.134-0.574-0.203-1.173-0.203-1.788c0-4.333,3.513-7.846,7.847-7.846c2.257,0,4.296,0.953,5.727,2.478
		c1.787-0.352,3.467-1.005,4.983-1.904c-0.586,1.832-1.83,3.37-3.45,4.341c1.587-0.19,3.1-0.611,4.507-1.236
		C41.071,12.712,39.74,14.094,38.208,15.201z"/>
</g>
</svg>
