<?xml version="1.0" standalone="no"?>
<!DOCTYPE svg PUBLIC "-//W3C//DTD SVG 20010904//EN"
 "http://www.w3.org/TR/2001/REC-SVG-20010904/DTD/svg10.dtd">
<svg version="1.0" xmlns="http://www.w3.org/2000/svg"
 width="700.000000pt" height="700.000000pt" viewBox="0 0 700.000000 700.000000"
 preserveAspectRatio="xMidYMid meet">
<metadata>
Created by potrace 1.11, written by Peter Selinger 2001-2013
</metadata>
<g transform="translate(0.000000,700.000000) scale(0.100000,-0.100000)"
fill="#000000" stroke="none">
<path d="M2025 6981 c-22 -10 -50 -29 -61 -42 -12 -13 -81 -127 -154 -254 -73
-126 -165 -286 -205 -355 -40 -69 -148 -255 -240 -415 -92 -159 -203 -352
-247 -427 -44 -76 -86 -156 -94 -178 -27 -78 -18 -99 213 -500 231 -399 262
-452 508 -880 87 -151 173 -299 191 -328 32 -50 60 -69 139 -98 16 -6 13 -8
-17 -14 -62 -11 -105 -50 -156 -140 -28 -51 -136 -237 -411 -712 -50 -87 -131
-227 -179 -310 -49 -84 -135 -234 -193 -333 -103 -178 -104 -181 -104 -245 0
-59 4 -72 46 -145 26 -44 56 -96 67 -115 10 -19 43 -75 72 -125 29 -49 62
-106 73 -125 10 -19 137 -237 280 -485 143 -247 269 -466 280 -485 105 -187
124 -213 172 -245 29 -20 49 -20 970 -23 1007 -3 992 -4 1048 47 15 14 64 89
109 166 45 77 95 163 111 190 17 28 44 75 60 105 17 30 38 67 49 82 10 14 18
28 18 31 0 2 61 109 135 236 74 128 135 235 135 238 0 4 6 14 14 22 7 9 27 41
43 71 29 53 64 115 91 155 6 11 15 27 19 35 4 8 42 75 84 147 83 141 90 157
95 212 2 19 10 39 19 43 24 14 55 49 80 93 22 39 292 505 410 710 32 55 83
143 113 195 62 108 56 97 187 325 206 355 190 323 190 395 l-1 65 -266 460
c-146 253 -275 476 -285 495 -235 413 -378 650 -410 678 -29 26 -37 41 -40 74
-2 23 -9 53 -17 67 -21 41 -67 123 -93 163 -12 21 -23 40 -23 43 0 3 -11 22
-23 43 -21 33 -483 830 -535 924 -12 20 -32 55 -46 77 -15 22 -26 42 -26 45 0
2 -36 66 -81 142 -87 152 -127 197 -186 213 -26 8 -334 11 -963 11 -876 -1
-927 -2 -965 -19z"/>
</g>
</svg>
