<svg xmlns="http://www.w3.org/2000/svg" width="485.837" height="87.106" viewBox="0 0 485.837 87.106"><path fill="#00A099" d="M26.91 65.33c-.904 0-1.714-.478-2.143-1.24l-11.15-19.3c-.19-.38-.334-.76-.334-1.19-.762.095-1.43.524-1.81 1.19L.322 64.09c-.43.762-.43 1.715 0 2.478l11.15 19.3c.428.76 1.238 1.238 2.143 1.238h22.3c.906 0 1.716-.477 2.145-1.24L49.21 66.57c.287-.477.335-1 .287-1.525-.334.19-.715.286-1.096.286H26.91z"/><path fill="#C6C6C5" d="M24.767 23.015c.43-.762 1.24-1.24 2.144-1.24h21.492c.38 0 .762.096 1.096.287.048-.524-.048-1.048-.286-1.525L38.062 1.24C37.63.476 36.82 0 35.916 0H13.664c-.905 0-1.715.477-2.144 1.24L.37 20.537c-.43.762-.43 1.715 0 2.478l11.15 19.3c.38.666 1.047 1.095 1.81 1.19 0-.43.095-.81.334-1.19l11.103-19.3z"/><path fill="#364D55" d="M61.696 42.314l-11.15-19.3c-.238-.428-.62-.76-1.048-.952-.048.334-.143.667-.286.953l-11.15 19.3c-.43.76-1.24 1.238-2.144 1.238.905 0 1.715.477 2.144 1.24l11.15 19.298c.19.287.238.62.286.954.43-.19.81-.524 1.048-.953l11.15-19.298c.43-.763.43-1.716 0-2.478z"/><path fill="#002628" d="M38.06 44.792c-.428-.762-1.238-1.24-2.143-1.24H13.664c-.143 0-.238.05-.334.05 0 .428.095.81.334 1.19l11.15 19.3c.43.76 1.24 1.238 2.144 1.238H48.4c.382 0 .763-.095 1.097-.286-.048-.334-.143-.667-.286-.953L38.06 44.793z"/><path fill="#2A3C42" d="M35.917 43.553c.905 0 1.715-.477 2.144-1.24l11.15-19.298c.192-.286.24-.62.287-.953-.334-.19-.715-.286-1.096-.286H26.91c-.904 0-1.714.477-2.143 1.24l-11.15 19.298c-.19.38-.334.762-.334 1.19.095 0 .238.05.334.05h22.3z"/><g fill="#364D55"><path d="M190.163 30.83c0-.715-.38-1.048-1.048-1.048h-2.097V26.78h3.62c2.098 0 2.955.858 2.955 2.954V49.08c0 5.67 3.62 9.244 9.197 9.244 5.575 0 9.244-3.574 9.244-9.34v-19.25c0-2.097.858-2.954 2.954-2.954h3.62v3.002h-2.096c-.667 0-1.048.334-1.048 1.048v18.393c0 7.386-5.05 12.294-12.58 12.294S190.21 56.61 190.21 49.223V30.83h-.047zM224.472 30.83c0-.715-.38-1.048-1.048-1.048h-2.097V26.78h3.62c2.098 0 2.955.858 2.955 2.954V41.6H232c1.287 0 2.287-.24 2.86-1.24l8.29-13.628h3.907l-8.815 14.343c-.858 1.43-1.763 1.906-1.763 1.906v.096s.81.286 1.667 1.954l5.956 11.77c.477 1 1.24 1.096 2.478 1.096h.954v3.002h-1.81c-2.765 0-3.622-.286-4.718-2.573l-6.242-12.485c-.524-1.096-1.668-1.287-3.097-1.287h-3.764v16.392h-3.383V30.83h-.048zM266.833 26.16c7.91 0 11.96 4.193 11.96 4.193l-2 2.525s-3.813-3.526-9.912-3.526c-7.67 0-13.58 6.195-13.58 14.39 0 8.435 5.813 14.535 13.533 14.535 6.766 0 10.817-5.003 10.817-5.003v-4.24c0-.716-.38-1.05-1.048-1.05h-2.097v-3h3.383c2.097 0 2.954.857 2.954 2.953v13.01h-3.097v-2.574c0-.715.048-1.477.048-1.477h-.095s-4.003 4.622-11.198 4.622c-9.34 0-16.725-7.48-16.725-17.774-.048-9.817 7.385-17.584 17.058-17.584zM296.853 35.88c6.766 0 10.245 5.195 10.245 11.294 0 .572-.095 1.668-.095 1.668H288.23c.094 6.195 4.43 9.72 9.482 9.72 4.48 0 7.338-3 7.338-3l1.62 2.477s-3.574 3.525-9.1 3.525c-7.244 0-12.82-5.242-12.82-12.818.048-8.053 5.527-12.866 12.103-12.866zm6.862 10.294c-.19-5.05-3.288-7.53-6.91-7.53-4.05 0-7.576 2.622-8.433 7.53h15.343zM313.722 40.408c0-.667-.38-1.048-1.048-1.048h-2.05V36.5h3.384c2.05 0 2.954.86 2.954 2.717v1.096c0 .953-.095 1.763-.095 1.763h.095c.858-2.24 4.003-6.195 9.72-6.195 6.1 0 8.245 3.48 8.245 9.484V56.99c0 .715.38 1.048 1.048 1.048h2.05v2.86h-3.48c-2.097 0-2.954-.86-2.954-2.955V46.22c0-3.86-.57-7.242-5.288-7.242-4.193 0-7.767 2.86-8.91 6.91-.287 1-.382 2.143-.382 3.287v11.77h-3.288V40.408zM352.128 35.88c6.766 0 10.245 5.195 10.245 11.294 0 .572-.095 1.668-.095 1.668h-18.774c.095 6.195 4.432 9.72 9.483 9.72 4.48 0 7.338-3 7.338-3l1.62 2.477s-3.574 3.525-9.1 3.525c-7.244 0-12.82-5.242-12.82-12.818.048-8.053 5.528-12.866 12.103-12.866zm6.862 10.294c-.19-5.05-3.288-7.53-6.91-7.53-4.05 0-7.576 2.622-8.433 7.53h15.343zM380.72 45.84h1.38v-.286c0-5.1-1.857-6.91-6.337-6.91-1.24 0-4.765.335-4.765 2.145v1.57h-3.145v-2.334c0-3.383 5.86-4.146 7.958-4.146 7.72 0 9.58 4.146 9.58 9.387V56.99c0 .714.38 1.047 1.047 1.047h2.05v2.86h-3.337c-2.097 0-2.907-.906-2.907-2.908 0-1.05.048-1.812.048-1.812h-.094c.048 0-2 5.29-8.148 5.29-4.098 0-8.34-2.384-8.34-7.244.05-8.098 10.818-8.384 15.01-8.384zm-6.1 12.866c4.67 0 7.48-4.86 7.48-9.1v-1.097h-1.43c-3.86 0-11.53.094-11.53 5.574 0 2.287 1.81 4.622 5.48 4.622zM394.728 30.64c0-.667-.38-1.048-1.048-1.048h-2.05v-2.86h3.48c2.097 0 2.954.86 2.954 2.955V56.99c0 .715.38 1.048 1.048 1.048h2.05v2.86h-3.48c-2.097 0-2.954-.86-2.954-2.955V30.64zM417.267 35.88c7.148 0 12.96 5.433 12.96 12.724 0 7.386-5.812 12.96-12.912 12.96-7.148 0-12.96-5.527-12.96-12.96.046-7.29 5.812-12.723 12.912-12.723zm.048 22.683c5.194 0 9.483-4.29 9.483-9.96 0-5.527-4.29-9.672-9.483-9.672-5.242 0-9.53 4.147-9.53 9.674 0 5.67 4.288 9.96 9.53 9.96zM443.856 35.88c6.576 0 8.148 4.194 8.148 4.194h.095s0-.43 0-.905c0-1.764.76-2.67 2.763-2.67h3.383v2.86h-2c-.668 0-1.05.334-1.05 1.048v19.966c0 7.767-5.765 10.817-11.77 10.817-2.763 0-5.574-.714-7.957-1.953l1.286-2.764s3.002 1.715 6.623 1.715c4.764 0 8.576-2.24 8.576-7.672v-2.144c0-.905.048-1.763.048-1.763h-.095c-1.478 2.667-3.908 4.24-7.673 4.24-6.576 0-10.912-5.194-10.912-12.532s3.956-12.437 10.53-12.437zm8.053 12.343c0-7.148-3.384-9.34-7.72-9.34-4.765 0-7.53 3.48-7.53 9.292 0 5.86 3.146 9.625 7.96 9.625 3.906 0 7.29-2.382 7.29-9.577zM465.966 68.188c2.144 0 3.62-1.763 4.527-4.003l1.477-3.336-8.672-20.396c-.38-.858-.81-1.096-1.715-1.096h-.477v-2.86h1.525c2.193 0 2.86.478 3.765 2.67l6.29 15.295c.477 1.24.858 2.62.858 2.62h.095s.334-1.43.81-2.62l6.052-15.296c.81-2.192 1.572-2.668 3.812-2.668h1.525v2.858h-.477c-.858 0-1.382.238-1.715 1.096l-10.58 25.59c-1.286 3.096-3.763 5.098-7.004 5.098-3.382 0-5.288-2.383-5.288-2.383l1.572-2.43c-.047.048 1.526 1.858 3.622 1.858z"/></g><g fill="#00A099"><path d="M89.38 32.69v7.147h12.914v6.814H89.38v14.773h-8.767v-35.74h22.348v7.006H89.38zM124.833 41.266c-.143-.048-.905-.19-1.62-.19-3.764 0-6.147 2.143-7.148 3.62V61.42h-8.577V34.834h7.052v3.526c.143-.287 3.43-4.337 8.91-4.337 2.05 0 3.146.762 3.29.81l-1.907 6.433zM152.566 50.7h-17.583c0 1.86 1.668 5.433 6.814 5.433 3.574 0 6.338-1.62 6.814-1.858l2.526 5.05c-.334.335-4.67 2.955-10.007 2.955-9.96 0-13.772-7.243-13.772-13.914 0-8.148 5.29-14.248 13.056-14.248 8.005 0 12.246 5.623 12.246 14.2.002 1.048-.094 1.715-.094 2.383zm-12.008-10.816c-4.432 0-5.337 4.384-5.432 5.146h10.007c.047-1.048-.38-5.146-4.575-5.146zM182.11 50.7h-17.583c0 1.86 1.668 5.433 6.814 5.433 3.575 0 6.34-1.62 6.815-1.858l2.525 5.05c-.334.335-4.67 2.955-10.007 2.955-9.96 0-13.77-7.243-13.77-13.914 0-8.148 5.288-14.248 13.055-14.248 8.005 0 12.246 5.623 12.246 14.2 0 1.048-.094 1.715-.094 2.383zm-12.008-10.816c-4.432 0-5.337 4.384-5.432 5.146h10.007c.047-1.048-.382-5.146-4.575-5.146z"/></g></svg>