<svg xmlns="http://www.w3.org/2000/svg" width="211.46" height="48.737" viewBox="0 0 211.46 48.737"><g fill="#aaa"><path d="M40.934 10.07L39.897 7.2h-4.23l-1.036 2.87h-.602L37.432.728h.742l3.432 9.344h-.672zM37.782 1.36L35.877 6.64H39.7l-1.918-5.282zM48.38 10.197c-.897 0-1.486-.364-1.626-.462v3.306h-.574V3.39h.574v.532c.098-.084.826-.687 1.99-.687 1.708 0 2.884 1.33 2.884 3.348 0 2.13-1.316 3.614-3.25 3.614zm.307-6.443c-1.162 0-1.82.63-1.933.714v4.707c.098.056.714.49 1.667.49 1.584 0 2.606-1.26 2.606-3.124 0-1.624-.91-2.786-2.34-2.786zM56.485 3.81c-.112-.014-.267-.042-.574-.042-1.428 0-2.002 1.26-2.072 1.358v4.945h-.574V3.39h.574v1.022c.098-.14.73-1.205 2.1-1.205.506 0 .646.084.688.1l-.14.503zM60.026 10.226c-1.778 0-2.928-1.33-2.928-3.502 0-2.13 1.107-3.488 2.984-3.488 1.778 0 2.9 1.316 2.9 3.586 0 2.086-1.134 3.404-2.956 3.404zm.015-6.487c-1.442 0-2.34 1.19-2.34 2.97 0 1.807 1.01 2.997 2.34 2.997 1.485 0 2.34-1.148 2.34-2.94 0-1.81-1.01-3.028-2.34-3.028zM64.674 12.732c-.252.252-.7.49-1.246.49-.547 0-.84-.14-.883-.154l.14-.476c.112.042.31.126.658.126.49 0 .7-.112.938-.35.254-.253.323-.772.323-1.304V3.39h.574v7.578c0 .896-.125 1.386-.503 1.764zm.224-11.276c-.238 0-.435-.182-.435-.42s.196-.42.435-.42c.237 0 .42.182.42.42s-.182.42-.42.42zM72.32 6.766h-4.903c0 1.723.896 2.857 2.466 2.857 1.162 0 1.99-.574 1.99-.574l.278.475c-.068.07-1.007.673-2.31.673-1.892 0-3.026-1.373-3.026-3.418 0-2.186 1.163-3.544 2.998-3.544 1.43 0 2.535 1.106 2.535 3.11 0 .11-.013.265-.027.42zM69.813 3.74c-1.22 0-2.283.937-2.367 2.493h4.314c0-1.19-.59-2.494-1.947-2.494zM76.687 10.197c-1.765 0-3.082-1.205-3.082-3.306 0-2.143 1.29-3.655 3.265-3.655 1.162 0 1.85.546 1.92.616l-.296.436c-.11-.07-.658-.49-1.666-.49-1.598 0-2.62 1.232-2.62 2.97 0 1.765 1.064 2.857 2.508 2.857 1.106 0 1.793-.463 1.89-.52l.268.463c-.143.113-.997.63-2.187.63zM82.748 10.21c-.616 0-.995-.153-1.275-.433-.406-.406-.35-1.135-.35-1.793V3.88H79.96v-.49h1.163V1.484h.574V3.39h2.2v.49h-2.2v4.076c0 .994-.057 1.723 1.106 1.723.52 0 .868-.17.98-.21l.183.46c-.126.057-.49.28-1.218.28zM91.077 10.197c-1.135 0-1.975-.378-2.1-.42V0h.573v3.922c.07-.057.826-.687 1.933-.687 1.85 0 2.94 1.358 2.94 3.404.002 2.1-1.385 3.557-3.346 3.557zm.393-6.43c-1.148 0-1.85.66-1.92.716V9.4c.1.027.646.266 1.57.266 1.652 0 2.703-1.205 2.703-2.998 0-1.682-.883-2.9-2.353-2.9zM98.596 10.66c-.294.798-.603 1.484-.994 1.876-.547.547-1.19.687-1.695.687-.616 0-1.05-.168-1.106-.196l.17-.504c.097.028.392.154.924.154.448 0 .91-.154 1.22-.463.46-.462.74-1.288 1.007-1.946L95.375 3.39h.658l2.41 6.08 2.156-6.08h.63l-2.632 7.27z"/></g><path fill="#00A099" d="M11.713 39.258c-.394 0-.747-.207-.933-.54l-4.853-8.4c-.083-.165-.145-.33-.145-.518-.332.04-.622.228-.788.52L.14 38.72c-.186.33-.186.746 0 1.077l4.854 8.4c.187.332.54.54.933.54h9.706c.394 0 .747-.208.933-.54l4.853-8.4c.123-.207.144-.436.123-.664-.145.083-.31.124-.477.124h-9.353z"/><path fill="#C6C6C5" d="M10.78 20.84c.187-.33.54-.538.933-.538h9.354c.166 0 .332.04.477.124.02-.228-.02-.456-.124-.664l-4.853-8.4c-.187-.332-.54-.54-.933-.54H5.947c-.394 0-.747.208-.933.54l-4.853 8.4c-.186.332-.186.747 0 1.078l4.854 8.4c.166.29.456.477.788.52 0-.188.04-.354.145-.52l4.833-8.4z"/><path fill="#364D55" d="M26.853 29.24L22 20.84c-.104-.186-.27-.33-.456-.414-.02.145-.062.29-.124.415l-4.853 8.4c-.187.333-.54.54-.933.54.394 0 .747.207.933.54l4.853 8.4c.083.123.104.27.124.414.187-.083.353-.228.456-.415l4.853-8.4c.187-.332.187-.747 0-1.08z"/><path fill="#002628" d="M16.566 30.32c-.187-.333-.54-.54-.933-.54H5.947c-.062 0-.104.02-.145.02 0 .188.04.354.145.52l4.853 8.4c.187.332.54.54.933.54h9.333c.166 0 .332-.042.477-.125-.02-.145-.062-.29-.124-.415l-4.854-8.4z"/><path fill="#2A3C42" d="M15.633 29.78c.394 0 .747-.207.933-.54l4.853-8.4c.082-.123.103-.27.123-.414-.145-.083-.31-.124-.477-.124h-9.354c-.394 0-.747.207-.933.54l-4.854 8.4c-.083.165-.145.33-.145.518.042 0 .105.02.146.02h9.707z"/><g fill="#364D55"><path d="M82.768 24.243c0-.31-.166-.456-.456-.456H81.4V22.48h1.576c.913 0 1.286.373 1.286 1.286v8.42c0 2.468 1.576 4.024 4.003 4.024s4.024-1.556 4.024-4.065v-8.38c0-.912.372-1.285 1.285-1.285h1.576v1.307h-.912c-.29 0-.456.145-.456.456v8.006c0 3.214-2.198 5.35-5.475 5.35-3.277 0-5.517-2.136-5.517-5.35v-8.007h-.022zM97.7 24.243c0-.31-.165-.456-.455-.456h-.913V22.48h1.576c.913 0 1.286.373 1.286 1.286v5.164h1.784c.56 0 .996-.104 1.244-.54l3.61-5.93h1.7l-3.837 6.242c-.373.622-.767.83-.767.83v.04s.353.125.726.85l2.593 5.124c.207.436.54.477 1.078.477h.415v1.307h-.788c-1.203 0-1.576-.124-2.053-1.12l-2.718-5.434c-.228-.477-.726-.56-1.348-.56h-1.638v7.135h-1.473V24.244H97.7zM116.14 22.21c3.442 0 5.205 1.825 5.205 1.825l-.87 1.1s-1.66-1.536-4.315-1.536c-3.34 0-5.91 2.695-5.91 6.262 0 3.67 2.53 6.326 5.89 6.326 2.944 0 4.707-2.178 4.707-2.178v-1.846c0-.31-.166-.456-.456-.456h-.912V30.4h1.473c.914 0 1.287.374 1.287 1.287v5.662h-1.348v-1.12c0-.312.02-.644.02-.644h-.04s-1.743 2.012-4.875 2.012c-4.065 0-7.28-3.256-7.28-7.736-.022-4.27 3.214-7.652 7.424-7.652zM129.205 26.44c2.945 0 4.46 2.262 4.46 4.916 0 .25-.042.726-.042.726h-8.172c.042 2.696 1.93 4.23 4.128 4.23 1.95 0 3.194-1.306 3.194-1.306l.705 1.078s-1.556 1.535-3.96 1.535c-3.153 0-5.58-2.282-5.58-5.58.02-3.504 2.406-5.6 5.268-5.6zm2.987 4.48c-.083-2.197-1.43-3.276-3.007-3.276-1.763 0-3.298 1.14-3.67 3.277h6.677zM136.547 28.41c0-.29-.166-.455-.456-.455h-.89V26.71h1.472c.892 0 1.286.374 1.286 1.183v.477c0 .415-.04.767-.04.767h.04c.373-.975 1.742-2.696 4.23-2.696 2.656 0 3.59 1.515 3.59 4.128v5.06c0 .312.165.457.455.457h.892v1.244h-1.514c-.912 0-1.285-.374-1.285-1.287V30.94c0-1.68-.25-3.15-2.302-3.15-1.825 0-3.38 1.243-3.878 3.006-.124.436-.166.933-.166 1.43v5.124h-1.432v-8.94zM153.264 26.44c2.945 0 4.46 2.262 4.46 4.916 0 .25-.042.726-.042.726h-8.172c.04 2.696 1.93 4.23 4.127 4.23 1.95 0 3.194-1.306 3.194-1.306l.706 1.078s-1.555 1.535-3.96 1.535c-3.153 0-5.58-2.282-5.58-5.58.02-3.504 2.406-5.6 5.268-5.6zm2.986 4.48c-.083-2.197-1.43-3.276-3.007-3.276-1.763 0-3.298 1.14-3.67 3.277h6.677zM165.708 30.776h.6v-.124c0-2.22-.808-3.007-2.757-3.007-.538 0-2.073.145-2.073.933v.684h-1.37v-1.016c0-1.473 2.552-1.804 3.465-1.804 3.36 0 4.17 1.804 4.17 4.086v5.102c0 .31.165.456.455.456h.892v1.244h-1.453c-.913 0-1.265-.394-1.265-1.265 0-.456.02-.788.02-.788h-.04c.02 0-.87 2.302-3.547 2.302-1.784 0-3.63-1.038-3.63-3.153.02-3.527 4.708-3.65 6.533-3.65zm-2.655 5.6c2.033 0 3.256-2.115 3.256-3.96v-.478h-.623c-1.68 0-5.02.04-5.02 2.427 0 .994.79 2.01 2.386 2.01zM171.805 24.16c0-.29-.166-.456-.456-.456h-.893V22.46h1.514c.914 0 1.287.373 1.287 1.286V35.63c0 .31.166.456.456.456h.892v1.244h-1.514c-.912 0-1.285-.373-1.285-1.286V24.16zM181.615 26.44c3.11 0 5.64 2.365 5.64 5.54 0 3.214-2.53 5.64-5.62 5.64-3.11 0-5.64-2.406-5.64-5.64.02-3.175 2.53-5.54 5.62-5.54zm.02 9.873c2.262 0 4.128-1.867 4.128-4.335 0-2.406-1.867-4.21-4.127-4.21-2.28 0-4.148 1.804-4.148 4.21 0 2.47 1.867 4.335 4.148 4.335zM193.188 26.44c2.862 0 3.547 1.826 3.547 1.826h.04s0-.187 0-.394c0-.767.333-1.16 1.204-1.16h1.472v1.243h-.87c-.29 0-.457.145-.457.456v8.69c0 3.382-2.51 4.71-5.123 4.71-1.203 0-2.427-.312-3.464-.85l.56-1.204s1.307.747 2.883.747c2.075 0 3.734-.975 3.734-3.34v-.933c0-.394.02-.767.02-.767h-.04c-.643 1.16-1.7 1.846-3.34 1.846-2.86 0-4.748-2.262-4.748-5.456s1.72-5.413 4.582-5.413zm3.505 5.373c0-3.11-1.473-4.065-3.36-4.065-2.074 0-3.277 1.514-3.277 4.044 0 2.55 1.37 4.19 3.464 4.19 1.7 0 3.173-1.037 3.173-4.17zM202.812 40.503c.933 0 1.576-.767 1.97-1.742l.643-1.45-3.775-8.878c-.166-.373-.353-.477-.747-.477h-.207V26.71h.664c.954 0 1.244.208 1.638 1.162l2.738 6.658c.207.54.373 1.14.373 1.14h.04s.145-.62.353-1.14l2.634-6.658c.353-.954.684-1.16 1.66-1.16h.663v1.243h-.207c-.373 0-.6.104-.747.477l-4.604 11.137c-.56 1.347-1.638 2.218-3.05 2.218-1.472 0-2.3-1.037-2.3-1.037l.683-1.057c-.02.022.664.81 1.577.81z"/></g><g fill="#00A099"><path d="M38.903 25.05v3.112h5.62v2.966h-5.62v6.43h-3.816V22.002h9.727v3.05h-5.91zM54.334 28.785c-.062-.02-.394-.083-.705-.083-1.64 0-2.676.933-3.112 1.576v7.28h-3.733V25.985h3.07v1.535c.062-.124 1.493-1.887 3.878-1.887.892 0 1.37.332 1.43.353l-.83 2.8zM66.404 32.89H58.75c0 .81.727 2.365 2.967 2.365 1.556 0 2.758-.705 2.966-.81l1.1 2.2c-.146.144-2.034 1.285-4.356 1.285-4.335 0-5.994-3.152-5.994-6.056 0-3.547 2.302-6.2 5.683-6.2 3.484 0 5.33 2.446 5.33 6.18 0 .457-.042.747-.042 1.037zm-5.226-4.707c-1.93 0-2.323 1.908-2.364 2.24h4.355c.02-.456-.167-2.24-1.992-2.24zM79.263 32.89H71.61c0 .81.726 2.365 2.966 2.365 1.556 0 2.758-.705 2.966-.81l1.1 2.2c-.146.144-2.034 1.285-4.356 1.285-4.335 0-5.994-3.152-5.994-6.056 0-3.547 2.302-6.2 5.683-6.2 3.484 0 5.33 2.446 5.33 6.18 0 .457-.042.747-.042 1.037zm-5.226-4.707c-1.93 0-2.323 1.908-2.364 2.24h4.355c.02-.456-.166-2.24-1.99-2.24z"/></g></svg>