<svg xmlns="http://www.w3.org/2000/svg" width="46" height="46" viewBox="0 0 46 46"><g fill="#00A099"><path d="M0 0v46h46V0H0zm26.875 8.01h1.864v7.595c0 .44 0 .667.022.728.04.29.186.438.438.438.374 0 .766-.29 1.182-.874V8.01h1.87v10.317h-1.87V17.2c-.745.855-1.455 1.27-2.136 1.27-.603 0-1.018-.244-1.204-.768-.103-.312-.167-.806-.167-1.534v-8.16zM19.81 11.37c0-1.103.19-1.908.587-2.43.517-.706 1.246-1.06 2.177-1.06.937 0 1.663.354 2.18 1.06.393.52.582 1.327.582 2.43v3.614c0 1.097-.19 1.91-.58 2.428-.52.703-1.246 1.057-2.182 1.057-.93 0-1.66-.353-2.177-1.056-.398-.518-.586-1.33-.586-2.428v-3.614zM14.813 4.48l1.47 5.438 1.415-5.438h2.097L17.3 12.72v5.607h-2.074V12.72c-.187-.995-.603-2.45-1.267-4.382-.438-1.284-.894-2.575-1.33-3.857h2.182zm22.96 33.608c-.375 1.627-1.706 2.828-3.31 3.008-3.797.424-7.64.426-11.464.424-3.826.002-7.668 0-11.464-.424-1.604-.18-2.935-1.38-3.31-3.008-.532-2.318-.532-4.85-.532-7.237 0-2.39.005-4.916.54-7.237.373-1.627 1.704-2.828 3.308-3.007 3.797-.425 7.64-.426 11.465-.425 3.824 0 7.668 0 11.464.426 1.603.18 2.934 1.38 3.308 3.007.533 2.32.53 4.85.53 7.238 0 2.387-.002 4.92-.537 7.238zM22.574 16.77c.603 0 .89-.478.89-1.432v-4.34c0-.956-.288-1.43-.89-1.43-.604 0-.893.474-.893 1.43v4.34c0 .955.29 1.432.894 1.432zM33.27 27.138c-.943 0-1.682.347-2.215 1.047-.394.516-.572 1.314-.572 2.406v3.578c0 1.083.2 1.89.594 2.4.534.698 1.27 1.047 2.24 1.047.966 0 1.724-.366 2.237-1.107.223-.327.37-.7.43-1.108.018-.186.042-.598.042-1.192v-.27h-1.89c0 .743-.02 1.15-.038 1.252-.106.495-.373.743-.828.743-.635 0-.944-.47-.944-1.417v-1.81h3.7v-2.114c0-1.092-.187-1.89-.574-2.406-.516-.7-1.252-1.048-2.18-1.048zm.907 4.027h-1.85v-.944c0-.943.31-1.416.93-1.416.61 0 .92.473.92 1.417v.945zM27.378 27.138c-.68 0-1.313.373-1.912 1.107V23.77h-1.85v13.703h1.85v-.99c.62.765 1.253 1.13 1.912 1.13.738 0 1.232-.387 1.48-1.147.122-.432.185-1.113.185-2.057V30.34c0-.966-.063-1.642-.186-2.053-.247-.764-.74-1.152-1.48-1.152zm-.184 7.418c0 .922-.27 1.376-.805 1.376-.305 0-.614-.146-.924-.454v-6.225c.31-.304.62-.45.923-.45.532 0 .804.473.804 1.394v4.36zM20.163 35.067c-.41.578-.8.865-1.17.865-.248 0-.388-.146-.433-.432-.017-.06-.017-.287-.017-.72v-7.517h-1.85v8.074c0 .722.063 1.208.165 1.518.184.518.595.76 1.192.76.68 0 1.38-.412 2.114-1.254v1.114h1.852v-10.21h-1.852v7.803zM9.973 25.7h2.177v11.774h2.057V25.7h2.218v-1.93H9.973z"/></g></svg>