<svg xmlns="http://www.w3.org/2000/svg" width="274.181" height="86.794" viewBox="0 0 274.181 86.794"><path fill="#00A099" d="M26.8 65.108c-.902 0-1.708-.475-2.135-1.234L13.56 44.654c-.19-.38-.332-.758-.332-1.185-.76.094-1.424.52-1.803 1.185L.32 63.875c-.427.758-.427 1.707 0 2.467l11.104 19.22c.427.758 1.234 1.233 2.135 1.233h22.208c.902 0 1.708-.475 2.135-1.234l11.104-19.218c.285-.475.332-.997.285-1.52-.332.19-.712.286-1.09.286H26.8z"/><path fill="#F29100" d="M24.665 22.92c.427-.758 1.234-1.233 2.135-1.233h21.402c.38 0 .76.095 1.09.285.048-.522-.046-1.044-.284-1.52L37.904 1.235C37.477.474 36.67 0 35.77 0H13.607c-.902 0-1.708.475-2.135 1.234L.368 20.454c-.427.758-.427 1.707 0 2.467l11.104 19.22c.38.664 1.044 1.09 1.803 1.186 0-.427.095-.807.332-1.186l11.058-19.22z"/><path fill="#364D55" d="M61.442 42.187l-11.105-19.22c-.237-.426-.617-.758-1.044-.948-.047.33-.142.663-.285.948l-11.104 19.22c-.427.758-1.234 1.233-2.135 1.233.9 0 1.707.476 2.134 1.235l11.104 19.22c.19.284.237.616.285.948.427-.19.807-.522 1.044-.95L61.44 44.656c.43-.76.43-1.71.002-2.468z"/><path fill="#003033" d="M37.904 44.655c-.427-.76-1.234-1.234-2.135-1.234H13.607c-.142 0-.237.048-.332.048 0 .427.095.807.332 1.186l11.104 19.22c.427.758 1.234 1.233 2.135 1.233h21.355c.38 0 .76-.095 1.09-.285-.046-.332-.14-.664-.284-.95L37.904 44.656z"/><path fill="#332C00" d="M35.77 43.42c.9 0 1.707-.474 2.134-1.233l11.104-19.22c.19-.284.237-.616.285-.948-.332-.19-.712-.286-1.09-.286H26.8c-.902 0-1.708.475-2.135 1.234L13.56 42.188c-.19.38-.332.758-.332 1.185.095 0 .237.047.332.047h22.21z"/><path fill="#364D55" d="M205.23 26.053c4.84 0 12.764 2.088 12.764 7.213v2.8h-3.227v-1.898c0-3.18-5.505-4.935-9.443-4.935-7.545 0-13.382 5.932-13.382 14.14 0 8.163 5.79 14.664 13.525 14.664 7.023 0 11.152-4.793 11.152-4.793l1.945 2.468s-4.698 5.505-13.145 5.505c-9.965 0-16.99-7.925-16.99-17.89 0-9.777 7.213-17.274 16.8-17.274zM233.18 35.733c6.74 0 10.203 5.173 10.203 11.247 0 .57-.095 1.66-.095 1.66H224.59c.096 6.17 4.414 9.682 9.444 9.682 4.46 0 7.308-2.99 7.308-2.99l1.613 2.468s-3.56 3.512-9.064 3.512c-7.212 0-12.764-5.22-12.764-12.765.048-8.02 5.505-12.814 12.054-12.814zm6.834 10.298c-.19-5.03-3.274-7.497-6.88-7.497-4.035 0-7.546 2.61-8.4 7.498h15.28zM249.98 40.242c0-.664-.38-1.044-1.045-1.044h-2.04V36.35h3.368c2.04 0 2.942.854 2.942 2.705v1.09c0 .95-.095 1.757-.095 1.757h.095c.854-2.23 3.986-6.17 9.68-6.17 6.075 0 8.21 3.465 8.21 9.444v11.58c0 .71.38 1.043 1.045 1.043h2.04v2.846h-3.463c-2.088 0-2.942-.854-2.942-2.942V46.03c0-3.843-.57-7.212-5.267-7.212-4.176 0-7.735 2.847-8.874 6.88-.285.998-.38 2.136-.38 3.275v11.674h-3.274V40.242z"/><g fill="#F29100"><path d="M89.013 32.6v7.12h12.86v6.785h-12.86v14.71H80.28v-35.59h22.257V32.6H89.013zM124.32 41.143c-.143-.047-.903-.19-1.614-.19-3.75 0-6.122 2.135-7.118 3.607v16.657h-8.542v-26.48h7.023v3.512c.14-.286 3.416-4.32 8.873-4.32 2.04 0 3.132.76 3.274.808l-1.898 6.405zM151.938 50.54h-17.51c0 1.85 1.66 5.41 6.785 5.41 3.56 0 6.31-1.614 6.786-1.852l2.514 5.03c-.332.332-4.65 2.942-9.965 2.942-9.92 0-13.715-7.213-13.715-13.857 0-8.115 5.267-14.19 13.003-14.19 7.972 0 12.196 5.6 12.196 14.142 0 1.045-.096 1.71-.096 2.374zm-11.96-10.773c-4.412 0-5.314 4.366-5.41 5.125h9.966c.048-1.044-.38-5.125-4.555-5.125zM181.36 50.54h-17.51c0 1.85 1.66 5.41 6.785 5.41 3.56 0 6.31-1.614 6.786-1.852l2.516 5.03c-.332.332-4.65 2.942-9.965 2.942-9.917 0-13.713-7.213-13.713-13.857 0-8.115 5.267-14.19 13.003-14.19 7.972 0 12.196 5.6 12.196 14.142 0 1.045-.096 1.71-.096 2.374zM169.4 39.766c-4.412 0-5.314 4.366-5.41 5.125h9.966c.048-1.044-.38-5.125-4.555-5.125z"/></g></svg>