<svg xmlns="http://www.w3.org/2000/svg" width="287.144" height="87.153" viewBox="0 0 287.144 87.153"><path fill="#00A099" d="M26.925 65.412c-.906 0-1.716-.477-2.145-1.24L13.624 44.816c-.19-.38-.334-.763-.334-1.192-.763.095-1.43.524-1.812 1.192L.322 64.126c-.43.762-.43 1.715 0 2.478l11.156 19.31c.43.762 1.24 1.24 2.145 1.24h22.313c.906 0 1.716-.478 2.145-1.24l11.157-19.31c.286-.477.334-1 .286-1.526-.334.19-.715.286-1.097.286h-21.5v.048z"/><path fill="#A2195B" d="M24.78 23.028c.43-.763 1.24-1.24 2.145-1.24h21.502c.38 0 .763.095 1.097.286.048-.524-.048-1.05-.286-1.526L38.082 1.24C37.652.477 36.842 0 35.936 0H13.67c-.905 0-1.715.477-2.144 1.24L.37 20.55c-.43.762-.43 1.715 0 2.478l11.155 19.31c.38.666 1.05 1.096 1.812 1.19 0-.428.095-.81.334-1.19l11.11-19.31z"/><path fill="#364D55" d="M61.73 42.337l-11.157-19.31c-.238-.428-.62-.762-1.05-.953-.047.334-.142.667-.285.954l-11.156 19.31c-.43.762-1.24 1.24-2.145 1.24.906 0 1.716.476 2.145 1.24l11.156 19.308c.19.286.238.62.286.954.43-.19.81-.524 1.05-.954l11.155-19.31c.428-.763.428-1.716 0-2.48z"/><path fill="#003033" d="M38.082 44.816c-.43-.763-1.24-1.24-2.145-1.24H13.67c-.142 0-.237.048-.333.048 0 .43.095.81.334 1.192l11.157 19.31c.43.762 1.24 1.24 2.145 1.24h21.454c.38 0 .763-.096 1.097-.287-.048-.335-.143-.668-.286-.955l-11.155-19.31z"/><path fill="#22081E" d="M35.936 43.576c.906 0 1.716-.477 2.145-1.24l11.157-19.31c.19-.285.238-.62.286-.953-.334-.19-.715-.286-1.097-.286h-21.5c-.907 0-1.717.477-2.146 1.24l-11.156 19.31c-.19.38-.334.763-.334 1.192.095 0 .238.047.334.047h22.312z"/><path fill="#364D55" d="M189.646 29.75H186.5v-3.004h14.493c5.34 0 9.25 3.242 9.25 8.63 0 3.765-1.908 6.245-4.387 7.437v.095c3.528.954 5.77 4.34 5.77 8.486 0 6.103-4.483 9.583-10.204 9.583h-8.82c-2.098 0-2.956-.858-2.956-2.956V29.75zm11.3 11.824c3.48 0 5.816-2.432 5.816-6.007 0-3.528-2.24-5.864-5.864-5.864h-7.867v11.824h7.915v.047zm-6.866 16.4h7.295c4.148 0 6.675-2.574 6.675-6.674s-2.718-6.77-6.722-6.77h-8.343v12.348c.046.715.427 1.097 1.095 1.097zM214.104 57.975h1.812c.667 0 1-.334 1.05-1.05l2.383-30.13h3.48l9.058 19.928c.81 1.764 1.716 4.053 1.716 4.053h.095s.857-2.288 1.668-4.053l9.06-19.93h3.48l2.383 30.133c.05.715.382 1.05 1.05 1.05h1.86v3.003h-3.29c-2.1 0-2.814-.86-2.957-2.957l-1.62-20.787c-.144-1.86-.144-4.768-.144-4.768h-.096s-.906 3.004-1.764 4.768l-8.153 17.402h-3.05l-8.106-17.402c-.762-1.716-1.81-4.863-1.81-4.863h-.096s0 3.004-.143 4.863l-1.62 20.787c-.143 2.098-.858 2.956-2.956 2.956h-3.242v-3.005h-.048zM259.397 29.75h-3.147v-3.004h13.73c10.3 0 17.165 6.293 17.165 17.068 0 10.918-6.865 17.116-17.164 17.116h-7.58c-2.098 0-2.956-.858-2.956-2.956V29.75h-.047zm4.48 28.225h5.77c8.44 0 13.97-4.958 13.97-14.112 0-9.106-5.58-14.065-13.97-14.065h-6.818v27.128c-.048.667.38 1.05 1.048 1.05z"/><g fill="#A2195B"><path d="M89.43 32.658v7.15h12.92v6.82H89.43v14.78h-8.773V25.65h22.36v7.008H89.43zM124.9 41.24c-.142-.048-.905-.19-1.62-.19-3.766 0-6.15 2.144-7.15 3.622v16.734h-8.583V34.804h7.056v3.528c.143-.286 3.433-4.34 8.916-4.34 2.05 0 3.146.764 3.29.812l-1.91 6.436zM152.65 50.68h-17.594c0 1.86 1.67 5.435 6.818 5.435 3.576 0 6.34-1.62 6.818-1.86l2.527 5.055c-.335.334-4.673 2.956-10.013 2.956-9.964 0-13.78-7.247-13.78-13.922 0-8.153 5.293-14.255 13.064-14.255 8.01 0 12.254 5.625 12.254 14.207 0 1.048-.095 1.716-.095 2.383zm-12.016-10.822c-4.434 0-5.34 4.386-5.435 5.15h10.01c.05-1.05-.38-5.15-4.576-5.15zM182.208 50.68h-17.593c0 1.86 1.67 5.435 6.818 5.435 3.576 0 6.34-1.62 6.818-1.86l2.528 5.055c-.334.334-4.672 2.956-10.012 2.956-9.964 0-13.78-7.247-13.78-13.922 0-8.153 5.293-14.255 13.064-14.255 8.01 0 12.253 5.625 12.253 14.207 0 1.048-.095 1.716-.095 2.383zm-12.014-10.822c-4.434 0-5.34 4.386-5.435 5.15h10.01c.048-1.05-.38-5.15-4.576-5.15z"/></g></svg>