<svg xmlns="http://www.w3.org/2000/svg" width="46" height="46" viewBox="0 0 46 46"><path fill="#A1185A" d="M0 0v46h46V0H0zm28.065 38.564c-.81.156-1.1-.34-1.1-.767 0-.525.02-2.25.02-4.387 0-1.492-.513-2.466-1.086-2.96 3.56-.396 7.3-1.748 7.3-7.892 0-1.743-.62-3.172-1.643-4.29.165-.405.713-2.03-.157-4.232 0 0-1.34-.43-4.396 1.64-1.275-.355-2.644-.532-4.002-.538-1.358.006-2.728.184-4.003.54-3.057-2.07-4.398-1.642-4.398-1.642-.87 2.202-.322 3.827-.158 4.233-1.02 1.116-1.645 2.545-1.645 4.288 0 6.126 3.732 7.502 7.283 7.904-.457.4-.87 1.102-1.014 2.137-.913.407-3.23 1.116-4.655-1.33 0 0-.844-1.533-2.45-1.647 0 0-1.562-.02-.11.974 0 0 1.048.49 1.775 2.337 0 0 .938 3.11 5.385 2.143.01 1.335.022 2.34.022 2.72 0 .422-.292.917-1.092.772C11.59 36.452 7.01 30.46 7.01 23.397c0-8.835 7.16-15.993 15.99-15.993 8.833 0 15.99 7.158 15.99 15.993 0 7.06-4.577 13.05-10.925 15.166z"/></svg>