<svg xmlns="http://www.w3.org/2000/svg" width="46" height="46" viewBox="0 0 46 46"><g fill="#7F1652"><path d="M0 0v46h46V0H0zm23.24 7.98c.344.357.682.8 1.013 1.32.317.49.598 1.07.844 1.744.202.67.302 1.454.302 2.35-.027 1.64-.39 2.95-1.088 3.936-.34.477-.703.917-1.085 1.32-.424.4-.874.812-1.35 1.23-.275.283-.527.604-.76.962-.272.373-.41.804-.41 1.296 0 .48.14.874.42 1.186.238.3.47.56.695.784l1.556 1.274c.966.792 1.814 1.66 2.542 2.616.686.97 1.043 2.237 1.074 3.802 0 2.222-.982 4.19-2.944 5.907-2.032 1.775-4.97 2.69-8.806 2.75-3.212-.03-5.61-.714-7.194-2.052-1.597-1.252-2.397-2.747-2.397-4.488 0-.847.26-1.794.78-2.836.504-1.04 1.418-1.955 2.74-2.744 1.485-.847 3.045-1.414 4.68-1.697 1.62-.238 2.963-.373 4.033-.402-.33-.435-.625-.9-.884-1.394-.302-.48-.452-1.058-.452-1.73 0-.406.057-.745.17-1.014.102-.286.196-.546.28-.787-.52.06-1.012.09-1.47.09-2.443-.03-4.303-.8-5.583-2.304-1.34-1.404-2.01-3.036-2.01-4.9 0-2.252.947-4.293 2.847-6.128C12.087 7 13.442 6.3 14.846 5.97c1.39-.283 2.695-.425 3.91-.425h9.17L25.097 7.2h-2.828c.288.176.61.436.97.78zm17.108 4.903h-4.81v4.81h-2.332v-4.81h-4.81v-2.33h4.81V5.738h2.33v4.81h4.812v2.333zM18.103 27.484c-.233-.03-.832 0-1.796.09-.948.134-1.92.35-2.913.648-.234.09-.56.225-.984.404-.424.194-.854.47-1.293.828-.424.373-.78.835-1.072 1.387-.337.583-.503 1.284-.503 2.104 0 1.61.728 2.938 2.188 3.982 1.388 1.044 3.285 1.58 5.695 1.61 2.16-.03 3.812-.507 4.95-1.43 1.11-.912 1.664-2.082 1.664-3.514 0-1.164-.38-2.177-1.14-3.042-.803-.82-2.058-1.827-3.766-3.02-.294-.032-.637-.046-1.03-.046zM18.41 7.89c-.723-.52-1.553-.797-2.492-.828-1.243.03-2.275.53-3.1 1.502-.695 1.016-1.027 2.152-.995 3.407 0 1.66.484 3.383 1.454 5.177.47.836 1.075 1.545 1.82 2.128.743.584 1.59.875 2.547.875 1.207-.045 2.213-.48 3.017-1.302.39-.582.64-1.18.75-1.793.066-.614.1-1.127.1-1.547 0-1.807-.462-3.63-1.386-5.468-.434-.88-1.005-1.597-1.713-2.15z"/></g></svg>