<svg xmlns="http://www.w3.org/2000/svg" width="46" height="46" viewBox="0 0 46 46"><path fill="#7F1652" d="M0 0v46h46V0H0zm38.208 15.2c.015.337.023.676.023 1.016 0 10.37-7.89 22.325-22.324 22.325-4.43 0-8.556-1.298-12.028-3.524.614.072 1.238.11 1.872.11 3.676 0 7.06-1.254 9.745-3.36-3.434-.062-6.33-2.33-7.33-5.448.48.092.97.14 1.476.14.717 0 1.41-.095 2.068-.274-3.59-.72-6.294-3.892-6.294-7.694 0-.033 0-.066 0-.1 1.06.59 2.27.942 3.555.982-2.106-1.407-3.492-3.81-3.492-6.53 0-1.44.387-2.787 1.062-3.946 3.87 4.747 9.652 7.87 16.173 8.198-.134-.574-.203-1.173-.203-1.788 0-4.333 3.513-7.846 7.847-7.846 2.257 0 4.296.953 5.727 2.478 1.787-.352 3.467-1.005 4.983-1.904-.586 1.832-1.83 3.37-3.45 4.34 1.587-.19 3.1-.61 4.507-1.235-1.053 1.572-2.384 2.954-3.916 4.06z"/></svg>