<?xml version="1.0" standalone="no"?>
<!DOCTYPE svg PUBLIC "-//W3C//DTD SVG 20010904//EN"
 "http://www.w3.org/TR/2001/REC-SVG-20010904/DTD/svg10.dtd">
<svg version="1.0" xmlns="http://www.w3.org/2000/svg"
 width="700.000000pt" height="700.000000pt" viewBox="0 0 700.000000 700.000000"
 preserveAspectRatio="xMidYMid meet">
<metadata>
Created by potrace 1.11, written by Peter Selinger 2001-2013
</metadata>
<g transform="translate(0.000000,700.000000) scale(0.100000,-0.100000)"
fill="#000000" stroke="none">
<path d="M2025 6981 c-22 -10 -50 -29 -61 -42 -18 -21 -224 -365 -224 -375 0
-2 -25 -44 -55 -95 -30 -50 -55 -93 -55 -95 0 -3 -11 -21 -23 -42 -24 -37
-182 -310 -352 -607 -50 -88 -110 -191 -133 -229 -23 -37 -42 -70 -42 -72 0
-3 -11 -22 -24 -43 -33 -51 -49 -115 -41 -161 4 -21 46 -108 94 -192 145 -252
350 -607 402 -696 27 -45 49 -85 49 -88 0 -3 8 -18 19 -32 10 -15 29 -47 43
-72 14 -25 55 -96 92 -159 36 -62 66 -116 66 -119 0 -3 6 -13 14 -21 7 -9 28
-43 46 -76 101 -187 133 -228 196 -250 21 -7 40 -19 42 -26 3 -10 1 -11 -5 -2
-6 9 -18 7 -48 -6 -56 -25 -82 -55 -145 -165 -30 -53 -59 -105 -65 -114 -35
-62 -168 -290 -176 -302 -5 -8 -25 -43 -44 -77 -19 -35 -51 -91 -71 -125 -20
-35 -45 -79 -56 -98 -11 -19 -78 -134 -148 -255 -307 -528 -303 -522 -308
-579 -2 -32 2 -65 10 -86 8 -19 80 -147 160 -285 80 -137 156 -270 170 -295
14 -25 106 -184 205 -355 99 -170 226 -391 283 -489 107 -185 115 -198 165
-231 29 -20 49 -20 975 -23 1036 -3 995 -5 1053 56 14 15 49 67 77 117 29 50
60 104 70 120 40 68 94 163 117 205 14 25 40 70 58 100 52 86 256 441 276 478
9 18 22 38 27 45 5 7 22 37 39 67 16 30 41 73 55 95 13 22 28 47 31 55 4 8 15
29 26 45 10 17 27 46 38 65 11 19 46 80 77 134 42 72 58 112 61 143 2 33 8 48
26 61 41 28 25 3 276 437 83 143 176 305 208 360 32 55 83 143 113 195 62 108
56 97 187 325 193 334 188 324 193 381 4 47 0 63 -32 126 -21 40 -45 87 -55
103 -10 17 -135 233 -278 480 -143 248 -299 517 -347 598 -47 82 -86 153 -86
158 0 5 -4 9 -10 9 -5 0 -10 6 -10 13 0 6 -17 39 -38 72 -20 33 -44 73 -52 88
-8 16 -30 43 -50 61 -28 26 -39 45 -48 87 -9 46 -29 86 -112 229 -80 138 -129
223 -245 425 -76 132 -188 326 -248 430 -61 105 -118 204 -127 220 -118 206
-196 334 -213 353 -12 13 -39 32 -59 43 -35 18 -74 19 -975 19 -890 -1 -940
-1 -978 -19z m919 -5027 c3 -8 2 -12 -4 -9 -6 3 -10 10 -10 16 0 14 7 11 14
-7z m40 -70 c3 -8 2 -12 -4 -9 -6 3 -10 10 -10 16 0 14 7 11 14 -7z m56 -79
c13 -14 21 -25 18 -25 -2 0 -15 11 -28 25 -13 14 -21 25 -18 25 2 0 15 -11 28
-25z"/>
</g>
</svg>
