<svg baseProfile="tiny" xmlns="http://www.w3.org/2000/svg" width="290" height="87" viewBox="0 0 290 87"><path fill="#00A099" d="M29.1 64.3c-.9 0-1.7-.5-2.1-1.2L15.9 43.8c-.2-.4-.3-.8-.3-1.2-.8.1-1.4.5-1.8 1.2L2.6 63.1c-.4.8-.4 1.7 0 2.5l11.1 19.3c.4.8 1.2 1.2 2.1 1.2h22.3c.9 0 1.7-.5 2.1-1.2l11.1-19.3c.3-.5.3-1 .3-1.5-.3.2-.7.3-1.1.3l-21.4-.1z"/><path fill="#A2195B" d="M27 22c.4-.8 1.2-1.2 2.1-1.2h21.5c.4 0 .8.1 1.1.3 0-.5 0-1-.3-1.5L40.3.3C39.9-.5 39-1 38.1-1H15.9c-.9 0-1.7.5-2.1 1.2L2.6 19.5c-.4.8-.4 1.7 0 2.5l11.1 19.3c.4.7 1 1.1 1.8 1.2 0-.4.1-.8.3-1.2L27 22z"/><path fill="#364D55" d="M63.9 41.3L52.8 22c-.2-.4-.6-.8-1-1 0 .3-.1.7-.3 1L40.3 41.3c-.4.8-1.2 1.2-2.1 1.2.9 0 1.7.5 2.1 1.2L51.4 63c.2.3.2.6.3 1 .4-.2.8-.5 1-1l11.1-19.3c.5-.7.5-1.6.1-2.4z"/><path fill="#003033" d="M40.3 43.8c-.4-.8-1.2-1.2-2.1-1.2H15.9c-.1 0-.2 0-.3 0 0 .4.1.8.3 1.2L27 63.1c.4.8 1.2 1.2 2.1 1.2h21.4c.4 0 .8-.1 1.1-.3 0-.3-.1-.7-.3-1l-11-19.2z"/><path fill="#22081E" d="M38.1 42.5c.9 0 1.7-.5 2.1-1.2L51.4 22c.2-.3.2-.6.3-1-.3-.2-.7-.3-1.1-.3H29.1c-.9 0-1.7.5-2.1 1.2L15.9 41.3c-.2.4-.3.8-.3 1.2.1 0 .2 0 .3 0h22.2z"/><path fill="#364D55" d="M191.6 28.7h-3.1v-3H203c5.3 0 9.2 3.2 9.2 8.6 0 3.8-1.9 6.2-4.4 7.4v.1c3.5 1 5.8 4.3 5.8 8.5 0 6.1-4.5 9.6-10.2 9.6h-8.8c-2.1 0-3-.9-3-3V28.7zm11.3 11.8c3.5 0 5.8-2.4 5.8-6 0-3.5-2.2-5.9-5.9-5.9H195v11.8l7.9.1zM196 56.9h7.3c4.1 0 6.7-2.6 6.7-6.7s-2.7-6.8-6.7-6.8H195v12.3c0 .8.4 1.2 1 1.2zM216 56.9h1.8c.7 0 1-.3 1-1l2.4-30.1h3.5l9 19.9c.8 1.8 1.7 4 1.7 4h.1s.9-2.3 1.7-4l9-19.9h3.5l2.4 30.1c0 .7.4 1 1 1h1.9v3h-3.3c-2.1 0-2.8-.9-3-3l-1.6-20.8c-.1-1.9-.1-4.8-.1-4.8s-.9 3-1.8 4.8l-8.1 17.4h-3L226 36.1c-.8-1.7-1.8-4.9-1.8-4.9h-.2s0 3-.1 4.9L222.3 57c-.1 2.1-.9 3-3 3h-3.2l-.1-3.1zM261.3 28.7h-3.1v-3h13.7c10.3 0 17.1 6.3 17.1 17 0 10.9-6.9 17.1-17.1 17.1h-7.6c-2.1 0-3-.9-3-3V28.7zm4.4 28.2h5.8c8.4 0 13.9-5 13.9-14.1s-5.6-14-13.9-14h-6.8v27.1c-.1.6.4 1 1 1z"/><g fill="#A2195B"><path d="M91.6 31.6v7.1h12.9v6.8H91.6v14.8h-8.8V24.6h22.3v7H91.6zM127 40.2c-.1 0-.9-.2-1.6-.2-3.8 0-6.1 2.1-7.1 3.6v16.7h-8.6V33.8h7v3.5c.1-.3 3.4-4.3 8.9-4.3 2 0 3.1.8 3.3.8l-1.9 6.4zM154.7 49.6h-17.6c0 1.9 1.7 5.4 6.8 5.4 3.6 0 6.3-1.6 6.8-1.9l2.5 5c-.3.3-4.7 3-10 3-9.9 0-13.8-7.2-13.8-13.9 0-8.1 5.3-14.2 13-14.2 8 0 12.2 5.6 12.2 14.2.2 1.1.1 1.8.1 2.4zm-12-10.8c-4.4 0-5.3 4.4-5.4 5.1h10c0-1-.4-5.1-4.6-5.1zM184.2 49.6h-17.6c0 1.9 1.7 5.4 6.8 5.4 3.6 0 6.3-1.6 6.8-1.9l2.5 5c-.3.3-4.7 3-10 3-9.9 0-13.8-7.2-13.8-13.9 0-8.1 5.3-14.2 13-14.2 8 0 12.2 5.6 12.2 14.2.2 1.1.1 1.8.1 2.4zm-12-10.8c-4.4 0-5.3 4.4-5.4 5.1h10c0-1-.4-5.1-4.6-5.1z"/></g></svg>