<svg baseProfile="tiny" xmlns="http://www.w3.org/2000/svg" width="270.2" height="87" viewBox="0 0 270.2 87"><path fill="#00A099" d="M27.9 64.9c-.9 0-1.7-.5-2.1-1.2L14.7 44.5c-.2-.4-.3-.8-.3-1.2-.8.1-1.4.5-1.8 1.2L1.5 63.7c-.4.8-.4 1.7 0 2.5l11.1 19.2c.4.8 1.2 1.2 2.1 1.2h22.1c.9 0 1.7-.5 2.1-1.2L50 66.1c.3-.5.3-1 .3-1.5-.3.2-.7.3-1.1.3H27.9z"/><path fill="#A3897A" d="M25.8 22.8c.4-.8 1.2-1.2 2.1-1.2h21.3c.4 0 .8.1 1.1.3 0-.5 0-1-.3-1.5L39 1.2C38.6.5 37.8 0 36.9 0H14.8c-.9 0-1.7.5-2.1 1.2L1.6 20.4c-.4.8-.4 1.7 0 2.5l11 19.1c.4.7 1 1.1 1.8 1.2 0-.4.1-.8.3-1.2l11.1-19.2z"/><path fill="#364D55" d="M62.4 42l-11-19.1c-.2-.4-.6-.8-1-.9 0 .3-.1.7-.3.9L39 42c-.4.8-1.2 1.2-2.1 1.2.9 0 1.7.5 2.1 1.2l11 19.3c.2.3.2.6.3.9.4-.2.8-.5 1-.9l11.1-19.2c.5-.8.5-1.7 0-2.5z"/><path fill="#003033" d="M39 44.5c-.4-.8-1.2-1.2-2.1-1.2H14.8c-.1 0-.2 0-.3 0 0 .4.1.8.3 1.2l11.1 19.2c.4.8 1.2 1.2 2.1 1.2h21.3c.4 0 .8-.1 1.1-.3 0-.3-.1-.7-.3-.9L39 44.5z"/><path fill="#232929" d="M36.9 43.3c.9 0 1.7-.5 2.1-1.2l11-19.2c.2-.3.2-.6.3-.9-.3-.2-.7-.3-1.1-.3H27.9c-.9 0-1.7.5-2.1 1.2L14.7 42c-.2.4-.3.8-.3 1.2.1 0 .2 0 .3 0h22.2z"/><path fill="#364D55" d="M189.4 29.5h-3.1v-3h14.4c5.7 0 9.7 3.8 9.7 9.6 0 5.2-3.2 8.4-6.6 9.1v.1s.7.4 1.2 1.4l4.9 9.6c.5 1 1.2 1.1 2.4 1.1h.7v3h-1.5c-2.7 0-3.6-.3-4.7-2.6l-4.9-9.6c-.9-1.8-1.6-2-3.5-2h-5.7v14.3h-3.4l.1-31zm10.9 13.7c4.1 0 6.6-2.6 6.6-6.9 0-4.2-2.5-6.8-6.5-6.8h-7.6v13.7h7.5zM227 35.6c6.7 0 10.2 5.2 10.2 11.2 0 .6-.1 1.7-.1 1.7h-18.6c.1 6.1 4.4 9.6 9.4 9.6 4.4 0 7.3-3 7.3-3l1.6 2.5s-3.5 3.5-9 3.5c-7.2 0-12.7-5.2-12.7-12.7 0-8 5.4-12.8 11.9-12.8zm6.8 10.3c-.2-5-3.3-7.5-6.9-7.5-4 0-7.5 2.6-8.4 7.5h15.3zM252.1 35.6c6.5 0 8.1 4.2 8.1 4.2h.1s0-.4 0-.9c0-1.7.8-2.6 2.7-2.6h3.4v2.8h-2c-.7 0-1 .3-1 1v19.8c0 7.7-5.7 10.7-11.7 10.7-2.7 0-5.5-.7-7.9-1.9l1.3-2.7s3 1.7 6.6 1.7c4.7 0 8.5-2.2 8.5-7.6V58c0-.9 0-1.7 0-1.7h-.1c-1.5 2.6-3.9 4.2-7.6 4.2-6.5 0-10.8-5.2-10.8-12.4s3.9-12.5 10.4-12.5zm8.1 12.3c0-7.1-3.4-9.3-7.7-9.3-4.7 0-7.5 3.5-7.5 9.2 0 5.8 3.1 9.6 7.9 9.6 3.9 0 7.3-2.3 7.3-9.5z"/><g fill="#A3897A"><path d="M89.9 32.5v7.1h12.8v6.8H89.9V61h-8.7V25.5h22.2v7H89.9zM125.1 41c-.1 0-.9-.2-1.6-.2-3.7 0-6.1 2.1-7.1 3.6V61h-8.5V34.6h7v3.5c.1-.3 3.4-4.3 8.8-4.3 2 0 3.1.8 3.3.8l-1.9 6.4zM152.6 50.4h-17.5c0 1.8 1.7 5.4 6.8 5.4 3.5 0 6.3-1.6 6.8-1.8l2.5 5c-.3.3-4.6 2.9-9.9 2.9-9.9 0-13.7-7.2-13.7-13.8 0-8.1 5.2-14.1 13-14.1 7.9 0 12.2 5.6 12.2 14.1-.1.9-.2 1.6-.2 2.3zm-11.9-10.8c-4.4 0-5.3 4.4-5.4 5.1h9.9c.1-1-.3-5.1-4.5-5.1zM182 50.4h-17.5c0 1.8 1.7 5.4 6.8 5.4 3.5 0 6.3-1.6 6.8-1.8l2.5 5c-.3.3-4.6 2.9-9.9 2.9-9.9 0-13.7-7.2-13.7-13.8 0-8.1 5.2-14.1 13-14.1 7.9 0 12.2 5.6 12.2 14.1-.2.9-.2 1.6-.2 2.3zm-12-10.8c-4.4 0-5.3 4.4-5.4 5.1h9.9c.1-1-.3-5.1-4.5-5.1z"/></g></svg>