<svg baseProfile="tiny" xmlns="http://www.w3.org/2000/svg" width="213" height="48.7" viewBox="0 0 213 48.7"><g fill="#aaa"><path d="M42.9 10.1l-1-2.9h-4.2l-1 2.9H36L39.4.8h.7l3.4 9.3h-.6zm-3.1-8.7l-1.9 5.3h3.8l-1.9-5.3zM50.4 10.2c-.9 0-1.5-.4-1.6-.5V13h-.6V3.4h.6v.5c.1-.1.8-.7 2-.7 1.7 0 2.9 1.3 2.9 3.3-.1 2.2-1.4 3.7-3.3 3.7zm.3-6.4c-1.2 0-1.8.6-1.9.7v4.7c.1.1.7.5 1.7.5C52 9.7 53 8.4 53 6.5c0-1.6-.9-2.7-2.3-2.7zM58.5 3.8c-.1 0-.3 0-.6 0-1.4 0-2 1.3-2.1 1.4v4.9h-.6V3.4h.6v1c.1-.1.7-1.2 2.1-1.2.5 0 .6.1.7.1l-.1.5zM62 10.2c-1.8 0-2.9-1.3-2.9-3.5 0-2.1 1.1-3.5 3-3.5 1.8 0 2.9 1.3 2.9 3.6 0 2.1-1.2 3.4-3 3.4zm0-6.5c-1.4 0-2.3 1.2-2.3 3s1 3 2.3 3c1.5 0 2.3-1.1 2.3-2.9.1-1.8-.9-3.1-2.3-3.1zM66.7 12.7c-.3.3-.7.5-1.2.5s-.8-.1-.9-.2l.1-.5c.1 0 .3.1.7.1.5 0 .7-.1.9-.4.3-.3.3-.8.3-1.3V3.4h.6V11c0 .9-.1 1.4-.5 1.7zm.2-11.2c-.2 0-.4-.2-.4-.4s.2-.4.4-.4.4.2.4.4-.2.4-.4.4zM74.3 6.8h-4.9c0 1.7.9 2.9 2.5 2.9 1.2 0 2-.6 2-.6l.3.5c-.1.1-1 .7-2.3.7-1.9 0-3-1.4-3-3.4 0-2.2 1.2-3.5 3-3.5 1.4 0 2.5 1.1 2.5 3.1-.1 0-.1.1-.1.3zm-2.5-3.1c-1.2 0-2.3.9-2.4 2.5h4.3c.1-1.2-.5-2.5-1.9-2.5zM78.7 10.2c-1.8 0-3.1-1.2-3.1-3.3 0-2.1 1.3-3.7 3.3-3.7 1.2 0 1.8.5 1.9.6l-.3.4c-.1-.1-.7-.5-1.7-.5-1.6 0-2.6 1.2-2.6 3s1.1 2.9 2.5 2.9c1.1 0 1.8-.5 1.9-.5l.3.5c-.2.1-1 .6-2.2.6zM84.7 10.2c-.6 0-1-.2-1.3-.4-.4-.4-.3-1.1-.3-1.8V3.9H82v-.5h1.2V1.5h.6v1.9H86v.5h-2.2V8c0 1-.1 1.7 1.1 1.7.5 0 .9-.2 1-.2l.1.4c-.2.1-.5.3-1.3.3zM93.1 10.2c-1.1 0-2-.4-2.1-.4V0h.6v3.9c.1-.1.8-.7 1.9-.7 1.8 0 2.9 1.4 2.9 3.4 0 2.1-1.4 3.6-3.3 3.6zm.4-6.4c-1.1 0-1.8.7-1.9.7v4.9c.1 0 .6.3 1.6.3 1.7 0 2.7-1.2 2.7-3-.1-1.7-1-2.9-2.4-2.9zM100.6 10.7c-.3.8-.6 1.5-1 1.9-.5.5-1.2.7-1.7.7-.6 0-1.1-.2-1.1-.2l.2-.5c.1 0 .4.2.9.2.4 0 .9-.2 1.2-.5.5-.5.7-1.3 1-1.9l-2.7-6.9h.6l2.4 6.1 2.2-6.1h.6l-2.6 7.2z"/></g><path fill="#00A099" d="M11.7 39.2c-.4 0-.7-.2-.9-.5l-4.9-8.4c-.1-.2-.1-.3-.1-.5-.3 0-.6.2-.8.5L.1 38.7c-.1.3-.1.8 0 1.1L5 48.2c.2.3.5.5.9.5h9.7c.4 0 .7-.2.9-.5l4.9-8.4c.1-.2.1-.4.1-.7-.1.1-.3.1-.5.1h-9.3z"/><path fill="#C6C6C5" d="M10.8 20.8c.2-.3.5-.5.9-.5h9.4c.2 0 .3 0 .5.1 0-.2 0-.5-.1-.7l-4.9-8.4c-.2-.3-.5-.5-.9-.5H6c-.4 0-.7.2-.9.5L.2 19.7c-.2.3-.2.7 0 1.1L5 29.2c.2.3.5.5.8.5 0-.2 0-.4.1-.5l4.9-8.4z"/><path fill="#364D55" d="M26.9 29.2L22 20.8c-.1-.2-.3-.3-.5-.4 0 .1-.1.3-.1.4l-4.9 8.4c-.2.3-.5.5-.9.5.4 0 .7.2.9.5l4.9 8.4c.1.1.1.3.1.4.2-.1.4-.2.5-.4l4.9-8.4c.2-.2.2-.6 0-1z"/><path fill="#002628" d="M16.6 30.3c-.2-.3-.5-.5-.9-.5H6c-.1 0-.1 0-.1 0 0 .2 0 .4.1.5l4.9 8.4c.2.3.5.5.9.5h9.3c.2 0 .3 0 .5-.1 0-.1-.1-.3-.1-.4l-4.9-8.4z"/><path fill="#2A3C42" d="M15.6 29.8c.4 0 .7-.2.9-.5l4.9-8.4c.1-.1.1-.3.1-.4-.1-.1-.3-.1-.5-.1h-9.4c-.4 0-.7.2-.9.5l-4.9 8.4c-.1.2-.1.3-.1.5 0 0 .1 0 .1 0h9.8z"/><g fill="#364D55"><path d="M82.8 24.2c0-.3-.2-.5-.5-.5h-.9v-1.3H83c.9 0 1.3.4 1.3 1.3v8.4c0 2.5 1.6 4 4 4s4-1.6 4-4.1v-8.4c0-.9.4-1.3 1.3-1.3h1.6v1.3h-.9c-.3 0-.5.1-.5.5v8c0 3.2-2.2 5.4-5.5 5.4s-5.5-2.1-5.5-5.4v-7.9zM97.8 24.2c0-.3-.2-.5-.5-.5h-.9v-1.3H98c.9 0 1.3.4 1.3 1.3v5.2h1.8c.6 0 1-.1 1.2-.5l3.6-5.9h1.7l-3.8 6.2c-.4.6-.8.8-.8.8s.4.1.7.9l2.6 5.1c.2.4.5.5 1.1.5h.4v1.3h-.8c-1.2 0-1.6-.1-2.1-1.1l-2.7-5.4c-.2-.5-.7-.6-1.3-.6h-1.6v7.1h-1.5V24.2zM116.3 22.2c3.4 0 5.2 1.8 5.2 1.8l-.9 1.1s-1.7-1.5-4.3-1.5c-3.3 0-5.9 2.7-5.9 6.3 0 3.7 2.5 6.3 5.9 6.3 2.9 0 4.7-2.2 4.7-2.2v-1.8c0-.3-.2-.5-.5-.5h-.9v-1.3h1.5c.9 0 1.3.4 1.3 1.3v5.7H121v-1.1c0-.3 0-.6 0-.6s-1.7 2-4.9 2c-4.1 0-7.3-3.3-7.3-7.7s3.2-7.8 7.5-7.8zM129.3 26.4c2.9 0 4.5 2.3 4.5 4.9 0 .2 0 .7 0 .7h-8.2c0 2.7 1.9 4.2 4.1 4.2 2 0 3.2-1.3 3.2-1.3l.7 1.1s-1.6 1.5-4 1.5c-3.2 0-5.6-2.3-5.6-5.6.1-3.4 2.5-5.5 5.3-5.5zm3 4.5c-.1-2.2-1.4-3.3-3-3.3-1.8 0-3.3 1.1-3.7 3.3h6.7zM136.7 28.4c0-.3-.2-.5-.5-.5h-.9v-1.2h1.5c.9 0 1.3.4 1.3 1.2v.5c0 .4 0 .8 0 .8.4-1 1.7-2.7 4.2-2.7 2.7 0 3.6 1.5 3.6 4.1v5.1c0 .3.2.5.5.5h.9v1.2h-1.5c-.9 0-1.3-.4-1.3-1.3V31c0-1.7-.2-3.2-2.3-3.2-1.8 0-3.4 1.2-3.9 3-.1.4-.2.9-.2 1.4v5.1h-1.4v-8.9zM153.4 26.4c2.9 0 4.5 2.3 4.5 4.9 0 .2 0 .7 0 .7h-8.2c0 2.7 1.9 4.2 4.1 4.2 2 0 3.2-1.3 3.2-1.3l.7 1.1s-1.6 1.5-4 1.5c-3.2 0-5.6-2.3-5.6-5.6.1-3.4 2.4-5.5 5.3-5.5zm3 4.5c-.1-2.2-1.4-3.3-3-3.3-1.8 0-3.3 1.1-3.7 3.3h6.7zM165.9 30.8h.6v-.1c0-2.2-.8-3-2.8-3-.5 0-2.1.1-2.1.9v.7h-1.4v-1c0-1.5 2.6-1.8 3.5-1.8 3.4 0 4.2 1.8 4.2 4.1v5.1c0 .3.2.5.5.5h.9v1.2h-1.5c-.9 0-1.3-.4-1.3-1.3 0-.5 0-.8 0-.8s-.9 2.3-3.6 2.3c-1.8 0-3.6-1-3.6-3.2.1-3.5 4.7-3.6 6.6-3.6zm-2.7 5.6c2 0 3.3-2.1 3.3-4v-.5h-.6c-1.7 0-5 0-5 2.4-.1 1 .7 2.1 2.3 2.1zM172 24.1c0-.3-.2-.5-.5-.5h-.9v-1.2h1.5c.9 0 1.3.4 1.3 1.3v11.9c0 .3.2.5.5.5h.9v1.2h-1.5c-.9 0-1.3-.4-1.3-1.3V24.1zM181.8 26.4c3.1 0 5.6 2.4 5.6 5.5 0 3.2-2.5 5.6-5.6 5.6-3.1 0-5.6-2.4-5.6-5.6 0-3.1 2.5-5.5 5.6-5.5zm0 9.9c2.3 0 4.1-1.9 4.1-4.3s-1.9-4.2-4.1-4.2c-2.3 0-4.2 1.8-4.2 4.2.1 2.4 1.9 4.3 4.2 4.3zM193.4 26.4c2.9 0 3.6 1.8 3.6 1.8s0-.2 0-.4c0-.8.3-1.2 1.2-1.2h1.5v1.2h-.9c-.3 0-.5.1-.5.5V37c0 3.4-2.5 4.7-5.1 4.7-1.2 0-2.4-.3-3.5-.9l.6-1.2s1.3.7 2.9.7c2.1 0 3.7-1 3.7-3.3v-.9c0-.4 0-.8 0-.8-.6 1.2-1.7 1.8-3.3 1.8-2.9 0-4.8-2.3-4.8-5.5s1.7-5.2 4.6-5.2zm3.5 5.4c0-3.1-1.5-4.1-3.4-4.1-2.1 0-3.3 1.5-3.3 4 0 2.6 1.4 4.2 3.5 4.2 1.7.1 3.2-1 3.2-4.1zM203 40.5c.9 0 1.6-.8 2-1.7l.6-1.5-3.8-8.9c-.2-.4-.4-.5-.7-.5h-.2v-1.2h.7c1 0 1.2.2 1.6 1.2l2.7 6.7c.2.5.4 1.1.4 1.1s.1-.6.4-1.1l2.6-6.7c.4-1 .7-1.2 1.7-1.2h.7v1.2h-.2c-.4 0-.6.1-.7.5l-4.6 11.1c-.6 1.3-1.6 2.2-3.1 2.2s-2.3-1-2.3-1l.7-1.1c-.1.1.6.9 1.5.9z"/></g><g fill="#00A099"><path d="M38.9 25v3.1h5.6v3h-5.6v6.4h-3.8V22h9.7v3h-5.9zM54.4 28.8c-.1 0-.4-.1-.7-.1-1.6 0-2.7.9-3.1 1.6v7.3h-3.7V26H50v1.5c.1-.1 1.5-1.9 3.9-1.9.9 0 1.4.3 1.4.4l-.9 2.8zM66.5 32.9h-7.7c0 .8.7 2.4 3 2.4 1.6 0 2.8-.7 3-.8l1.1 2.2c-.1.1-2 1.3-4.4 1.3-4.3 0-6-3.2-6-6.1 0-3.6 2.3-6.2 5.7-6.2 3.5 0 5.3 2.4 5.3 6.2 0 .4 0 .7 0 1zm-5.3-4.7c-1.9 0-2.3 1.9-2.4 2.2h4.4c.1-.5-.1-2.2-2-2.2zM79.3 32.9h-7.7c0 .8.7 2.4 3 2.4 1.6 0 2.8-.7 3-.8l1.1 2.2c-.1.1-2 1.3-4.4 1.3-4.3 0-6-3.2-6-6.1 0-3.6 2.3-6.2 5.7-6.2 3.5 0 5.3 2.4 5.3 6.2.1.4 0 .7 0 1zm-5.2-4.7c-1.9 0-2.3 1.9-2.4 2.2h4.4c0-.5-.2-2.2-2-2.2z"/></g></svg>