<svg baseProfile="tiny" xmlns="http://www.w3.org/2000/svg" width="276.4" height="87" viewBox="0 0 276.4 87"><path fill="#00A099" d="M28.8 64.8c-.9 0-1.7-.5-2.1-1.2l-11-19c-.2-.4-.3-.8-.3-1.2-.8.1-1.4.5-1.8 1.2l-11 19c-.4.8-.4 1.7 0 2.4l11 19c.4.8 1.2 1.2 2.1 1.2h22c.9 0 1.7-.5 2.1-1.2l11-19c.3-.5.3-1 .3-1.5-.3.2-.7.3-1.1.3H28.8z"/><path fill="#F29100" d="M26.7 23.1c.4-.8 1.2-1.2 2.1-1.2H50c.4 0 .8.1 1.1.3 0-.5 0-1-.3-1.5l-11-19C39.4.9 38.6.5 37.7.5H15.8c-.9 0-1.7.5-2.1 1.2l-11 19c-.4.8-.4 1.7 0 2.4l11 19c.4.7 1 1.1 1.8 1.2 0-.4.1-.8.3-1.2l10.9-19z"/><path fill="#364D55" d="M63.1 42.2l-11-19c-.2-.4-.6-.8-1-.9 0 .3-.1.7-.3.9l-11 19c-.4.8-1.2 1.2-2.1 1.2.9 0 1.7.5 2.1 1.2l11 19c.2.3.2.6.3.9.4-.2.8-.5 1-.9l11-19c.4-.7.4-1.7 0-2.4z"/><path fill="#003033" d="M39.8 44.6c-.4-.8-1.2-1.2-2.1-1.2H15.8c-.1 0-.2 0-.3 0 0 .4.1.8.3 1.2l11 19c.4.8 1.2 1.2 2.1 1.2H50c.4 0 .8-.1 1.1-.3 0-.3-.1-.7-.3-.9l-11-19z"/><path fill="#332C00" d="M37.7 43.4c.9 0 1.7-.5 2.1-1.2l11-19c.2-.3.2-.6.3-.9-.3-.2-.7-.3-1.1-.3H28.8c-.9 0-1.7.5-2.1 1.2l-11 19c-.2.4-.3.8-.3 1.2.1 0 .2 0 .3 0h22z"/><path fill="#364D55" d="M205.3 26.2c4.8 0 12.6 2.1 12.6 7.1v2.8h-3.2v-1.9c0-3.1-5.4-4.9-9.3-4.9-7.5 0-13.2 5.9-13.2 14s5.7 14.5 13.4 14.5c6.9 0 11-4.7 11-4.7l1.9 2.4s-4.6 5.4-13 5.4c-9.9 0-16.8-7.8-16.8-17.7 0-9.6 7.1-17 16.6-17zM232.9 35.8c6.7 0 10.1 5.1 10.1 11.1 0 .6-.1 1.6-.1 1.6h-18.5c.1 6.1 4.4 9.6 9.3 9.6 4.4 0 7.2-3 7.2-3l1.6 2.4s-3.5 3.5-9 3.5c-7.1 0-12.6-5.2-12.6-12.6.2-7.9 5.6-12.6 12-12.6zm6.8 10.2c-.2-5-3.2-7.4-6.8-7.4-4 0-7.5 2.6-8.3 7.4h15.1zM249.6 40.2c0-.7-.4-1-1-1h-2v-2.8h3.3c2 0 2.9.8 2.9 2.7v1.1c0 .9-.1 1.7-.1 1.7h.1c.8-2.2 3.9-6.1 9.6-6.1 6 0 8.1 3.4 8.1 9.3v11.5c0 .7.4 1 1 1h2v2.8h-3.4c-2.1 0-2.9-.8-2.9-2.9V46c0-3.8-.6-7.1-5.2-7.1-4.1 0-7.7 2.8-8.8 6.8-.3 1-.4 2.1-.4 3.2v11.5h-3.2V40.2z"/><g fill="#F29100"><path d="M90.4 32.7v7h12.7v6.7H90.4V61h-8.6V25.8h22v6.9H90.4zM125.3 41.1c-.1 0-.9-.2-1.6-.2-3.7 0-6.1 2.1-7 3.6V61h-8.4V34.8h6.9v3.5c.1-.3 3.4-4.3 8.8-4.3 2 0 3.1.8 3.2.8l-1.9 6.3zM152.6 50.4h-17.3c0 1.8 1.6 5.4 6.7 5.4 3.5 0 6.2-1.6 6.7-1.8l2.5 5c-.3.3-4.6 2.9-9.9 2.9-9.8 0-13.6-7.1-13.6-13.7 0-8 5.2-14 12.9-14 7.9 0 12.1 5.5 12.1 14 0 .9-.1 1.6-.1 2.2zm-11.8-10.6c-4.4 0-5.3 4.3-5.4 5.1h9.9c0-1.1-.4-5.1-4.5-5.1zM181.7 50.4h-17.3c0 1.8 1.6 5.4 6.7 5.4 3.5 0 6.2-1.6 6.7-1.8l2.5 5c-.3.3-4.6 2.9-9.9 2.9-9.8 0-13.6-7.1-13.6-13.7 0-8 5.2-14 12.9-14 7.9 0 12.1 5.5 12.1 14 0 .9-.1 1.6-.1 2.2zm-11.8-10.6c-4.4 0-5.3 4.3-5.4 5.1h9.9c0-1.1-.4-5.1-4.5-5.1z"/></g></svg>