<svg baseProfile="tiny" xmlns="http://www.w3.org/2000/svg" width="213" height="50.4" viewBox="0 0 213 50.4"><g fill="#eee"><path d="M42.1 10.1l-.9-2.4h-3.9l-.9 2.4h-1.3L38.5.8H40l3.4 9.3h-1.3zm-2.7-8l-1.6 4.6H41l-1.6-4.6zM50.6 10.3c-.9 0-1.4-.4-1.5-.4v3.2h-1.2V3.3H49v.5c.1-.1.8-.7 1.9-.7 1.8 0 3 1.4 3 3.5 0 2.2-1.5 3.7-3.3 3.7zm.1-6.2c-.9 0-1.5.6-1.6.6v4.1c.1.1.6.4 1.4.4 1.3 0 2.2-1 2.2-2.6 0-1.5-.9-2.5-2-2.5zM59.1 4.2c-.1 0-.3 0-.5 0-1.3 0-1.9 1-2 1.1v4.8h-1.2V3.3h1.1v.9c.1-.1.8-1.1 2.2-1.1.5 0 .7.1.7.1l-.3 1zM62.9 10.3c-1.9 0-3.2-1.4-3.2-3.5s1.3-3.6 3.2-3.6c1.9 0 3.1 1.4 3.1 3.6.1 2-1.2 3.5-3.1 3.5zm0-6.2c-1.2 0-2 1-2 2.6s.9 2.6 2 2.6c1.3 0 2-1 2-2.5 0-1.6-.8-2.7-2-2.7zM68.2 12.7c-.4.4-1 .6-1.6.6-.6 0-1-.2-1.1-.3l.3-.9c.1 0 .4.1.7.1.5 0 .7-.2.8-.3.2-.2.3-.6.3-1.2V3.3h1.2v7.4c0 1-.1 1.5-.6 2zm0-10.8c-.4 0-.7-.3-.7-.7s.3-.7.7-.7.7.3.7.7-.3.7-.7.7zM76.2 7h-4.7c0 1.2.7 2.2 2.1 2.2 1.1 0 1.8-.5 1.9-.5l.5.8c-.1.1-1 .7-2.5.7-2.1 0-3.2-1.5-3.2-3.5 0-2.2 1.3-3.6 3.2-3.6 1.7 0 2.8 1.3 2.8 3.4 0 .2-.1.4-.1.5zm-2.7-2.9c-1.1 0-1.9.8-2 2h3.6c0-.8-.3-2-1.6-2zM80.7 10.3c-1.9 0-3.3-1.4-3.3-3.4 0-2.2 1.4-3.7 3.4-3.7 1.3 0 2.1.6 2.2.7l-.5.8c-.1-.1-.7-.5-1.6-.5-1.4 0-2.3 1.2-2.3 2.6 0 1.5.9 2.5 2.2 2.5 1 0 1.8-.5 1.8-.5l.5.8s-1 .7-2.4.7zM87.3 10.3c-.6 0-1.2-.2-1.5-.5-.5-.5-.4-1.2-.4-2V4.3h-1.2v-1h1.2V1.4h1.2v1.9h2.1v1h-2.1V8c0 .7 0 1.3 1 1.3.5 0 .9-.2.9-.2l.3.8c-.2 0-.7.4-1.5.4zM95.8 10.3c-1.2 0-2.2-.4-2.5-.5V0h1.2v3.7c.1-.1.8-.6 1.8-.6 1.8 0 3 1.3 3 3.4-.1 2.3-1.5 3.8-3.5 3.8zm.3-6.2c-.9 0-1.5.5-1.6.6V9c.1 0 .5.2 1.3.2 1.4 0 2.3-1.1 2.3-2.7-.1-1.4-.9-2.4-2-2.4zM104 10.4c-.5 1.2-.8 1.8-1.2 2.2-.4.4-1 .6-1.8.6s-1.3-.3-1.4-.3l.3-.9c.1 0 .4.2 1 .2.4 0 .8-.1 1.1-.4.4-.4.6-1 .9-1.7l-2.8-6.9h1.3l2.2 5.5 2-5.5h1.2l-2.8 7.2z"/></g><path fill="#00A099" d="M11.6 40c-.4 0-.7-.2-.9-.5l-4.8-8.3c-.1-.2-.1-.3-.1-.5-.3 0-.6.2-.8.5L.2 39.5c-.2.3-.2.7 0 1.1L5 48.9c.2.3.5.5.9.5h9.6c.4 0 .7-.2.9-.5l4.8-8.3c.1-.2.1-.4.1-.7-.1.1-.2.1-.4.1h-9.3z"/><path fill="#C6C6C5" d="M10.7 21.7c.2-.3.5-.5.9-.5h9.3c.2 0 .3 0 .5.1 0-.2 0-.5-.1-.7l-4.8-8.3c-.2-.3-.5-.5-.9-.5H5.9c-.4 0-.7.2-.9.5L.2 20.6c-.2.4-.2.8 0 1.1L5 30.1c.2.3.5.5.8.5 0-.2 0-.3.1-.5l4.8-8.4z"/><path fill="#364D55" d="M26.6 30.1l-4.8-8.3c-.1-.2-.3-.3-.5-.4 0 .1-.1.3-.1.4l-4.8 8.3c-.2.3-.5.5-.9.5.4 0 .7.2.9.5l4.8 8.3c.1.1.1.3.1.4.2-.1.3-.2.5-.4l4.8-8.3c.2-.3.2-.7 0-1z"/><path fill="#002628" d="M16.4 31.1c-.2-.3-.5-.5-.9-.5H5.9c-.1 0-.1 0-.1 0 0 .2 0 .3.1.5l4.8 8.3c.2.3.5.5.9.5h9.3c.2 0 .3 0 .5-.1 0-.1-.1-.3-.1-.4l-4.9-8.3z"/><path fill="#2A3C42" d="M15.5 30.6c.4 0 .7-.2.9-.5l4.8-8.3c.1-.1.1-.3.1-.4-.1-.1-.3-.1-.5-.1h-9.3c-.4 0-.7.2-.9.5l-4.8 8.3c-.1.2-.1.3-.1.5 0 0 .1 0 .1 0h9.7z"/><g fill="#fff"><path d="M82.1 25.1c0-.3-.2-.5-.5-.5h-.9v-1.3h1.6c.9 0 1.3.4 1.3 1.3V33c0 2.4 1.6 4 4 4s4-1.5 4-4v-8.3c0-.9.4-1.3 1.3-1.3h1.6v1.3h-.9c-.3 0-.5.1-.5.5v7.9c0 3.2-2.2 5.3-5.4 5.3s-5.5-2.1-5.5-5.3l-.1-8zM96.9 25.1c0-.3-.2-.5-.5-.5h-.9v-1.3h1.6c.9 0 1.3.4 1.3 1.3v5.1h1.8c.6 0 1-.1 1.2-.5l3.6-5.9h1.7l-3.8 6.2c-.4.6-.8.8-.8.8s.3.1.7.8l2.6 5.1c.2.4.5.5 1.1.5h.4V38h-.8c-1.2 0-1.6-.1-2-1.1l-2.7-5.4c-.2-.5-.7-.6-1.3-.6h-1.6V38H97l-.1-12.9zM115.2 23.1c3.4 0 5.2 1.8 5.2 1.8l-.9 1.1s-1.6-1.5-4.3-1.5c-3.3 0-5.9 2.7-5.9 6.2 0 3.6 2.5 6.3 5.8 6.3 2.9 0 4.7-2.2 4.7-2.2V33c0-.3-.2-.5-.5-.5h-.9v-1.3h1.5c.9 0 1.3.4 1.3 1.3v5.6h-1.3V37c0-.3 0-.6 0-.6s-1.7 2-4.8 2c-4 0-7.2-3.2-7.2-7.7-.1-4.2 3.2-7.6 7.3-7.6zM128.2 27.3c2.9 0 4.4 2.2 4.4 4.9 0 .2 0 .7 0 .7h-8.1c0 2.7 1.9 4.2 4.1 4.2 1.9 0 3.2-1.3 3.2-1.3l.7 1.1s-1.5 1.5-3.9 1.5c-3.1 0-5.5-2.3-5.5-5.5-.1-3.5 2.3-5.6 5.1-5.6zm3 4.4c-.1-2.2-1.4-3.3-3-3.3-1.7 0-3.3 1.1-3.6 3.3h6.6zM135.5 29.3c0-.3-.2-.5-.5-.5h-.9v-1.2h1.5c.9 0 1.3.4 1.3 1.2v.5c0 .4 0 .8 0 .8.4-1 1.7-2.7 4.2-2.7 2.6 0 3.6 1.5 3.6 4.1v5c0 .3.2.5.5.5h.9v1.2h-1.5c-.9 0-1.3-.4-1.3-1.3v-5.1c0-1.7-.2-3.1-2.3-3.1-1.8 0-3.4 1.2-3.8 3-.1.4-.2.9-.2 1.4v5.1h-1.4v-8.9zM152.1 27.3c2.9 0 4.4 2.2 4.4 4.9 0 .2 0 .7 0 .7h-8.1c0 2.7 1.9 4.2 4.1 4.2 1.9 0 3.2-1.3 3.2-1.3l.7 1.1s-1.5 1.5-3.9 1.5c-3.1 0-5.5-2.3-5.5-5.5-.1-3.5 2.2-5.6 5.1-5.6zm2.9 4.4c-.1-2.2-1.4-3.3-3-3.3-1.7 0-3.3 1.1-3.6 3.3h6.6zM164.4 31.6h.6v-.1c0-2.2-.8-3-2.7-3-.5 0-2.1.1-2.1.9v.7h-1.4v-1c0-1.5 2.5-1.8 3.4-1.8 3.3 0 4.1 1.8 4.1 4.1v5.1c0 .3.2.5.5.5h.9v1.2h-1.4c-.9 0-1.3-.4-1.3-1.3 0-.5 0-.8 0-.8s-.9 2.3-3.5 2.3c-1.8 0-3.6-1-3.6-3.1.1-3.6 4.7-3.7 6.5-3.7zm-2.6 5.6c2 0 3.2-2.1 3.2-3.9v-.5h-.6c-1.7 0-5 0-5 2.4 0 .9.8 2 2.4 2zM170.5 25c0-.3-.2-.5-.5-.5h-.9v-1.2h1.5c.9 0 1.3.4 1.3 1.3v11.8c0 .3.2.5.5.5h.9v1.2h-1.5c-.9 0-1.3-.4-1.3-1.3V25zM180.2 27.3c3.1 0 5.6 2.3 5.6 5.5s-2.5 5.6-5.6 5.6c-3.1 0-5.6-2.4-5.6-5.6 0-3.2 2.5-5.5 5.6-5.5zm0 9.8c2.2 0 4.1-1.9 4.1-4.3s-1.9-4.2-4.1-4.2c-2.3 0-4.1 1.8-4.1 4.2 0 2.4 1.9 4.3 4.1 4.3zM191.7 27.3c2.8 0 3.5 1.8 3.5 1.8s0-.2 0-.4c0-.8.3-1.2 1.2-1.2h1.5v1.2h-.9c-.3 0-.5.1-.5.5v8.6c0 3.4-2.5 4.7-5.1 4.7-1.2 0-2.4-.3-3.4-.8l.6-1.2s1.3.7 2.9.7c2.1 0 3.7-1 3.7-3.3V37c0-.4 0-.8 0-.8-.6 1.2-1.7 1.8-3.3 1.8-2.8 0-4.7-2.2-4.7-5.4-.1-3.1 1.6-5.3 4.5-5.3zm3.5 5.3c0-3.1-1.5-4-3.3-4-2.1 0-3.3 1.5-3.3 4s1.4 4.2 3.4 4.2c1.7 0 3.2-1.1 3.2-4.2zM201.2 41.2c.9 0 1.6-.8 2-1.7l.6-1.4-3.7-8.8c-.2-.4-.3-.5-.7-.5h-.2v-1.2h.7c.9 0 1.2.2 1.6 1.2l2.7 6.6c.2.5.4 1.1.4 1.1s.1-.6.3-1.1l2.6-6.6c.3-.9.7-1.2 1.6-1.2h.7v1.2h-.2c-.4 0-.6.1-.7.5l-4.6 11.1c-.6 1.3-1.6 2.2-3 2.2-1.5 0-2.3-1-2.3-1l.7-1c-.1-.1.6.6 1.5.6z"/></g><g fill="#00A099"><path d="M38.6 25.9V29h5.6v2.9h-5.6v6.4h-3.8V22.9h9.7v3h-5.9zM53.9 29.6c-.1 0-.4-.1-.7-.1-1.6 0-2.7.9-3.1 1.6v7.2h-3.7V26.8h3v1.5c.1-.1 1.5-1.9 3.8-1.9.9 0 1.4.3 1.4.3l-.7 2.9zM65.9 33.7h-7.6c0 .8.7 2.3 2.9 2.3 1.5 0 2.7-.7 2.9-.8l1.1 2.2c-.1.1-2 1.3-4.3 1.3-4.3 0-5.9-3.1-5.9-6 0-3.5 2.3-6.2 5.6-6.2 3.5 0 5.3 2.4 5.3 6.1 0 .5 0 .8 0 1.1zM60.7 29c-1.9 0-2.3 1.9-2.3 2.2h4.3c0-.4-.2-2.2-2-2.2zM78.6 33.7H71c0 .8.7 2.3 2.9 2.3 1.5 0 2.7-.7 2.9-.8l1.1 2.2c-.1.1-2 1.3-4.3 1.3-4.3 0-5.9-3.1-5.9-6 0-3.5 2.3-6.2 5.6-6.2 3.5 0 5.3 2.4 5.3 6.1.1.5 0 .8 0 1.1zM73.5 29c-1.9 0-2.3 1.9-2.3 2.2h4.3c0-.4-.2-2.2-2-2.2z"/></g></svg>