<svg xmlns="http://www.w3.org/2000/svg" width="266.436" height="86.9" viewBox="0 0 266.436 86.9"><path fill="#00A099" d="M26.832 65.187c-.903 0-1.71-.475-2.138-1.235L13.577 44.71c-.19-.38-.333-.76-.333-1.19-.76.096-1.425.524-1.805 1.19L.32 63.95c-.427.76-.427 1.71 0 2.472l11.12 19.242c.427.76 1.234 1.235 2.137 1.235h22.236c.903 0 1.71-.476 2.138-1.236l11.12-19.242c.284-.475.332-.998.284-1.52-.333.19-.713.285-1.093.285H26.833z"/><path fill="#A3897A" d="M24.694 22.948c.428-.76 1.235-1.235 2.138-1.235H48.26c.38 0 .76.095 1.093.285.048-.523-.048-1.045-.285-1.52L37.95 1.235C37.523.475 36.715 0 35.812 0H13.624c-.903 0-1.71.475-2.138 1.235L.368 20.478c-.428.76-.428 1.71 0 2.47l11.118 19.243c.38.666 1.045 1.094 1.805 1.19 0-.43.096-.81.334-1.19l11.07-19.242z"/><path fill="#364D55" d="M61.516 42.238L50.398 22.996c-.238-.428-.618-.76-1.045-.95-.048.333-.143.665-.285.95L37.95 42.238c-.428.76-1.235 1.235-2.138 1.235.903 0 1.71.475 2.138 1.235L49.068 63.95c.19.285.238.618.285.95.428-.19.808-.523 1.045-.95l11.118-19.242c.428-.76.428-1.71 0-2.47z"/><path fill="#003033" d="M37.95 44.71c-.428-.76-1.235-1.236-2.138-1.236H13.624c-.143 0-.238.048-.333.048 0 .428.096.808.334 1.188l11.118 19.242c.428.76 1.235 1.235 2.138 1.235h21.38c.38 0 .76-.095 1.093-.285-.048-.333-.143-.665-.285-.95L37.95 44.71z"/><path fill="#232929" d="M35.812 43.474c.903 0 1.71-.475 2.138-1.235l11.118-19.243c.19-.285.238-.618.285-.95-.333-.19-.713-.285-1.093-.285H26.832c-.903 0-1.71.475-2.138 1.235l-11.117 19.24c-.19.38-.333.76-.333 1.19.095 0 .238.047.333.047h22.235z"/><path fill="#364D55" d="M189.086 29.648h-3.136v-2.993h14.444c5.75 0 9.788 3.8 9.788 9.692 0 5.274-3.23 8.41-6.604 9.122v.094s.665.38 1.188 1.378l4.894 9.692c.475.998 1.235 1.093 2.423 1.093h.665v2.993h-1.52c-2.756 0-3.61-.333-4.704-2.566l-4.894-9.692c-.903-1.805-1.568-2.043-3.468-2.043h-5.75v14.348h-3.372v-31.12h.046zm10.928 13.73c4.086 0 6.604-2.66 6.604-6.936 0-4.23-2.518-6.794-6.557-6.794h-7.6v13.73h7.554zM226.858 35.777c6.747 0 10.215 5.18 10.215 11.26 0 .57-.095 1.663-.095 1.663h-18.72c.095 6.177 4.42 9.692 9.455 9.692 4.466 0 7.317-2.993 7.317-2.993l1.615 2.47s-3.563 3.516-9.075 3.516c-7.222 0-12.78-5.226-12.78-12.78.048-8.03 5.512-12.83 12.068-12.83zm6.842 10.31c-.19-5.036-3.278-7.507-6.89-7.507-4.038 0-7.553 2.613-8.41 7.507h15.3zM252.087 35.777c6.557 0 8.125 4.18 8.125 4.18h.095s0-.427 0-.902c0-1.758.76-2.66 2.756-2.66h3.373v2.85h-1.996c-.665 0-1.045.333-1.045 1.045v19.908c0 7.744-5.75 10.785-11.735 10.785-2.756 0-5.56-.713-7.935-1.948l1.283-2.756s2.993 1.71 6.604 1.71c4.75 0 8.552-2.234 8.552-7.65v-2.138c0-.903.047-1.758.047-1.758h-.094c-1.473 2.66-3.896 4.23-7.65 4.23-6.556 0-10.88-5.18-10.88-12.497s3.945-12.4 10.5-12.4zm8.077 12.353c0-7.127-3.373-9.312-7.697-9.312-4.75 0-7.507 3.468-7.507 9.265 0 5.844 3.136 9.597 7.935 9.597 3.85 0 7.27-2.376 7.27-9.55z"/><g fill="#A3897A"><path d="M89.12 32.64v7.128h12.877v6.794H89.12v14.73h-8.74V25.656h22.282v6.984h-13.54zM124.47 41.193c-.143-.048-.903-.19-1.615-.19-3.753 0-6.13 2.138-7.127 3.61v16.678h-8.552V34.78h7.032v3.515c.143-.285 3.42-4.324 8.885-4.324 2.043 0 3.136.76 3.278.81l-1.9 6.413zM152.122 50.6H134.59c0 1.853 1.663 5.416 6.794 5.416 3.563 0 6.32-1.615 6.794-1.853l2.518 5.036c-.333.332-4.656 2.945-9.978 2.945-9.93 0-13.73-7.222-13.73-13.874 0-8.124 5.273-14.205 13.017-14.205 7.982 0 12.21 5.606 12.21 14.16.002 1.045-.093 1.71-.093 2.375zM140.15 39.815c-4.42 0-5.322 4.37-5.417 5.13h9.978c.048-1.044-.38-5.13-4.56-5.13zM181.58 50.6h-17.533c0 1.853 1.663 5.416 6.794 5.416 3.564 0 6.32-1.615 6.795-1.853l2.518 5.036c-.333.332-4.656 2.945-9.978 2.945-9.93 0-13.73-7.222-13.73-13.874 0-8.124 5.273-14.205 13.017-14.205 7.982 0 12.21 5.606 12.21 14.16.002 1.045-.093 1.71-.093 2.375zm-11.974-10.785c-4.42 0-5.32 4.37-5.416 5.13h9.978c.047-1.044-.38-5.13-4.562-5.13z"/></g></svg>