<svg xmlns="http://www.w3.org/2000/svg" width="601.768" height="318.604" viewBox="0 0 601.768 318.604"><path fill="#F6F6F6" d="M53.937 284.226c2.813-.01 5.405-1.52 6.802-3.962l35.43-61.898c1.398-2.44 1.387-5.44-.028-7.87l-35.89-61.637c-1.418-2.43-4.02-3.918-6.83-3.91L0 145.15v139.278l53.937-.202zM74.69 318.604L60.25 293.81c-1.417-2.43-4.018-3.918-6.83-3.91L0 290.097v28.506h74.69zM54.937 139.277c2.813-.01 5.405-1.52 6.802-3.962l35.43-61.898c1.398-2.44 1.387-5.44-.028-7.87L61.252 3.91C59.833 1.482 57.23-.007 54.42 0L0 .202v139.28l54.937-.205zM80.683 317.604h126.524l14.917-26.06c1.398-2.44 1.387-5.44-.028-7.87l-35.89-61.636c-1.418-2.428-4.02-3.917-6.83-3.91l-71.324.265c-2.813.01-5.405 1.52-6.802 3.962l-35.43 61.897c-1.398 2.442-1.388 5.44.028 7.872l14.835 25.48zM109.052 73.444c-2.813.01-5.405 1.52-6.802 3.962l-35.43 61.897c-1.4 2.442-1.388 5.44.027 7.872l35.89 61.636c1.418 2.43 4.02 3.918 6.83 3.91l71.324-.264c2.814-.01 5.406-1.52 6.803-3.962l35.43-61.898c1.4-2.44 1.388-5.44-.027-7.872l-35.89-61.636c-1.418-2.428-4.02-3.917-6.83-3.91l-71.324.266zM234.433 146.215c-2.813.01-5.405 1.52-6.802 3.962l-35.43 61.897c-1.398 2.442-1.387 5.44.028 7.872l35.89 61.636c1.418 2.428 4.02 3.917 6.83 3.91l71.324-.265c2.813-.01 5.405-1.52 6.802-3.962l35.43-61.898c1.4-2.44 1.388-5.44-.027-7.87l-35.89-61.637c-1.418-2.428-4.02-3.917-6.83-3.91l-71.324.265zM326.443 317.604l-13.856-23.795c-1.418-2.43-4.02-3.918-6.83-3.91l-71.324.264c-2.813.01-5.405 1.52-6.802 3.962l-13.438 23.478h112.25zM234.433 1.265c-2.813.01-5.405 1.52-6.802 3.962L192.2 67.125c-1.398 2.442-1.387 5.44.028 7.872l35.89 61.636c1.418 2.428 4.02 3.917 6.83 3.91l71.324-.265c2.813-.01 5.405-1.52 6.802-3.962l35.43-61.898c1.4-2.44 1.388-5.44-.027-7.87L312.587 4.91c-1.418-2.428-4.02-3.917-6.83-3.91l-71.324.265zM332.906 317.604H459.43l14.917-26.06c1.398-2.44 1.387-5.44-.028-7.87l-35.89-61.636c-1.42-2.428-4.02-3.917-6.832-3.91l-71.323.265c-2.813.01-5.405 1.52-6.802 3.962l-35.43 61.897c-1.398 2.442-1.388 5.44.028 7.872l14.836 25.48zM361.274 73.444c-2.813.01-5.405 1.52-6.802 3.962l-35.43 61.897c-1.398 2.442-1.388 5.44.027 7.872l35.89 61.636c1.417 2.43 4.018 3.918 6.83 3.91l71.323-.264c2.813-.01 5.405-1.52 6.802-3.962l35.43-61.898c1.4-2.44 1.388-5.44-.027-7.872l-35.89-61.636c-1.418-2.428-4.02-3.917-6.83-3.91l-71.324.266zM486.656 146.215c-2.813.01-5.405 1.52-6.802 3.962l-35.43 61.897c-1.4 2.442-1.388 5.44.027 7.872l35.89 61.636c1.42 2.428 4.02 3.917 6.83 3.91l71.324-.265c2.813-.01 5.405-1.52 6.802-3.962l35.43-61.898c1.4-2.44 1.388-5.44-.027-7.87l-35.89-61.637c-1.42-2.428-4.02-3.917-6.832-3.91l-71.322.265zM578.665 317.604L564.81 293.81c-1.42-2.43-4.02-3.918-6.832-3.91l-71.323.264c-2.813.01-5.405 1.52-6.802 3.962l-13.44 23.478h112.252z"/></svg>