<svg xmlns="http://www.w3.org/2000/svg" width="601.768" height="318.604" viewBox="0 0 601.768 318.604"><path fill="#F6F6F6" d="M547.832 34.378c-2.813.01-5.405 1.52-6.802 3.962l-35.43 61.898c-1.4 2.44-1.388 5.44.027 7.87l35.89 61.637c1.418 2.428 4.02 3.917 6.83 3.91l53.422-.2V34.178l-53.938.2zM527.08 0l14.437 24.795c1.418 2.428 4.02 3.917 6.83 3.91l53.422-.2V0h-74.69zM546.832 179.328c-2.813.01-5.405 1.52-6.802 3.962l-35.43 61.898c-1.4 2.44-1.388 5.44.027 7.87l35.89 61.637c1.418 2.428 4.02 3.917 6.83 3.91l54.422-.202v-139.28l-54.938.205zM521.085 1H394.56l-14.916 26.06c-1.398 2.44-1.387 5.44.028 7.87l35.89 61.636c1.418 2.428 4.02 3.917 6.83 3.91l71.324-.265c2.813-.01 5.405-1.52 6.802-3.96l35.43-61.898c1.398-2.442 1.388-5.44-.028-7.872L521.085 1zM492.717 245.16c2.813-.01 5.405-1.52 6.802-3.962l35.43-61.897c1.397-2.44 1.387-5.44-.028-7.87l-35.89-61.637c-1.418-2.428-4.02-3.917-6.83-3.91l-71.324.265c-2.813.01-5.405 1.52-6.802 3.962l-35.43 61.898c-1.4 2.44-1.388 5.44.027 7.87l35.89 61.637c1.418 2.428 4.02 3.917 6.83 3.91l71.324-.265zM367.335 172.39c2.813-.01 5.405-1.52 6.802-3.963l35.43-61.897c1.398-2.442 1.388-5.44-.027-7.872l-35.89-61.636c-1.418-2.428-4.02-3.917-6.83-3.91l-71.324.265c-2.813.01-5.405 1.52-6.802 3.962l-35.43 61.897c-1.4 2.44-1.388 5.44.027 7.87l35.89 61.637c1.42 2.428 4.02 3.917 6.832 3.91l71.323-.265zM275.326 1l13.856 23.795c1.418 2.428 4.02 3.917 6.83 3.91l71.324-.265c2.813-.01 5.405-1.52 6.802-3.962L387.576 1h-112.25zM367.335 317.34c2.813-.01 5.405-1.52 6.802-3.963l35.43-61.897c1.398-2.442 1.388-5.44-.027-7.872l-35.89-61.636c-1.418-2.428-4.02-3.917-6.83-3.91l-71.324.265c-2.813.01-5.405 1.52-6.802 3.962l-35.43 61.897c-1.4 2.44-1.388 5.44.027 7.87l35.89 61.637c1.42 2.428 4.02 3.917 6.832 3.91l71.323-.265zM268.863 1H142.34L127.42 27.06c-1.398 2.44-1.387 5.44.028 7.87l35.89 61.636c1.418 2.428 4.02 3.917 6.83 3.91l71.324-.265c2.813-.01 5.405-1.52 6.802-3.96l35.43-61.898c1.398-2.442 1.388-5.44-.028-7.872L268.863 1zM240.494 245.16c2.813-.01 5.405-1.52 6.802-3.962l35.43-61.897c1.398-2.44 1.388-5.44-.027-7.87l-35.89-61.637c-1.42-2.428-4.02-3.917-6.832-3.91l-71.323.265c-2.813.01-5.405 1.52-6.802 3.962l-35.43 61.898c-1.4 2.44-1.388 5.44.027 7.87l35.89 61.637c1.418 2.428 4.02 3.917 6.83 3.91l71.324-.265zM115.113 172.39c2.813-.01 5.405-1.52 6.802-3.963l35.43-61.897c1.4-2.442 1.388-5.44-.027-7.872l-35.89-61.636c-1.418-2.428-4.02-3.917-6.83-3.91l-71.324.265c-2.813.01-5.405 1.52-6.802 3.962L1.042 99.237c-1.4 2.44-1.388 5.44.027 7.87l35.89 61.637c1.417 2.428 4.018 3.917 6.83 3.91l71.323-.266zM23.104 1L36.96 24.795c1.418 2.428 4.02 3.917 6.83 3.91l71.324-.265c2.813-.01 5.405-1.52 6.802-3.962L135.354 1H23.104z"/></svg>